<?xml version="1.0" encoding="utf-8"?>
<!-- Generator: Adobe Illustrator 22.0.0, SVG Export Plug-In . SVG Version: 6.00 Build 0)  -->
<svg version="1.1" id="Layer_1" xmlns="http://www.w3.org/2000/svg" xmlns:xlink="http://www.w3.org/1999/xlink" x="0px" y="0px"
	 viewBox="0 0 279.3 182.5" style="enable-background:new 0 0 279.3 182.5;" xml:space="preserve">
<style type="text/css">
	.st0{filter:url(#Adobe_OpacityMaskFilter);}
	.st1{fill:#FFFFFF;}
	.st2{mask:url(#mask-2_4_);fill:url(#Path-2_1_);fill-opacity:0.48;}
	.st3{filter:url(#Adobe_OpacityMaskFilter_1_);}
	.st4{mask:url(#mask-2_3_);fill:url(#Path-3_1_);}
</style>
<title>E0C90332-CBA9-40A9-B197-82ABE7C65E1B</title>
<desc>Created with sketchtool.</desc>
<defs>
	<filter id="Adobe_OpacityMaskFilter" filterUnits="userSpaceOnUse" x="-33.1" y="27.6" width="379.7" height="190.4">
		<feColorMatrix  type="matrix" values="1 0 0 0 0  0 1 0 0 0  0 0 1 0 0  0 0 0 1 0"/>
	</filter>
</defs>
<mask maskUnits="userSpaceOnUse" x="-33.1" y="27.6" width="379.7" height="190.4" id="mask-2_4_">
	<g class="st0">
		<path id="path-1_4_" class="st1" d="M-17.3-141.7h332c5.2,0,9.5,4.5,9.5,10.1v306.9c0,5.6-4.2,10.1-9.5,10.1h-332
			c-5.2,0-9.5-4.5-9.5-10.1v-306.9C-26.8-137.2-22.6-141.7-17.3-141.7z"/>
	</g>
</mask>
<linearGradient id="Path-2_1_" gradientUnits="userSpaceOnUse" x1="184.3179" y1="81.1979" x2="183.285" y2="81.4601" gradientTransform="matrix(320.25 0 0 -151.4013 -58712.25 12447.4932)">
	<stop  offset="0" style="stop-color:#F5515F"/>
	<stop  offset="1" style="stop-color:#9F041B"/>
</linearGradient>
<path id="Path-2" class="st2" d="M-33.1,108.6c1.9-50.9,4-77.3,6.2-79.2c8.7-7.4,19.1,10.3,32.1,23.9c11.1,11.7,25.1,19,30.3,20.1
	c26.2,5.9,28.7,35.2,42.5,30.2s31.4-32.7,41.2-32.7c8.4,0,20,11.3,28.7,8.8c6-1.7,19.9-17.6,33.7-26.4c13.9-8.8,30.4-15.4,32.9-13.8
	c0.3,0.2,6.3,2.7,11.9,10.1c10.4,13.8,24.3,36.4,32.1,34c20.2-6.3,63.3-36.2,64.2-34c4.8,11.2,12.8,59,23.8,143.4L-30.6,218
	L-33.1,108.6z"/>
<defs>
	<filter id="Adobe_OpacityMaskFilter_1_" filterUnits="userSpaceOnUse" x="-40.7" y="27.5" width="366" height="87">
		<feColorMatrix  type="matrix" values="1 0 0 0 0  0 1 0 0 0  0 0 1 0 0  0 0 0 1 0"/>
	</filter>
</defs>
<mask maskUnits="userSpaceOnUse" x="-40.7" y="27.5" width="366" height="87" id="mask-2_3_">
	<g class="st3">
		<path id="path-1_3_" class="st1" d="M-17.3-141.7h332c5.2,0,9.5,4.5,9.5,10.1v306.9c0,5.6-4.2,10.1-9.5,10.1h-332
			c-5.2,0-9.5-4.5-9.5-10.1v-306.9C-26.8-137.2-22.6-141.7-17.3-141.7z"/>
	</g>
</mask>
<linearGradient id="Path-3_1_" gradientUnits="userSpaceOnUse" x1="184.2086" y1="82.0757" x2="183.3365" y2="82.0757" gradientTransform="matrix(308.6779 0 0 -69.1664 -56589.3984 5747.8438)">
	<stop  offset="0" style="stop-color:#F5515F"/>
	<stop  offset="1" style="stop-color:#9F041B"/>
</linearGradient>
<path id="Path-3" class="st4" d="M-31.3,113.7l-5.9,0.8c-7-57.9-3.6-87,12.8-87c5,0,9.8,2.1,14.9,6.2c3.8,3,7.3,6.6,12.9,12.9
	c0.5,0.6,0.7,0.8,1.8,2.1c12.6,14.3,18.5,19.1,25.7,19.1c5.2,0,9.7,1.9,14.1,5.4c3.2,2.5,5.4,5,10.1,10.8c9.4,11.6,14,15,21.9,14
	c5.8-0.7,10.2-3.7,18-11.1c0.3-0.3,0.6-0.5,0.9-0.9c0.5-0.5,0.7-0.7,0.9-0.9c7.4-7.1,11.5-10.3,17.2-12.6c7.5-3.1,15.7-2.8,25.1,1.4
	c11.2,5,18.3,1.6,29.5-11.1c0.6-0.7,1.3-1.5,2.2-2.5c0.3-0.3,1.2-1.3,1.1-1.3c0.5-0.5,0.8-0.9,1.1-1.3c6.2-7.1,10.2-11,15.2-14.3
	c6.6-4.4,13.5-6.4,21.5-5.8c8.5,0.6,14.7,3.4,19.3,8.2c3.5,3.6,5.5,7.4,8.5,14.8c0.1,0.3,0.2,0.5,0.4,1c2.9,7.1,4.5,10.2,7.2,12.9
	c3.5,3.5,8.4,5.4,15.7,5.4c5.9,0,13.5-2.8,22.7-7.9c4.1-2.3,8.4-5,13.4-8.3c3.5-2.3,14.7-10.2,16.7-11.5c5.9-4,9.2-5.7,11.7-5.7v6.3
	c-0.8,0-3.8,1.6-8.5,4.8c-1.9,1.3-13.2,9.2-16.7,11.5c-5,3.4-9.5,6.2-13.8,8.6c-10,5.6-18.4,8.7-25.5,8.7c-8.8,0-15.1-2.4-19.8-7.1
	c-3.5-3.5-5.4-7.1-8.6-15c-0.2-0.5-0.3-0.8-0.4-1c-2.7-6.7-4.5-9.9-7.2-12.8c-3.6-3.7-8.4-5.9-15.5-6.4
	c-12.1-0.9-19.8,4.3-31.9,18.2c-0.3,0.4-0.7,0.8-1.1,1.3c0,0-0.9,1-1.1,1.3c-0.9,1-1.6,1.8-2.2,2.6c-5.9,6.7-10.2,10.5-15.2,12.9
	c-6.4,3.1-13.2,3.1-20.9-0.3c-8-3.5-14.6-3.8-20.7-1.3c-4.8,1.9-8.4,4.8-15.3,11.4c-0.2,0.2-0.5,0.5-0.9,0.9c-0.4,0.4-0.7,0.6-1,0.9
	c-8.7,8.2-14,11.8-21.3,12.6c-5.9,0.7-11-0.9-15.9-4.5c-3.5-2.6-5.9-5.3-11.1-11.6C41.9,77.4,37.7,74,30.9,74
	c-5.4,0-10.6-2.4-16.2-6.9c-4-3.3-7.2-6.6-13.8-14.2c-1.1-1.3-1.3-1.5-1.8-2c-10.9-12.3-16.9-17.1-23.5-17.1
	C-34.7,33.8-37.8,60.3-31.3,113.7z"/>
</svg>
