<svg xmlns="http://www.w3.org/2000/svg" xmlns:xlink="http://www.w3.org/1999/xlink" width="24" height="24" viewBox="0 0 24 24">
    <defs>
        <path id="a" d="M9 5v1a1 1 0 1 1-2 0V5H5a1 1 0 0 0-1 1v14a1 1 0 0 0 1 1h14a1 1 0 0 0 1-1V6a1 1 0 0 0-1-1h-2v1a1 1 0 0 1-2 0V5H9zm0-2h6V2a1 1 0 0 1 2 0v1h2a3 3 0 0 1 3 3v14a3 3 0 0 1-3 3H5a3 3 0 0 1-3-3V6a3 3 0 0 1 3-3h2V2a1 1 0 1 1 2 0v1zm-5 8h16v-1-1H4v2z"/>
    </defs>
    <g fill="none" fill-rule="evenodd">
        <path d="M0 0h24v24H0z"/>
        <mask id="b" fill="#fff">
            <use xlink:href="#a"/>
        </mask>
        <g fill="#333" mask="url(#b)">
            <path d="M1 0h24v24H1z"/>
        </g>
    </g>
</svg>
