<?xml version="1.0" encoding="utf-8"?>
<!-- Generator: Adobe Illustrator 16.0.0, SVG Export Plug-In . SVG Version: 6.00 Build 0)  -->
<!DOCTYPE svg PUBLIC "-//W3C//DTD SVG 1.1//EN" "http://www.w3.org/Graphics/SVG/1.1/DTD/svg11.dtd">
<svg version="1.1" id="Layer_1" xmlns="http://www.w3.org/2000/svg" xmlns:xlink="http://www.w3.org/1999/xlink" x="0px" y="0px"
	 width="24px" height="24px" viewBox="0 0 24 24" enable-background="new 0 0 24 24" xml:space="preserve">
<title>303A3B3B-FDE7-40D2-B913-56F4BBBD15DD</title>
<desc>Created with sketchtool.</desc>
<g id="Symbols">
	<g id="Icons-_x2F_-24px-_x2F_-Check">
		<g id="Combined-Shape">
			<path id="path-1_1_" fill="#00B79D" d="M20,11.076c0-0.552,0.447-1,1-1s1,0.448,1,1v0.931c-0.003,4.872-3.209,9.161-7.881,10.542
				c-4.672,1.382-9.695-0.475-12.347-4.561C-0.879,13.9-0.527,8.557,2.638,4.854s8.389-4.883,12.838-2.901
				c0.505,0.225,0.732,0.816,0.507,1.321c-0.225,0.504-0.815,0.731-1.32,0.506C11.022,2.158,6.748,3.123,4.159,6.153
				c-2.59,3.03-2.878,7.401-0.709,10.745c2.169,3.344,6.28,4.863,10.102,3.732c3.822-1.13,6.446-4.639,6.448-8.625V11.076z
				 M11,12.592L21.293,2.299c0.391-0.391,1.023-0.391,1.414,0c0.391,0.39,0.391,1.023,0,1.414l-11,11
				c-0.391,0.391-1.023,0.391-1.414,0l-3-3c-0.391-0.391-0.391-1.024,0-1.414c0.391-0.391,1.023-0.391,1.414,0L11,12.592z"/>
		</g>
		<defs>
			<filter id="Adobe_OpacityMaskFilter" filterUnits="userSpaceOnUse" x="0" y="0" width="24" height="24">
				<feColorMatrix  type="matrix" values="1 0 0 0 0  0 1 0 0 0  0 0 1 0 0  0 0 0 1 0"/>
			</filter>
		</defs>
		<mask maskUnits="userSpaceOnUse" x="0" y="0" width="24" height="24" id="mask-2">
			<g filter="url(#Adobe_OpacityMaskFilter)">
				<path id="path-1" fill="#FFFFFF" d="M20,11.076c0-0.552,0.447-1,1-1s1,0.448,1,1v0.931c-0.003,4.872-3.209,9.161-7.881,10.542
					c-4.672,1.382-9.695-0.475-12.347-4.561C-0.879,13.9-0.527,8.557,2.638,4.854s8.389-4.883,12.838-2.901
					c0.505,0.225,0.732,0.816,0.507,1.321c-0.225,0.504-0.815,0.731-1.32,0.506C11.022,2.158,6.748,3.123,4.159,6.153
					c-2.59,3.03-2.878,7.401-0.709,10.745c2.169,3.344,6.28,4.863,10.102,3.732c3.822-1.13,6.446-4.639,6.448-8.625V11.076z
					 M11,12.592L21.293,2.299c0.391-0.391,1.023-0.391,1.414,0c0.391,0.39,0.391,1.023,0,1.414l-11,11
					c-0.391,0.391-1.023,0.391-1.414,0l-3-3c-0.391-0.391-0.391-1.024,0-1.414c0.391-0.391,1.023-0.391,1.414,0L11,12.592z"/>
			</g>
		</mask>
		<g id="UI_x2F_Color_x2F_Flat_x2F_Black" mask="url(#mask-2)">
			<rect id="Base" fill="#00B79D" width="24" height="24"/>
		</g>
	</g>
</g>
</svg>
