<svg xmlns="http://www.w3.org/2000/svg" xmlns:xlink="http://www.w3.org/1999/xlink" width="24" height="24" viewBox="0 0 24 24">
    <defs>
        <path id="a" d="M11 4v16h2V4h-2zm-1-2h4a1 1 0 0 1 1 1v18a1 1 0 0 1-1 1h-4a1 1 0 0 1-1-1V3a1 1 0 0 1 1-1zm8 5h4a1 1 0 0 1 1 1v13a1 1 0 0 1-1 1h-4a1 1 0 0 1-1-1V8a1 1 0 0 1 1-1zm1 2v11h2V9h-2zM2 12h4a1 1 0 0 1 1 1v8a1 1 0 0 1-1 1H2a1 1 0 0 1-1-1v-8a1 1 0 0 1 1-1zm1 2v6h2v-6H3z"/>
    </defs>
    <g fill="none" fill-rule="evenodd">
        <mask id="b" fill="#fff">
            <use xlink:href="#a"/>
        </mask>
        <use fill="#000" fill-rule="nonzero" xlink:href="#a"/>
        <g fill="#000" mask="url(#b)">
            <path d="M0 0h24v24H0z"/>
        </g>
    </g>
</svg>
