<?xml version="1.0" encoding="utf-8"?>
<!-- Generator: Adobe Illustrator 16.0.0, SVG Export Plug-In . SVG Version: 6.00 Build 0)  -->
<!DOCTYPE svg PUBLIC "-//W3C//DTD SVG 1.1//EN" "http://www.w3.org/Graphics/SVG/1.1/DTD/svg11.dtd">
<svg version="1.1" id="Layer_1" xmlns="http://www.w3.org/2000/svg" xmlns:xlink="http://www.w3.org/1999/xlink" x="0px" y="0px"
	 width="24px" height="24px" viewBox="0 0 24 24" enable-background="new 0 0 24 24" xml:space="preserve">
<title>85F4120A-5AB7-476E-B4AE-BAE184199C78</title>
<desc>Created with sketchtool.</desc>
<g id="Symbols">
	<g id="Icons-_x2F_-24px-_x2F_-city">
		<g id="Combined-Shape">
			<path id="path-1_1_" fill="#EE6F11" d="M11,4v16h2V4H11z M10,2h4c0.553,0,1,0.448,1,1v18c0,0.553-0.447,1-1,1h-4
				c-0.552,0-1-0.447-1-1V3C9,2.448,9.448,2,10,2z M18,7h4c0.553,0,1,0.448,1,1v13c0,0.553-0.447,1-1,1h-4c-0.553,0-1-0.447-1-1V8
				C17,7.448,17.447,7,18,7z M19,9v11h2V9H19z M2,12h4c0.552,0,1,0.448,1,1v8c0,0.553-0.448,1-1,1H2c-0.552,0-1-0.447-1-1v-8
				C1,12.448,1.448,12,2,12z M3,14v6h2v-6H3z"/>
		</g>
		<defs>
			<filter id="Adobe_OpacityMaskFilter" filterUnits="userSpaceOnUse" x="0" y="0" width="24" height="24">
				<feColorMatrix  type="matrix" values="1 0 0 0 0  0 1 0 0 0  0 0 1 0 0  0 0 0 1 0"/>
			</filter>
		</defs>
		<mask maskUnits="userSpaceOnUse" x="0" y="0" width="24" height="24" id="mask-2">
			<g filter="url(#Adobe_OpacityMaskFilter)">
				<path id="path-1" fill="#FFFFFF" d="M11,4v16h2V4H11z M10,2h4c0.553,0,1,0.448,1,1v18c0,0.553-0.447,1-1,1h-4
					c-0.552,0-1-0.447-1-1V3C9,2.448,9.448,2,10,2z M18,7h4c0.553,0,1,0.448,1,1v13c0,0.553-0.447,1-1,1h-4c-0.553,0-1-0.447-1-1V8
					C17,7.448,17.447,7,18,7z M19,9v11h2V9H19z M2,12h4c0.552,0,1,0.448,1,1v8c0,0.553-0.448,1-1,1H2c-0.552,0-1-0.447-1-1v-8
					C1,12.448,1.448,12,2,12z M3,14v6h2v-6H3z"/>
			</g>
		</mask>
		<g id="UI_x2F_Color_x2F_Flat_x2F_Black" mask="url(#mask-2)">
			<rect id="Base" fill="#EE6F11" width="24" height="24"/>
		</g>
	</g>
</g>
</svg>
