<?xml version="1.0" encoding="UTF-8"?>
<svg width="24px" height="24px" viewBox="0 0 24 24" version="1.1" xmlns="http://www.w3.org/2000/svg" xmlns:xlink="http://www.w3.org/1999/xlink">
    <!-- Generator: sketchtool 49 (51002) - http://www.bohemiancoding.com/sketch -->
    <title>2D6DA29E-ADDE-4BA0-B0C3-6F3688B72BE6</title>
    <desc>Created with sketchtool.</desc>
    <defs>
        <path d="M21.1899363,1 L4.48802548,1 C4.06611465,1 3.72369427,1.336 3.72369427,1.75 L3.72369427,6.07475 L2.76433121,6.07475 C2.34242038,6.07475 2,6.41075 2,6.82475 C2,7.23925 2.34242038,7.57475 2.76433121,7.57475 L3.72369427,7.57475 L3.72369427,11.15 L2.76433121,11.15 C2.34242038,11.15 2,11.485875 2,11.9 C2,12.314 2.34242038,12.65 2.76433121,12.65 L3.72369427,12.65 L3.72369427,16.224625 L2.76433121,16.224625 C2.34242038,16.224625 2,16.560625 2,16.974625 C2,17.38925 2.34242038,17.724625 2.76433121,17.724625 L3.72369427,17.724625 L3.72369427,22.049875 C3.72369427,22.463875 4.06611465,22.799875 4.48802548,22.799875 L21.1899363,22.799875 C21.6123567,22.799875 21.9542675,22.463875 21.9542675,22.049875 L21.9542675,1.75 C21.9542675,1.336 21.6123567,1 21.1899363,1 Z M20.4256051,21.299875 L5.25235669,21.299875 L5.25235669,17.724625 L6.2122293,17.724625 C6.63426752,17.724625 6.97656051,17.38925 6.97656051,16.974625 C6.97656051,16.560625 6.63426752,16.224625 6.2122293,16.224625 L5.25235669,16.224625 L5.25235669,12.65 L6.2122293,12.65 C6.63426752,12.65 6.97656051,12.314 6.97656051,11.9 C6.97656051,11.485875 6.63426752,11.15 6.2122293,11.15 L5.25235669,11.15 L5.25235669,7.57475 L6.2122293,7.57475 C6.63426752,7.57475 6.97656051,7.23925 6.97656051,6.82475 C6.97656051,6.41075 6.63426752,6.07475 6.2122293,6.07475 L5.25235669,6.07475 L5.25235669,2.5 L20.4256051,2.5 L20.4256051,21.299875 Z M13.3858599,12.244625 C15.1184713,12.244625 16.5287898,10.860875 16.5287898,9.15975 C16.5287898,7.4585 15.1184713,6.07475 13.3858599,6.07475 C11.6526115,6.07475 10.2424204,7.4585 10.2424204,9.15975 C10.2424204,10.860875 11.6526115,12.244625 13.3858599,12.244625 Z M13.3858599,7.57475 C14.276051,7.57475 15.0001274,8.286125 15.0001274,9.15975 C15.0001274,10.03375 14.276051,10.744625 13.3858599,10.744625 C12.4956688,10.744625 11.7710828,10.03375 11.7710828,9.15975 C11.7710828,8.286125 12.4956688,7.57475 13.3858599,7.57475 Z M9.8866242,17.854 C10.3086624,17.854 10.6509554,17.518125 10.6509554,17.104 L10.6509554,15.808125 C10.6509554,14.976125 11.3406369,14.299375 12.188535,14.299375 L14.6020382,14.299375 C15.4499363,14.299375 16.1401274,14.976125 16.1401274,15.808125 L16.1401274,17.104 C16.1401274,17.518125 16.4820382,17.854 16.9044586,17.854 C17.3263694,17.854 17.6687898,17.518125 17.6687898,17.104 L17.6687898,15.808125 C17.6687898,14.149 16.2928662,12.799375 14.6020382,12.799375 L12.188535,12.799375 C10.497707,12.799375 9.12229299,14.149 9.12229299,15.808125 L9.12229299,17.104 C9.12229299,17.518125 9.46420382,17.854 9.8866242,17.854 Z" id="path-1"></path>
    </defs>
    <g id="Symbols" stroke="none" stroke-width="1" fill="none" fill-rule="evenodd">
        <g id="Icons-/-24px-/-contact">
            <mask id="mask-2" fill="white">
                <use xlink:href="#path-1"></use>
            </mask>
            <use id="Combined-Shape" fill="#000000" xlink:href="#path-1"></use>
            <g id="UI/Color/Flat/Black" mask="url(#mask-2)" fill="#000000">
                <rect id="Base" x="0" y="0" width="24" height="24"></rect>
            </g>
        </g>
    </g>
</svg>