<svg xmlns="http://www.w3.org/2000/svg" xmlns:xlink="http://www.w3.org/1999/xlink" width="24" height="24" viewBox="0 0 24 24">
    <defs>
        <path id="a" d="M8.707 17.293l3.628 3.628 3.628-3.628a1 1 0 0 1 1.414 1.414l-4.335 4.335a1 1 0 0 1-1.414 0l-4.335-4.335a1 1 0 0 1 1.414-1.414zm0-10.25a1 1 0 0 1-1.414-1.415l4.335-4.335a1 1 0 0 1 1.414 0l4.335 4.335a1 1 0 0 1-1.414 1.414l-3.628-3.628-3.628 3.628z"/>
    </defs>
    <g fill="none" fill-rule="evenodd">
        <path d="M0 0h24v24H0z"/>
        <mask id="b" fill="#fff">
            <use xlink:href="#a"/>
        </mask>
        <g fill="#333" mask="url(#b)">
            <path d="M0 0h24v24H0z"/>
        </g>
    </g>
</svg>
