<svg xmlns="http://www.w3.org/2000/svg" width="39" height="39" viewBox="0 0 39 39">
    <path fill="#999" fill-rule="evenodd" d="M28.865 21.279l1.065 2.37-17.188 7.645-1.067-2.43 17.19-7.585zm-5.632-6.58a3.037 3.037 0 0 1 3.024-3.023c1.66 0 2.962 1.364 2.962 3.024a2.97 2.97 0 0 1-2.962 2.962c-1.66 0-3.024-1.36-3.024-2.962zm-9.897 2.963c-1.66 0-3.025-1.36-3.025-2.962a3.037 3.037 0 0 1 3.025-3.024 3.036 3.036 0 0 1 3.022 3.024c0 1.601-1.363 2.962-3.022 2.962zM19.5 37.458c-9.899 0-17.96-8.001-17.96-17.958C1.54 9.604 9.6 1.542 19.5 1.542c9.896 0 17.958 8.062 17.958 17.958 0 9.957-8.062 17.958-17.958 17.958zM19.5 0C8.713 0 0 8.713 0 19.5S8.713 39 19.5 39C30.228 39 39 30.287 39 19.5S30.228 0 19.5 0z"/>
</svg>
