<svg xmlns="http://www.w3.org/2000/svg" width="39" height="39" viewBox="0 0 39 39">
    <path fill="#999" fill-rule="evenodd" d="M22.074 13.513c0-.89.829-1.6 1.834-1.6 1.008 0 1.421.415 1.953 1.244.416-.829.89-1.244 1.835-1.244 1.067 0 1.895.71 1.895 1.6 0 1.54-1.895 3.082-3.73 4.683-1.953-1.6-3.787-3.144-3.787-4.683m-11.836 0c0-.89.83-1.6 1.893-1.6.948 0 1.422.415 1.835 1.244.532-.829 1.007-1.244 1.954-1.244 1.006 0 1.834.71 1.834 1.6 0 1.54-1.834 3.082-3.788 4.683-1.835-1.6-3.728-3.144-3.728-4.683m-.592 9.424l20.595.06a10.704 10.704 0 0 1-10.297 7.704c-4.853 0-8.996-3.259-10.298-7.764m9.824 14.52c-9.883 0-17.873-8-17.873-17.958 0-9.897 7.99-17.96 17.873-17.96 9.884 0 17.932 8.063 17.932 17.96 0 9.959-8.048 17.958-17.932 17.958M19.47 0C8.758 0 0 8.71 0 19.5 0 30.285 8.758 39 19.47 39 30.241 39 39 30.286 39 19.5 39 8.71 30.241 0 19.47 0"/>
</svg>
