<svg xmlns="http://www.w3.org/2000/svg" width="39" height="39" viewBox="0 0 39 39">
    <path fill="#FF6300" fill-rule="evenodd" d="M30.037 30.643c-2.316-3.259-6.114-5.392-10.33-5.392-4.332 0-8.072 2.133-10.386 5.451 1.365-4.504 5.46-7.763 10.386-7.763 4.868-.06 8.965 3.2 10.33 7.704m-6.768-15.944c0-1.66 1.306-2.962 3.029-2.962a2.936 2.936 0 0 1 2.968 2.962 2.937 2.937 0 0 1-2.968 2.964c-1.723 0-3.029-1.304-3.029-2.964m-12.941 0c0-1.66 1.367-2.962 2.969-2.962 1.722 0 3.027 1.303 3.027 2.962 0 1.66-1.305 2.964-3.027 2.964-1.602 0-2.969-1.304-2.969-2.964m9.143 22.76c-9.913 0-17.928-8-17.928-17.959 0-9.838 8.015-17.959 17.928-17.959 9.972 0 18.046 8.12 18.046 17.959 0 9.959-8.074 17.959-18.046 17.959m0-37.459C8.726 0 0 8.713 0 19.5S8.726 39 19.471 39A19.455 19.455 0 0 0 39 19.5C39 8.713 30.333 0 19.471 0"/>
</svg>
