<?xml version="1.0" encoding="UTF-8"?>
<svg width="24px" height="24px" viewBox="0 0 24 24" version="1.1" xmlns="http://www.w3.org/2000/svg" xmlns:xlink="http://www.w3.org/1999/xlink">
    <!-- Generator: sketchtool 49 (51002) - http://www.bohemiancoding.com/sketch -->
    <title>73C5A57B-FE58-4C1F-9BC6-354E0444D71C</title>
    <desc>Created with sketchtool.</desc>
    <defs>
        <path d="M14.2632,20.7017 C15.7892,18.4087 16.7102,15.7617 16.9352,12.9997 L20.9412,12.9997 C20.5272,16.7387 17.8232,19.7777 14.2632,20.7017 Z M3.0582,12.9997 L7.0672,12.9997 C7.2962,15.7747 8.2172,18.4157 9.7372,20.7017 C6.1772,19.7777 3.4722,16.7387 3.0582,12.9997 Z M9.7372,3.2987 C8.2112,5.5917 7.2892,8.2387 7.0652,10.9997 L3.0582,10.9997 C3.4722,7.2617 6.1772,4.2227 9.7372,3.2987 Z M9.0602,10.9997 C9.3062,8.3027 10.3242,5.7097 12.0002,3.5507 C13.6692,5.7017 14.6862,8.2867 14.9382,10.9997 L9.0602,10.9997 Z M9.0622,12.9997 L14.9392,12.9997 C14.6932,15.6977 13.6762,18.2907 12.0002,20.4497 C10.3302,18.2987 9.3132,15.7127 9.0622,12.9997 Z M20.9412,10.9997 L16.9322,10.9997 C16.7042,8.2247 15.7832,5.5847 14.2632,3.2987 C17.8232,4.2227 20.5272,7.2617 20.9412,10.9997 Z M12.0002,0.9997 C5.9252,0.9997 1.0002,5.9247 1.0002,11.9997 C1.0002,18.0757 5.9252,22.9997 12.0002,22.9997 C18.0752,22.9997 23.0002,18.0757 23.0002,11.9997 C23.0002,5.9247 18.0752,0.9997 12.0002,0.9997 Z" id="path-1"></path>
    </defs>
    <g id="Symbols" stroke="none" stroke-width="1" fill="none" fill-rule="evenodd">
        <g id="Icons-/-24px-/-globe">
            <mask id="mask-2" fill="white">
                <use xlink:href="#path-1"></use>
            </mask>
            <use id="Fill-1" fill="#000000" xlink:href="#path-1"></use>
            <g id="UI/Color/Flat/Black" mask="url(#mask-2)" fill="#000000">
                <rect id="Base" x="0" y="0" width="24" height="24"></rect>
            </g>
        </g>
    </g>
</svg>