<?xml version="1.0" encoding="UTF-8"?>
<svg width="68px" height="70px" viewBox="0 0 68 70" version="1.1" xmlns="http://www.w3.org/2000/svg" xmlns:xlink="http://www.w3.org/1999/xlink">
    <!-- Generator: sketchtool 49 (51002) - http://www.bohemiancoding.com/sketch -->
    <title>5D11EFC9-1C80-45EC-8EAB-FEBE43D5665F</title>
    <desc>Created with sketchtool.</desc>
    <defs></defs>
    <g id="💻-Desktop-Web" stroke="none" stroke-width="1" fill="none" fill-rule="evenodd">
        <g id="1.1.Home-Page" transform="translate(-686.000000, -1679.000000)" fill="#1046F1">
            <g id="Group-8" transform="translate(686.000000, 1679.000000)">
                <path d="M67.9497908,0.258619247 L0,0.258619247 L0,3.7732636 L3.91062762,3.7732636 L3.91062762,40.4676151 L64.0391632,40.4676151 L64.0391632,3.7732636 L67.9497908,3.7732636 L67.9497908,0.258619247 Z M7.42527197,36.9529707 L60.5245188,36.9529707 L60.5245188,3.7732636 L7.42527197,3.7732636 L7.42527197,36.9529707 Z" id="Fill-1"></path>
                <path d="M21.5901674,33.9737238 C27.2876987,33.9737238 31.9235146,29.3390795 31.9235146,23.6415481 L31.9235146,21.8842259 L23.3474895,21.8842259 L23.3474895,13.3093724 L21.5901674,13.3093724 C15.892636,13.3093724 11.2579916,17.9440167 11.2579916,23.6415481 C11.2579916,29.3390795 15.892636,33.9737238 21.5901674,33.9737238 Z M19.8328452,17.0527615 L19.8328452,25.3988703 L28.178954,25.3988703 C27.4022176,28.3095816 24.7422176,30.4590795 21.5901674,30.4590795 C17.8306695,30.4590795 14.772636,27.401046 14.772636,23.6415481 C14.772636,20.4894979 16.9221339,17.8306695 19.8328452,17.0527615 Z" id="Fill-4"></path>
                <path d="M37.328159,18.2369038 C37.328159,12.5393724 32.6935146,7.90355649 26.9959833,7.90355649 L25.2386611,7.90355649 L25.2386611,19.9942259 L37.328159,19.9942259 L37.328159,18.2369038 Z M28.7533054,16.4795816 L28.7533054,11.6481172 C31.1019665,12.2751883 32.9565272,14.129749 33.5835983,16.4795816 L28.7533054,16.4795816 Z" id="Fill-5"></path>
                <polygon id="Fill-6" points="39.9287029 9.95610879 56.2925941 9.95610879 56.2925941 6.44146444 39.9287029 6.44146444"></polygon>
                <polygon id="Fill-7" points="39.9287029 17.5711715 56.2925941 17.5711715 56.2925941 14.0565272 39.9287029 14.0565272"></polygon>
                <polygon id="Fill-8" points="39.9287029 25.1862343 56.2925941 25.1862343 56.2925941 21.67159 39.9287029 21.67159"></polygon>
                <polygon id="Fill-9" points="39.9287029 32.8012971 56.2925941 32.8012971 56.2925941 29.2866527 39.9287029 29.2866527"></polygon>
                <polygon id="Fill-10" points="42.3713808 47.0071967 42.3713808 43.4925523 25.57841 43.4925523 25.57841 47.0071967 31.4074477 47.0071967 14.9360669 67.8194561 17.6909623 70 32.2175732 51.6476987 32.2175732 68.568954 35.7322176 68.568954 35.7322176 51.3079498 50.3742259 69.8409623 53.132636 67.6627615 36.8144351 47.0071967"></polygon>
            </g>
        </g>
    </g>
</svg>