<?xml version="1.0" encoding="utf-8"?>
<!-- Generator: Adobe Illustrator 16.0.0, SVG Export Plug-In . SVG Version: 6.00 Build 0)  -->
<!DOCTYPE svg PUBLIC "-//W3C//DTD SVG 1.1//EN" "http://www.w3.org/Graphics/SVG/1.1/DTD/svg11.dtd">
<svg version="1.1" id="Layer_1" xmlns="http://www.w3.org/2000/svg" xmlns:xlink="http://www.w3.org/1999/xlink" x="0px" y="0px"
	 width="24px" height="24.75px" viewBox="0 -2.75 24 24.75" enable-background="new 0 -2.75 24 24.75" xml:space="preserve">
<title>3775A0DA-960F-42B1-B77A-406591BBB47F</title>
<desc>Created with sketchtool.</desc>
<g id="_xD83D__xDCBB_-Desktop-Web">
	<g id="_x31_.8.Profile-" transform="translate(-555.000000, -585.000000)">
		<g id="Group-3" transform="translate(553.000000, 582.000000)">
			<g id="Icons-_x2F_-24px-_x2F_-edit" transform="translate(0.000000, 2.000000)">
				<rect id="Base" x="2" y="-1.375" fill="none" width="24" height="24"/>
				<g id="Mask">
				</g>
				<defs>
					<filter id="Adobe_OpacityMaskFilter" filterUnits="userSpaceOnUse" x="2" y="-1.375" width="24" height="24">
						<feColorMatrix  type="matrix" values="1 0 0 0 0  0 1 0 0 0  0 0 1 0 0  0 0 0 1 0"/>
					</filter>
				</defs>
				<mask maskUnits="userSpaceOnUse" x="2" y="-1.375" width="24" height="24" id="mask-2">
					<g filter="url(#Adobe_OpacityMaskFilter)">
						<path id="path-1" fill="#FFFFFF" d="M6,12.039v2.586h2.586l10-10L16,2.039L6,12.039z M16.707-0.082l4,4
							c0.391,0.391,0.391,1.023,0,1.414l-11,11C9.52,16.52,9.265,16.625,9,16.625H5c-0.552,0-1-0.447-1-1v-4
							c0-0.266,0.105-0.52,0.293-0.707l11-11C15.684-0.473,16.316-0.473,16.707-0.082z M5,21.625c-0.552,0-1-0.447-1-1s0.448-1,1-1
							h18c0.552,0,1,0.447,1,1s-0.448,1-1,1H5z"/>
					</g>
				</mask>
				<g id="UI_x2F_Color_x2F_Flat_x2F_Primary-Dark" mask="url(#mask-2)">
					<rect id="Base_1_" x="2" y="-1.375" fill="#1046F1" width="24" height="24"/>
				</g>
			</g>
		</g>
	</g>
</g>
</svg>
