<?xml version="1.0" encoding="utf-8"?>
<!-- Generator: Adobe Illustrator 16.0.0, SVG Export Plug-In . SVG Version: 6.00 Build 0)  -->
<!DOCTYPE svg PUBLIC "-//W3C//DTD SVG 1.1//EN" "http://www.w3.org/Graphics/SVG/1.1/DTD/svg11.dtd">
<svg version="1.1" id="Layer_1" xmlns="http://www.w3.org/2000/svg" xmlns:xlink="http://www.w3.org/1999/xlink" x="0px" y="0px"
	 width="55px" height="70px" viewBox="0 0 55 70" enable-background="new 0 0 55 70" xml:space="preserve">
<title>7A7F5E48-047F-4603-8AC2-068C58DDB5E5</title>
<desc>Created with sketchtool.</desc>
<g id="_xD83D__xDCBB_-Desktop-Web">
	<g id="_x31_.1.Home-Page" transform="translate(-1095.000000, -1679.000000)">
		<g id="Group-9" transform="translate(1095.000000, 1679.000000)">
			<path id="Fill-1" fill="#1046F1" d="M46.37,13.469c3.71,0,6.724-3.001,6.724-6.691c0-3.691-3.014-6.692-6.724-6.692
				s-6.724,3.016-6.724,6.692C39.646,10.454,42.66,13.469,46.37,13.469z M46.37,3.547c1.782,0,3.247,1.45,3.247,3.245
				s-1.449,3.246-3.247,3.246c-1.797,0-3.246-1.465-3.246-3.259C43.124,4.983,44.573,3.547,46.37,3.547z"/>
			<path id="Fill-3" fill="#1046F1" d="M6.724,56.617C3.014,56.617,0,59.619,0,63.309C0,66.999,3.014,70,6.724,70
				c3.71,0,6.724-3.001,6.724-6.691C13.447,59.619,10.419,56.617,6.724,56.617z M6.724,66.554c-1.782,0-3.246-1.45-3.246-3.245
				c0-1.78,1.449-3.245,3.246-3.245s3.246,1.45,3.246,3.245C9.955,65.09,8.506,66.554,6.724,66.554z"/>
			<path id="Fill-5" fill="#1046F1" d="M23.344,29.737c0.333,0.33,0.783,0.503,1.232,0.503s0.884-0.173,1.232-0.503
				c0.681-0.675,0.681-1.766,0-2.44l-3.623-3.59l3.623-3.59c0.681-0.675,0.681-1.766,0-2.441c-0.681-0.675-1.782-0.675-2.464,0
				l-3.623,3.59l-3.623-3.59c-0.681-0.675-1.783-0.675-2.463,0c-0.681,0.675-0.681,1.766,0,2.441l3.623,3.59l-3.623,3.59
				c-0.681,0.674-0.681,1.766,0,2.44c0.333,0.33,0.783,0.503,1.231,0.503c0.449,0,0.884-0.173,1.232-0.503l3.623-3.59L23.344,29.737
				z"/>
			<path id="Fill-6" fill="#1046F1" d="M52.457,45.316c-0.682-0.675-1.783-0.675-2.464,0l-3.623,3.59l-3.622-3.59
				c-0.682-0.675-1.783-0.675-2.465,0c-0.68,0.676-0.68,1.767,0,2.441l3.623,3.59l-3.623,3.59c-0.68,0.675-0.68,1.766,0,2.441
				c0.334,0.33,0.783,0.502,1.232,0.502s0.884-0.172,1.232-0.502l3.622-3.59l3.623,3.59c0.333,0.33,0.782,0.502,1.231,0.502
				s0.884-0.172,1.232-0.502c0.68-0.676,0.68-1.767,0-2.441l-3.623-3.59l3.623-3.59C53.137,47.069,53.137,45.992,52.457,45.316z"/>
			<path id="Fill-7" fill="#1046F1" d="M31.851,54.205c-0.682-0.674-1.782-0.674-2.464,0l-3.623,3.59l-3.623-3.59
				c-0.681-0.674-1.783-0.674-2.463,0c-0.682,0.676-0.682,1.766,0,2.441l3.623,3.59l-3.623,3.59c-0.682,0.674-0.682,1.766,0,2.44
				c0.333,0.33,0.782,0.503,1.231,0.503c0.45,0,0.884-0.173,1.231-0.503l3.623-3.59l3.623,3.59c0.334,0.33,0.783,0.503,1.232,0.503
				s0.884-0.173,1.231-0.503c0.682-0.675,0.682-1.767,0-2.44l-3.622-3.59l3.622-3.59C32.518,55.971,32.518,54.881,31.851,54.205z"/>
			<path id="Fill-8" fill="#1046F1" d="M20.591,41.253c0.957,0,1.739-0.775,1.739-1.722c0-0.949-0.783-1.725-1.739-1.725
				s-1.739,0.775-1.739,1.725C18.852,40.478,19.621,41.253,20.591,41.253z"/>
			<path id="Fill-9" fill="#1046F1" d="M7.709,46.336c0.29,0.188,0.623,0.288,0.957,0.288c0.565,0,1.116-0.272,1.449-0.775
				c0.521-0.79,0.304-1.867-0.493-2.384c-0.797-0.518-1.884-0.302-2.406,0.488C6.68,44.742,6.897,45.82,7.709,46.336z"/>
			<path id="Fill-10" fill="#1046F1" d="M13.143,38.971c-0.884,0.387-1.275,1.406-0.884,2.269c0.29,0.646,0.927,1.02,1.594,1.02
				c0.232,0,0.479-0.044,0.71-0.144c0.884-0.389,1.275-1.408,0.884-2.27C15.041,38.971,14.012,38.582,13.143,38.971z"/>
			<path id="Fill-11" fill="#1046F1" d="M29.213,39.531c0,0.951-0.778,1.722-1.738,1.722c-0.96,0-1.739-0.771-1.739-1.722
				c0-0.953,0.779-1.725,1.739-1.725C28.435,37.807,29.213,38.578,29.213,39.531z"/>
			<path id="Fill-12" fill="#1046F1" d="M6.724,53.07c0.464,0,0.913-0.186,1.232-0.502s0.507-0.762,0.507-1.221
				s-0.188-0.904-0.507-1.221s-0.768-0.502-1.232-0.502s-0.913,0.186-1.231,0.502c-0.319,0.316-0.507,0.762-0.507,1.221
				s0.188,0.904,0.507,1.221C5.811,52.885,6.26,53.07,6.724,53.07z"/>
			<path id="Fill-14" fill="#1046F1" d="M54.311,24.525l-6.723-6.663c-0.682-0.674-1.783-0.674-2.464,0L38.4,24.525
				c-0.682,0.675-0.682,1.767,0,2.441s1.782,0.675,2.464,0l3.753-3.719v4.451c0,5.571-4.608,10.095-10.273,10.095
				c-0.957,0-1.74,0.775-1.74,1.723c0,0.948,0.783,1.724,1.74,1.724c7.578,0,13.751-6.074,13.751-13.541v-4.465l3.753,3.719
				c0.333,0.331,0.782,0.502,1.231,0.502c0.45,0,0.885-0.172,1.231-0.502C54.992,26.292,54.992,25.2,54.311,24.525z"/>
		</g>
	</g>
</g>
</svg>
