<svg xmlns="http://www.w3.org/2000/svg" xmlns:xlink="http://www.w3.org/1999/xlink" width="24" height="24" viewBox="0 0 24 24">
    <defs>
        <path id="a" d="M4 9.49V20a1 1 0 0 0 1 1h14a1 1 0 0 0 1-1V9.49l-8-6.223-8 6.222zM2.386 8.21l9-7a1 1 0 0 1 1.228 0l9 7A1 1 0 0 1 22 9v11a3 3 0 0 1-3 3H5a3 3 0 0 1-3-3V9a1 1 0 0 1 .386-.79zM10 13h4v9a1 1 0 0 0 2 0V12a1 1 0 0 0-1-1H9a1 1 0 0 0-1 1v10a1 1 0 0 0 2 0v-9z"/>
    </defs>
    <g fill="none" fill-rule="evenodd">
        <mask id="b" fill="#fff">
            <use xlink:href="#a"/>
        </mask>
        <use fill="#000" fill-rule="nonzero" xlink:href="#a"/>
        <g fill="#000" mask="url(#b)">
            <path d="M0 0h24v24H0z"/>
        </g>
    </g>
</svg>
