<?xml version="1.0" encoding="UTF-8"?>
<svg width="32px" height="32px" viewBox="0 0 32 32" version="1.1" xmlns="http://www.w3.org/2000/svg" xmlns:xlink="http://www.w3.org/1999/xlink">
    <!-- Generator: sketchtool 49 (51002) - http://www.bohemiancoding.com/sketch -->
    <title>8F278328-D408-4D97-A8D0-0C62E55AEB9E</title>
    <desc>Created with sketchtool.</desc>
    <defs>
        <path d="M27.0002742,10.0008016 L12.0001219,10.0008016 L12.0001219,16.0012825 L17.0001727,16.0012825 C17.5521783,16.0012825 18.0001828,16.4493184 18.0001828,17.0013627 L18.0001828,20.0016031 C19.104194,20.0016031 20.0002031,20.8956748 20.0002031,22.0017634 L20.0002031,30.0024047 C20.0002031,31.1064932 19.104194,32.002565 18.0001828,32.002565 L16.0001625,32.002565 C14.8941513,32.002565 14.0001422,31.1064932 14.0001422,30.0024047 L14.0001422,22.0017634 C14.0001422,20.8956748 14.8941513,20.0016031 16.0001625,20.0016031 L16.0001625,18.0014428 L11.0001117,18.0014428 C10.4481061,18.0014428 10.0001016,17.5534069 10.0001016,17.0013627 L10.0001016,10.0008016 L5.00005078,10.0008016 C2.23802273,10.0008016 0,7.76262217 0,5.00040078 C0,2.23817939 2.23802273,0 5.00005078,0 L27.0002742,0 C29.7603022,0 32.000325,2.23817939 32.000325,5.00040078 C32.000325,7.76262217 29.7603022,10.0008016 27.0002742,10.0008016 Z M16.0001625,29.0023245 C16.0001625,29.5563689 16.448167,30.0024047 17.0001727,30.0024047 C17.5521783,30.0024047 18.0001828,29.5543688 18.0001828,29.0023245 L18.0001828,23.0018436 C18.0001828,22.4497993 17.5521783,22.0017634 17.0001727,22.0017634 C16.448167,22.0017634 16.0001625,22.4497993 16.0001625,23.0018436 L16.0001625,29.0023245 Z M27.0002742,2.00016031 L5.00005078,2.00016031 C3.34203394,2.00016031 2.00002031,3.34226788 2.00002031,5.00040078 C2.00002031,6.65853368 3.34203394,8.00064125 5.00005078,8.00064125 L27.0002742,8.00064125 C28.6582911,8.00064125 30.0003047,6.65853368 30.0003047,5.00040078 C30.0003047,3.34226788 28.6582911,2.00016031 27.0002742,2.00016031 Z" id="path-1"></path>
    </defs>
    <g id="💻-Desktop-Web" stroke="none" stroke-width="1" fill="none" fill-rule="evenodd">
        <g id="1.3.3.Company-Detail_Features" transform="translate(-135.000000, -1528.000000)">
            <g id="2.-Icon-/-2.-Icon-Box-/-16-Size--/-ic_paint-roller" transform="translate(135.000000, 1528.000000)">
                <mask id="mask-2" fill="white">
                    <use xlink:href="#path-1"></use>
                </mask>
                <use id="ic_paint-roller" fill="#6F93F9" fill-rule="nonzero" xlink:href="#path-1"></use>
            </g>
        </g>
    </g>
</svg>