<svg xmlns="http://www.w3.org/2000/svg" width="24" height="24" viewBox="0 0 24 24">
    <g fill="#000" fill-rule="nonzero">
        <path d="M3 9.043v5.914l9 5.85 9-5.85V9.043l-9-5.85-9 5.85zm9.545-7.881l10 6.5A1 1 0 0 1 23 8.5v7a1 1 0 0 1-.455.838l-10 6.5a1 1 0 0 1-1.09 0l-10-6.5A1 1 0 0 1 1 15.5v-7a1 1 0 0 1 .455-.838l10-6.5a1 1 0 0 1 1.09 0zM13 20.148V15.5a1 1 0 0 0-2 0v4.648l1 .65 1-.65z"/>
        <path d="M21.427 7.68a1 1 0 1 1 1.146 1.64l-10 7a1 1 0 0 1-1.146 0l-10-7a1 1 0 1 1 1.146-1.64L12 14.28l9.427-6.6z"/>
        <path d="M12 9.72l-9.427 6.6a1 1 0 0 1-1.146-1.64l10-7a1 1 0 0 1 1.146 0l10 7a1 1 0 1 1-1.146 1.64L12 9.72z"/>
        <path d="M11 2a1 1 0 0 1 2 0v6.5a1 1 0 0 1-2 0V2z"/>
    </g>
</svg>
