<?xml version="1.0" encoding="utf-8"?>
<!-- Generator: Adobe Illustrator 16.0.0, SVG Export Plug-In . SVG Version: 6.00 Build 0)  -->
<!DOCTYPE svg PUBLIC "-//W3C//DTD SVG 1.1//EN" "http://www.w3.org/Graphics/SVG/1.1/DTD/svg11.dtd">
<svg version="1.1" id="Layer_1" xmlns="http://www.w3.org/2000/svg" xmlns:xlink="http://www.w3.org/1999/xlink" x="0px" y="0px"
	 width="24px" height="24px" viewBox="0 0 24 24" enable-background="new 0 0 24 24" xml:space="preserve">
<title>1CB48345-BA67-4533-BB33-9201866B6834</title>
<desc>Created with sketchtool.</desc>
<g id="Symbols">
	<g id="Icons-_x2F_-24px-_x2F_-link">
		<rect id="Base" fill="none" width="24" height="24"/>
		<g id="Combined-Shape">
			<path id="path-1_1_" d="M9.199,13.6c-0.331-0.443-0.24-1.069,0.202-1.4c0.442-0.331,1.069-0.24,1.4,0.202
				c0.695,0.929,1.76,1.511,2.918,1.594c1.156,0.083,2.293-0.341,3.114-1.162l2.987-2.988c1.516-1.569,1.494-4.064-0.049-5.607
				c-1.543-1.542-4.037-1.564-5.597-0.059l-1.72,1.71c-0.392,0.389-1.025,0.388-1.414-0.004c-0.39-0.392-0.388-1.025,0.004-1.415
				l1.73-1.72c2.354-2.273,6.096-2.241,8.41,0.073s2.348,6.057,0.062,8.423l-3,3c-1.23,1.231-2.936,1.867-4.672,1.743
				C11.839,15.865,10.242,14.993,9.199,13.6z M14.801,10.401c0.33,0.442,0.24,1.069-0.201,1.4c-0.443,0.331-1.069,0.24-1.4-0.202
				c-0.695-0.93-1.76-1.511-2.917-1.594c-1.157-0.083-2.294,0.341-3.115,1.162l-2.988,2.987c-1.516,1.57-1.494,4.064,0.049,5.607
				s4.038,1.564,5.595,0.061l1.71-1.709c0.391-0.391,1.024-0.391,1.415,0s0.391,1.023,0,1.414l-1.723,1.723
				c-2.354,2.273-6.096,2.24-8.411-0.074s-2.347-6.057-0.061-8.423l3-3c1.23-1.231,2.936-1.867,4.672-1.743
				S13.758,9.007,14.801,10.401z"/>
		</g>
		<defs>
			<filter id="Adobe_OpacityMaskFilter" filterUnits="userSpaceOnUse" x="0" y="0" width="24" height="24">
				<feColorMatrix  type="matrix" values="1 0 0 0 0  0 1 0 0 0  0 0 1 0 0  0 0 0 1 0"/>
			</filter>
		</defs>
		<mask maskUnits="userSpaceOnUse" x="0" y="0" width="24" height="24" id="mask-2">
			<g filter="url(#Adobe_OpacityMaskFilter)">
				<path id="path-1" fill="#FFFFFF" d="M9.199,13.6c-0.331-0.443-0.24-1.069,0.202-1.4c0.442-0.331,1.069-0.24,1.4,0.202
					c0.695,0.929,1.76,1.511,2.918,1.594c1.156,0.083,2.293-0.341,3.114-1.162l2.987-2.988c1.516-1.569,1.494-4.064-0.049-5.607
					c-1.543-1.542-4.037-1.564-5.597-0.059l-1.72,1.71c-0.392,0.389-1.025,0.388-1.414-0.004c-0.39-0.392-0.388-1.025,0.004-1.415
					l1.73-1.72c2.354-2.273,6.096-2.241,8.41,0.073s2.348,6.057,0.062,8.423l-3,3c-1.23,1.231-2.936,1.867-4.672,1.743
					C11.839,15.865,10.242,14.993,9.199,13.6z M14.801,10.401c0.33,0.442,0.24,1.069-0.201,1.4c-0.443,0.331-1.069,0.24-1.4-0.202
					c-0.695-0.93-1.76-1.511-2.917-1.594c-1.157-0.083-2.294,0.341-3.115,1.162l-2.988,2.987c-1.516,1.57-1.494,4.064,0.049,5.607
					s4.038,1.564,5.595,0.061l1.71-1.709c0.391-0.391,1.024-0.391,1.415,0s0.391,1.023,0,1.414l-1.723,1.723
					c-2.354,2.273-6.096,2.24-8.411-0.074s-2.347-6.057-0.061-8.423l3-3c1.23-1.231,2.936-1.867,4.672-1.743
					S13.758,9.007,14.801,10.401z"/>
			</g>
		</mask>
		<g id="UI_x2F_Color_x2F_Flat_x2F_Dark-1" mask="url(#mask-2)">
			<rect id="Base_1_" fill="#1046F1" width="24" height="24"/>
		</g>
	</g>
</g>
</svg>
