<?xml version="1.0" encoding="utf-8"?>
<!-- Generator: Adobe Illustrator 16.0.0, SVG Export Plug-In . SVG Version: 6.00 Build 0)  -->
<!DOCTYPE svg PUBLIC "-//W3C//DTD SVG 1.1//EN" "http://www.w3.org/Graphics/SVG/1.1/DTD/svg11.dtd">
<svg version="1.1" id="Layer_1" xmlns="http://www.w3.org/2000/svg" xmlns:xlink="http://www.w3.org/1999/xlink" x="0px" y="0px"
	 width="24px" height="24px" viewBox="0 0 24 24" enable-background="new 0 0 24 24" xml:space="preserve">
<title>4EBAFC29-5656-49B7-8D70-CDCCADD2A130</title>
<desc>Created with sketchtool.</desc>
<g id="Symbols">
	<g id="Icons-_x2F_-24px-_x2F_-slash">
		<g id="Combined-Shape">
			<path id="path-1_1_" fill="#6F93F9" d="M4.968,6.382C3.736,7.922,3,9.875,3,12c0,4.971,4.029,9,9,9
				c2.125,0,4.078-0.736,5.617-1.969L4.968,6.382z M6.382,4.968l12.649,12.649C20.264,16.078,21,14.125,21,12c0-4.971-4.029-9-9-9
				C9.875,3,7.922,3.736,6.382,4.968z M12,23C5.925,23,1,18.075,1,12S5.925,1,12,1s11,4.925,11,11S18.075,23,12,23z"/>
		</g>
		<defs>
			<filter id="Adobe_OpacityMaskFilter" filterUnits="userSpaceOnUse" x="0" y="0" width="24" height="24">
				<feColorMatrix  type="matrix" values="1 0 0 0 0  0 1 0 0 0  0 0 1 0 0  0 0 0 1 0"/>
			</filter>
		</defs>
		<mask maskUnits="userSpaceOnUse" x="0" y="0" width="24" height="24" id="mask-2">
			<g filter="url(#Adobe_OpacityMaskFilter)">
				<path id="path-1" fill="#FFFFFF" d="M4.968,6.382C3.736,7.922,3,9.875,3,12c0,4.971,4.029,9,9,9
					c2.125,0,4.078-0.736,5.617-1.969L4.968,6.382z M6.382,4.968l12.649,12.649C20.264,16.078,21,14.125,21,12c0-4.971-4.029-9-9-9
					C9.875,3,7.922,3.736,6.382,4.968z M12,23C5.925,23,1,18.075,1,12S5.925,1,12,1s11,4.925,11,11S18.075,23,12,23z"/>
			</g>
		</mask>
		<g id="UI_x2F_Color_x2F_Flat_x2F_Black" mask="url(#mask-2)">
			<rect id="Base" fill="#6F93F9" width="24" height="24"/>
		</g>
	</g>
</g>
</svg>
