<?xml version="1.0" encoding="UTF-8"?>
<svg width="70px" height="71px" viewBox="0 0 70 71" version="1.1" xmlns="http://www.w3.org/2000/svg" xmlns:xlink="http://www.w3.org/1999/xlink">
    <!-- Generator: Sketch 48.2 (47327) - http://www.bohemiancoding.com/sketch -->
    <title>Page 1</title>
    <desc>Created with Sketch.</desc>
    <defs></defs>
    <g id="DESKTOP-1.1.-Default" stroke="none" stroke-width="1" fill="none" fill-rule="evenodd" transform="translate(-215.000000, -1048.000000)">
        <g id="Our-Products" transform="translate(140.000000, 874.000000)" fill="#0089CF">
            <g id="Group-53" transform="translate(0.000000, 115.000000)">
                <g id="Group-51">
                    <g id="Page-1" transform="translate(75.000000, 59.000000)">
                        <path d="M6.77419355,64.3548387 L6.77419355,57.5806452 L13.5483871,57.5806452 L13.5483871,64.3548387 L6.77419355,64.3548387 Z M9.03225806,62.0967742 L11.2903226,62.0967742 L11.2903226,59.8387097 L9.03225806,59.8387097 L9.03225806,62.0967742 Z" id="Fill-1"></path>
                        <path d="M18.0645161,64.3548387 L18.0645161,57.5806452 L24.8387097,57.5806452 L24.8387097,64.3548387 L18.0645161,64.3548387 Z M20.3225806,62.0967742 L22.5806452,62.0967742 L22.5806452,59.8387097 L20.3225806,59.8387097 L20.3225806,62.0967742 Z" id="Fill-2"></path>
                        <path d="M29.3548387,64.3548387 L29.3548387,57.5806452 L36.1290323,57.5806452 L36.1290323,64.3548387 L29.3548387,64.3548387 Z M31.6129032,62.0967742 L33.8709677,62.0967742 L33.8709677,59.8387097 L31.6129032,59.8387097 L31.6129032,62.0967742 Z" id="Fill-3"></path>
                        <path d="M45.1612903,49.6774194 L45.1612903,42.9032258 L51.9354839,42.9032258 L51.9354839,49.6774194 L45.1612903,49.6774194 Z M47.4193548,47.4193548 L49.6774194,47.4193548 L49.6774194,45.1612903 L47.4193548,45.1612903 L47.4193548,47.4193548 Z" id="Fill-4"></path>
                        <path d="M56.4516129,49.6774194 L56.4516129,42.9032258 L63.2258065,42.9032258 L63.2258065,49.6774194 L56.4516129,49.6774194 Z M58.7096774,47.4193548 L60.9677419,47.4193548 L60.9677419,45.1612903 L58.7096774,45.1612903 L58.7096774,47.4193548 Z" id="Fill-5"></path>
                        <path d="M45.1612903,58.7096774 L45.1612903,51.9354839 L51.9354839,51.9354839 L51.9354839,58.7096774 L45.1612903,58.7096774 Z M47.4193548,56.4516129 L49.6774194,56.4516129 L49.6774194,54.1935484 L47.4193548,54.1935484 L47.4193548,56.4516129 Z" id="Fill-6"></path>
                        <path d="M56.4516129,58.7096774 L56.4516129,51.9354839 L63.2258065,51.9354839 L63.2258065,58.7096774 L56.4516129,58.7096774 Z M58.7096774,56.4516129 L60.9677419,56.4516129 L60.9677419,54.1935484 L58.7096774,54.1935484 L58.7096774,56.4516129 Z" id="Fill-7"></path>
                        <path d="M0,52.8225806 L0,52.2580645 L3.49435484,17.2580645 L13.4546774,17.2580645 L15.7127419,43.2303226 C15.7443548,43.2303226 15.7748387,43.2258065 15.8064516,43.2258065 L19.1935484,43.2258065 L19.1935484,15 L28.2258065,15 L28.2258065,43.2924194 C32.9270968,43.8151613 36.6687097,47.5556452 37.1914516,52.2580645 L38.3870968,52.2580645 L38.3870968,38.7096774 L40.6451613,38.7096774 L40.6451613,31.9354839 L47.4193548,31.9354839 L47.4193548,15 L60.9677419,15 L60.9677419,31.9354839 L67.7419355,31.9354839 L67.7419355,38.7096774 L70,38.7096774 L70,70.3225806 L42.9032258,70.3225806 L41.7741935,70.3225806 L20.8870968,70.3225806 L0,70.3225806 L0,52.8225806 Z M67.7419355,68.0645161 L67.7419355,40.9677419 L40.6451613,40.9677419 L40.6451613,52.2580645 L42.9032258,52.2580645 L42.9032258,68.0645161 L49.6774194,68.0645161 L49.6774194,61.2903226 L58.7096774,61.2903226 L58.7096774,68.0645161 L67.7419355,68.0645161 Z M51.9354839,68.0645161 L56.4516129,68.0645161 L56.4516129,63.5483871 L51.9354839,63.5483871 L51.9354839,68.0645161 Z M40.6451613,68.0645161 L40.6451613,54.516129 L37.2580645,54.516129 L5.64516129,54.516129 L2.25806452,54.516129 L2.25806452,68.0645161 L40.6451613,68.0645161 Z M4.29596774,31.9354839 L2.26370968,52.2580645 L5.71177419,52.2580645 C6.18822581,47.9677419 9.3483871,44.4835484 13.4704839,43.5080645 L12.4645161,31.9354839 L4.29596774,31.9354839 Z M11.3840323,19.516129 L5.53790323,19.516129 L4.9733871,25.1612903 L11.8751613,25.1612903 L11.3840323,19.516129 Z M12.2680645,29.6774194 L12.0716129,27.4193548 L4.74758065,27.4193548 L4.52177419,29.6774194 L12.2680645,29.6774194 Z M7.9833871,52.2580645 L11.2903226,52.2580645 L11.2903226,46.9109677 C9.53806452,48.1370968 8.30064516,50.0496774 7.9833871,52.2580645 Z M18.0645161,47.7419355 L15.8064516,47.7419355 L15.8064516,45.483871 C15.0217742,45.483871 14.2641935,45.6024194 13.5483871,45.8169355 L13.5483871,52.2580645 L15.8064516,52.2580645 L15.8064516,50 L18.0645161,50 L18.0645161,52.2580645 L20.3225806,52.2580645 L20.3225806,45.483871 L19.1935484,45.483871 L18.0645161,45.483871 L18.0645161,47.7419355 Z M21.4516129,43.2258065 L25.9677419,43.2258065 L25.9677419,30.8064516 L21.4516129,30.8064516 L21.4516129,43.2258065 Z M21.4516129,24.0322581 L25.9677419,24.0322581 L25.9677419,17.2580645 L21.4516129,17.2580645 L21.4516129,24.0322581 Z M21.4516129,28.5483871 L25.9677419,28.5483871 L25.9677419,26.2903226 L21.4516129,26.2903226 L21.4516129,28.5483871 Z M27.0967742,45.483871 L27.0967742,52.2580645 L29.3548387,52.2580645 L29.3548387,45.8169355 C28.6390323,45.6024194 27.8814516,45.483871 27.0967742,45.483871 Z M22.5806452,52.2580645 L24.8387097,52.2580645 L24.8387097,45.483871 L22.5806452,45.483871 L22.5806452,52.2580645 Z M34.9198387,52.2580645 C34.6025806,50.0496774 33.3651613,48.1370968 31.6129032,46.9109677 L31.6129032,52.2580645 L34.9198387,52.2580645 Z M42.9032258,38.7096774 L46.2903226,38.7096774 L46.2903226,34.1935484 L42.9032258,34.1935484 L42.9032258,38.7096774 Z M49.6774194,31.9354839 L58.7096774,31.9354839 L58.7096774,28.5483871 L49.6774194,28.5483871 L49.6774194,31.9354839 Z M58.7096774,17.2580645 L49.6774194,17.2580645 L49.6774194,20.6451613 L54.1935484,20.6451613 L54.1935484,22.9032258 L49.6774194,22.9032258 L49.6774194,26.2903226 L58.7096774,26.2903226 L58.7096774,22.9032258 L56.4516129,22.9032258 L56.4516129,20.6451613 L58.7096774,20.6451613 L58.7096774,17.2580645 Z M57.5806452,38.7096774 L59.8387097,38.7096774 L59.8387097,34.1935484 L57.5806452,34.1935484 L57.5806452,38.7096774 Z M53.0645161,38.7096774 L55.3225806,38.7096774 L55.3225806,34.1935484 L53.0645161,34.1935484 L53.0645161,38.7096774 Z M48.5483871,38.7096774 L50.8064516,38.7096774 L50.8064516,34.1935484 L48.5483871,34.1935484 L48.5483871,38.7096774 Z M62.0967742,38.7096774 L65.483871,38.7096774 L65.483871,34.1935484 L62.0967742,34.1935484 L62.0967742,38.7096774 Z" id="Fill-8"></path>
                        <path d="M9.03225806,11.2903226 C9.03225806,9.42290323 10.5519355,7.90322581 12.4193548,7.90322581 L22.5806452,7.90322581 L22.5806452,12.4193548 L24.8387097,12.4193548 L24.8387097,5.64516129 C24.8387097,3.77774194 26.3583871,2.25806452 28.2258065,2.25806452 L64.9193548,2.25806452 C66.4751613,2.25806452 67.7419355,3.52483871 67.7419355,5.08064516 C67.7419355,6.63645161 66.4751613,7.90322581 64.9193548,7.90322581 L56.5148387,7.90322581 C54.6124194,7.90322581 53.0645161,9.45112903 53.0645161,11.3535484 L53.0645161,12.4193548 L55.3225806,12.4193548 L55.3225806,11.3535484 C55.3225806,10.6964516 55.8577419,10.1612903 56.5148387,10.1612903 L64.9193548,10.1612903 C67.7204839,10.1612903 70,7.88177419 70,5.08064516 C70,2.27951613 67.7204839,0 64.9193548,0 L28.2258065,0 C25.1130645,0 22.5806452,2.53241935 22.5806452,5.64516129 L12.4193548,5.64516129 C9.3066129,5.64516129 6.77419355,8.17758065 6.77419355,11.2903226 L6.77419355,14.6774194 L9.03225806,14.6774194 L9.03225806,11.2903226 Z" id="Fill-10"></path>
                        <path d="M41.9638286,6.71211089 C41.4670544,7.45840121 40.6349577,7.90323992 39.738506,7.90323992 L31.6128609,7.90323992 L31.6128609,10.1613044 L39.738506,10.1613044 C41.3914093,10.1613044 42.9257641,9.34049798 43.8426794,7.96533669 C44.3393125,7.21904637 45.1715504,6.77420766 46.0678609,6.77420766 L50.8064093,6.77420766 L50.8064093,4.51614315 L46.0678609,4.51614315 C44.4138286,4.51614315 42.8806028,5.3369496 41.9638286,6.71211089" id="Fill-12"></path>
                        <polygon id="Fill-14" points="27.0967742 10.1612903 29.3548387 10.1612903 29.3548387 7.90322581 27.0967742 7.90322581"></polygon>
                    </g>
                </g>
            </g>
        </g>
    </g>
</svg>