<?xml version="1.0" encoding="UTF-8"?>
<svg width="55px" height="62px" viewBox="0 0 55 62" version="1.1" xmlns="http://www.w3.org/2000/svg" xmlns:xlink="http://www.w3.org/1999/xlink">
    <!-- Generator: Sketch 48.2 (47327) - http://www.bohemiancoding.com/sketch -->
    <title>Page 1</title>
    <desc>Created with Sketch.</desc>
    <defs>
        <polygon id="path-1" points="27.2735415 62.9388439 0 62.9388439 0 0 27.2735415 0 54.547083 8.73447656e-15 54.547083 62.9388439"></polygon>
    </defs>
    <g id="DESKTOP-1.1.-Default" stroke="none" stroke-width="1" fill="none" fill-rule="evenodd" transform="translate(-1003.000000, -1378.000000)">
        <g id="Our-Products" transform="translate(140.000000, 874.000000)">
            <g id="Group-50" transform="translate(0.000000, 442.000000)">
                <g id="Group-33" transform="translate(780.000000, 0.000000)">
                    <g id="Page-1" transform="translate(83.000000, 61.000000)">
                        <mask id="mask-2" fill="white">
                            <use xlink:href="#path-1"></use>
                        </mask>
                        <g id="Clip-2"></g>
                        <path d="M53.498404,35.3671683 C54.0783113,35.3671683 54.5471235,35.8372098 54.5471235,36.4157341 C54.5471235,36.9950268 54.0783113,37.4649146 53.498404,37.4649146 L47.2043966,37.4649146 C46.6240284,37.4649146 46.1552162,36.9950268 46.1552162,36.4157341 C46.1552162,35.8372098 46.6240284,35.3671683 47.2043966,35.3671683 L49.3022966,35.3671683 L49.3022966,33.269422 L35.6657162,33.269422 C35.0858088,33.269422 34.6165357,32.7993805 34.6165357,32.2202415 C34.6165357,31.6409488 35.0858088,31.171061 35.6657162,31.171061 L46.3515918,31.171061 L33.5678162,27.3360512 L33.5678162,32.0738049 L41.7028064,60.5425829 L45.1066503,60.5425829 C45.6865576,60.5425829 46.1552162,61.0126244 46.1552162,61.5917634 L46.1552162,63.6895098 C46.1552162,64.2688024 45.6865576,64.7388439 45.1066503,64.7388439 C44.526282,64.7388439 44.0574698,64.2688024 44.0574698,63.6895098 L44.0574698,62.6403293 L10.4903015,62.6403293 L10.4903015,63.6895098 C10.4903015,64.2688024 10.0214893,64.7388439 9.44096738,64.7388439 C8.86121372,64.7388439 8.39255518,64.2688024 8.39255518,63.6895098 L8.39255518,61.5917634 C8.39255518,61.0126244 8.86121372,60.5425829 9.44096738,60.5425829 L12.8449649,60.5425829 L20.6377576,33.269422 L5.24562836,33.269422 L5.24562836,35.3671683 L7.34322104,35.3671683 C7.9229747,35.3671683 8.39178689,35.8372098 8.39178689,36.4163488 C8.39178689,36.9950268 7.9229747,37.4649146 7.34322104,37.4649146 L1.04921372,37.4649146 C0.469460063,37.4649146 0.000647867441,36.9950268 0.000647867441,36.4163488 C0.000647867441,35.8372098 0.469460063,35.3671683 1.04921372,35.3671683 L3.14696006,35.3671683 L3.14696006,33.269422 L1.04921372,33.269422 C0.528311282,33.269422 0.0853137211,32.8865049 0.0107893309,32.3702122 C-0.0635814009,31.8534585 0.253262502,31.3612902 0.75326738,31.2136244 L18.5861088,25.9681829 C19.1449649,25.8056122 19.7253332,26.1249146 19.8880576,26.6794683 C20.051243,27.2352512 19.7337845,27.8186927 19.1780015,27.9814171 L8.33355031,31.171061 L20.9798015,31.171061 L20.9798015,20.6814073 L5.24562836,20.6814073 L5.24562836,22.7797683 L7.34322104,22.7797683 C7.9229747,22.7797683 8.39178689,23.2498098 8.39178689,23.8283341 C8.39178689,24.4076268 7.9229747,24.8775146 7.34322104,24.8775146 L1.04921372,24.8775146 C0.469460063,24.8775146 0.000647867441,24.4076268 0.000647867441,23.8283341 C0.000647867441,23.2498098 0.469460063,22.7797683 1.04921372,22.7797683 L3.14696006,22.7797683 L3.14696006,20.6814073 L1.04921372,20.6814073 C0.528311282,20.6814073 0.0853137211,20.2984902 0.0107893309,19.7828122 C-0.0635814009,19.2654439 0.253262502,18.7732756 0.75326738,18.6256098 L18.5861088,13.3807829 C19.1449649,13.2169829 19.7253332,13.5369 19.8880576,14.0920683 C20.051243,14.6478512 19.7337845,15.2312927 19.1780015,15.3940171 L8.33355031,18.583661 L20.9798015,18.583661 L20.9798015,13.3388341 C20.9798015,13.3262341 20.9870235,13.3153244 20.9870235,13.303339 C20.989482,13.2337317 21.0109942,13.1665829 21.0278966,13.0986659 C21.0458747,13.0302878 21.0543259,12.9612951 21.084904,12.8982951 C21.0896674,12.8867707 21.0878235,12.8747854 21.0932015,12.8634146 L26.4251527,2.37376098 C26.6046259,2.02142195 26.9664918,1.8 27.3607796,1.8 L27.3681552,1.8 C27.7661308,1.8018439 28.127382,2.02987317 28.3027064,2.38636098 L33.2581942,12.4648244 L53.7991137,18.6274537 C54.298504,18.7774244 54.6124284,19.2695927 54.5355991,19.7846561 C54.4599991,20.2997195 54.0188454,20.6814073 53.498404,20.6814073 L51.400043,20.6814073 L51.400043,22.7797683 L53.498404,22.7797683 C54.0783113,22.7797683 54.5471235,23.2498098 54.5471235,23.8283341 C54.5471235,24.4076268 54.0783113,24.8775146 53.498404,24.8775146 L47.2043966,24.8775146 C46.624643,24.8775146 46.1552162,24.4076268 46.1552162,23.8283341 C46.1552162,23.2498098 46.624643,22.7797683 47.2043966,22.7797683 L49.3022966,22.7797683 L49.3022966,20.6814073 L35.6657162,20.6814073 C35.0858088,20.6814073 34.6169966,20.2113659 34.6169966,19.6328415 C34.6169966,19.0535488 35.0858088,18.583661 35.6657162,18.583661 L46.3515918,18.583661 L33.5678162,14.7488049 L33.5678162,25.1459561 L53.7991137,31.2154683 C54.298504,31.365439 54.6124284,31.8569927 54.5355991,32.3726707 C54.4599991,32.8875805 54.0182308,33.269422 53.498404,33.269422 L51.400043,33.269422 L51.400043,35.3671683 L53.498404,35.3671683 Z M34.9273869,44.4679024 L33.1014625,38.0801634 L31.0355235,39.4444976 C30.8578942,39.5622 30.6573698,39.6181317 30.4580747,39.6181317 C30.1183357,39.6181317 29.7839747,39.4529488 29.5823747,39.146861 C29.2636869,38.6642195 29.3956796,38.0130146 29.8793966,37.6943268 L32.4975845,35.9650537 L31.5095601,32.5089659 C31.4832845,32.4146195 31.4694552,32.3179683 31.4694552,32.2202415 L31.4694552,13.5831512 L27.3452601,5.19493171 L23.7384332,12.2896537 L28.3225284,12.2896537 C28.9028966,12.2896537 29.3717088,12.7595415 29.3717088,13.3388341 C29.3717088,13.9179732 28.9028966,14.3880146 28.3225284,14.3880146 L23.0777015,14.3880146 L23.0777015,18.583661 L29.3717088,18.583661 C29.9514625,18.583661 30.4208893,19.0535488 30.4208893,19.6328415 C30.4208893,20.2113659 29.9514625,20.6814073 29.3717088,20.6814073 L23.0777015,20.6814073 L23.0777015,24.8775146 L29.3717088,24.8775146 C29.9514625,24.8775146 30.4208893,25.3475561 30.4208893,25.9262341 C30.4208893,26.5053732 29.9514625,26.9754146 29.3717088,26.9754146 L23.0777015,26.9754146 L23.0777015,31.171522 L29.3717088,31.171522 C29.9514625,31.171522 30.4208893,31.6415634 30.4208893,32.2202415 C30.4208893,32.7993805 29.9514625,33.269422 29.3717088,33.269422 L22.8207845,33.269422 L22.0506479,35.9650537 L27.8531015,39.7968366 C27.8549454,39.7980659 27.856021,39.7992951 27.8572503,39.8005244 L34.9273869,44.4679024 Z M39.1428552,59.2232707 L36.0911966,48.546461 L30.962843,51.809861 C30.7882869,51.9209561 30.5931406,51.9742756 30.4010674,51.9742756 C30.0534918,51.9742756 29.7137527,51.802639 29.5144576,51.4887146 C29.2029918,50.9990049 29.3475845,50.3519488 29.835604,50.0403293 L34.7863284,46.8891 L27.2738088,41.9288488 L22.6064308,45.0104707 C22.4294162,45.1281732 22.2282771,45.1833366 22.0295966,45.1833366 C21.6886284,45.1833366 21.354421,45.018922 21.1538966,44.7132951 C20.8339796,44.2301927 20.9672015,43.5789878 21.4510723,43.2595317 L25.3710552,40.6720756 L21.4455406,38.0795488 L19.0572259,46.441339 L39.1428552,59.2232707 Z M15.0279918,60.5425829 L37.3072503,60.5425829 L27.2738088,54.1573024 L19.130521,59.3397439 C18.9551966,59.4519146 18.7614332,59.5041585 18.5681308,59.5041585 C18.2211698,59.5041585 17.8820454,59.3319073 17.681521,59.0185976 C17.3712845,58.5293488 17.5146479,57.8806024 18.0038966,57.5695976 L25.3206552,52.9137439 L18.4558064,48.546461 L15.0279918,60.5425829 Z" id="Fill-1" fill="#0089CF" mask="url(#mask-2)"></path>
                    </g>
                </g>
            </g>
        </g>
    </g>
</svg>