<?xml version="1.0" encoding="UTF-8"?>
<svg width="73px" height="69px" viewBox="0 0 73 69" version="1.1" xmlns="http://www.w3.org/2000/svg" xmlns:xlink="http://www.w3.org/1999/xlink">
    <!-- Generator: Sketch 48.2 (47327) - http://www.bohemiancoding.com/sketch -->
    <title>Group 2</title>
    <desc>Created with Sketch.</desc>
    <defs></defs>
    <g id="DESKTOP-1.1.-Default" stroke="none" stroke-width="1" fill="none" fill-rule="evenodd" transform="translate(-474.000000, -1049.000000)">
        <g id="Our-Products" transform="translate(140.000000, 874.000000)" fill="#0089CF">
            <g id="Group-53" transform="translate(0.000000, 115.000000)">
                <g id="Group-51-Copy" transform="translate(260.000000, 0.000000)">
                    <g id="Group-2" transform="translate(74.000000, 60.000000)">
                        <path d="M36.0243391,0 L72.0486782,13.6389067 L72.0486782,21.6049777 L70.5819707,21.0497586 L70.5819707,68.9795659 L63.9371337,68.9795659 L63.9371337,65.8684077 L58.5411958,65.8684077 L58.5411958,68.9795659 L52.3673905,68.9795659 L52.3673905,66.8495233 L20.1555389,66.8495233 L20.1555389,68.9795659 L13.9817337,68.9795659 L13.9817337,65.8684077 L8.5684382,65.8684077 L8.5684382,68.9795659 L1.9237412,68.9795659 L1.9237412,20.8767688 L0,21.6049777 L0,13.6389067 L36.0243391,0 Z M2.0996957,15.0887465 L2.0996957,18.5653387 L36.0243391,5.72126166 L69.9491224,18.5653387 L69.9491224,15.0887465 L36.0243391,2.24480933 L2.0996957,15.0887465 Z M36.0243391,7.96621095 L4.01433821,20.0851582 L4.02329691,20.0851582 L4.02329691,66.8801744 L6.4687425,66.8801744 L6.4687425,25.8225152 L66.0368294,25.8225152 L66.0368294,66.8801744 L68.482275,66.8801744 L68.482275,20.254789 L36.0243391,7.96621095 Z M8.5684382,27.9219067 L8.5684382,63.7690162 L13.9817337,63.7690162 L13.9817337,60.657998 L18.5656493,60.657998 L18.5656493,58.6900284 L18.5656493,49.4918945 L18.5656493,45.4245335 L26.6777537,45.4245335 L26.6777537,43.4567039 L26.6777537,34.25857 L26.6777537,30.1913489 L45.4234169,30.1913489 L45.4234169,34.25857 L45.4234169,43.4567039 L45.4234169,45.4245335 L53.9572801,45.4245335 L53.9572801,49.4918945 L53.9572801,58.6900284 L53.9572801,60.657998 L58.5411958,60.657998 L58.5411958,63.7690162 L63.9371337,63.7690162 L63.9371337,27.9219067 L8.5684382,27.9219067 Z M28.7774494,32.2906004 L28.7774494,34.25857 L31.1767016,34.25857 L40.9244689,34.25857 L43.3237212,34.25857 L43.3237212,32.2906004 L28.7774494,32.2906004 Z M40.9244689,41.3571724 L43.3237212,41.3571724 L43.3237212,36.3579615 L40.9244689,36.3579615 L40.9244689,41.3571724 Z M34.9005819,36.3579615 L38.8249132,40.0002657 L38.8249132,36.3579615 L34.9005819,36.3579615 Z M28.7774494,41.3571724 L31.1767016,41.3571724 L31.1767016,36.3579615 L28.7774494,36.3579615 L28.7774494,41.3571724 Z M33.2762574,37.7148682 L33.2762574,41.3571724 L37.2005886,41.3571724 L33.2762574,37.7148682 Z M28.7774494,43.4567039 L28.7774494,45.4245335 L35.2116169,45.4245335 L37.3111726,45.4245335 L43.3237212,45.4245335 L43.3237212,43.4567039 L40.9244689,43.4567039 L31.1767016,43.4567039 L28.7774494,43.4567039 Z M37.3111726,47.5240649 L37.3111726,49.4918945 L39.7104249,49.4918945 L49.4583321,49.4918945 L51.8574444,49.4918945 L51.8574444,47.5240649 L45.4234169,47.5240649 L37.3111726,47.5240649 Z M20.665345,47.5240649 L20.665345,49.4918945 L23.0644573,49.4918945 L32.8125046,49.4918945 L35.2116169,49.4918945 L35.2116169,47.5240649 L26.6777537,47.5240649 L20.665345,47.5240649 Z M49.4583321,56.5906369 L51.8574444,56.5906369 L51.8574444,51.591286 L49.4583321,51.591286 L49.4583321,56.5906369 Z M43.4343052,51.591286 L47.3586364,55.2335903 L47.3586364,51.591286 L43.4343052,51.591286 Z M37.3111726,56.5906369 L39.7104249,56.5906369 L39.7104249,51.591286 L37.3111726,51.591286 L37.3111726,56.5906369 Z M32.8125046,56.5906369 L35.2117568,56.5906369 L35.2117568,51.591286 L32.8125046,51.591286 L32.8125046,56.5906369 Z M26.7883376,51.591286 L30.7126689,55.2335903 L30.7126689,51.591286 L26.7883376,51.591286 Z M20.665345,56.5906369 L23.0644573,56.5906369 L23.0644573,51.591286 L20.665345,51.591286 L20.665345,56.5906369 Z M41.8099806,52.9481927 L41.8099806,56.5906369 L45.7344518,56.5906369 L41.8099806,52.9481927 Z M25.164153,52.9481927 L25.164153,56.5906369 L29.0884843,56.5906369 L25.164153,52.9481927 Z M37.3111726,58.6900284 L37.3111726,60.657998 L51.8574444,60.657998 L51.8574444,58.6900284 L49.4583321,58.6900284 L39.7104249,58.6900284 L37.3111726,58.6900284 Z M20.665345,58.6900284 L20.665345,60.657998 L35.2116169,60.657998 L35.2116169,58.6900284 L32.8125046,58.6900284 L23.0644573,58.6900284 L20.665345,58.6900284 Z M16.0814294,62.7572495 L16.0814294,66.8801744 L18.0558432,66.8801744 L18.0558432,64.7501318 L54.4669462,64.7501318 L54.4669462,66.8801744 L56.4415001,66.8801744 L56.4415001,62.7572495 L53.9572801,62.7572495 L37.3111726,62.7572495 L35.2116169,62.7572495 L18.5656493,62.7572495 L16.0814294,62.7572495 Z" id="Fill-1"></path>
                        <path d="M21.6857143,23.4751956 L21.6857143,16.7571429 L28.4047405,16.7571429 L28.4047405,23.4751956 L21.6857143,23.4751956 Z M23.9253897,21.2358447 L26.1650651,21.2358447 L26.1650651,18.9964938 L23.9253897,18.9964938 L23.9253897,21.2358447 Z" id="Fill-2"></path>
                        <path d="M32.5285714,23.4751956 L32.5285714,16.7571429 L39.2475977,16.7571429 L39.2475977,23.4751956 L32.5285714,23.4751956 Z M34.7682468,21.2358447 L37.0079222,21.2358447 L37.0079222,18.9964938 L34.7682468,18.9964938 L34.7682468,21.2358447 Z" id="Fill-3"></path>
                        <path d="M43.3714286,23.4751956 L43.3714286,16.7571429 L50.0904548,16.7571429 L50.0904548,23.4751956 L43.3714286,23.4751956 Z M45.3428571,20.9679223 L47.5825326,20.9679223 L47.5825326,18.7285714 L45.3428571,18.7285714 L45.3428571,20.9679223 Z" id="Fill-4"></path>
                    </g>
                </g>
            </g>
        </g>
    </g>
</svg>