<?xml version="1.0" encoding="utf-8"?>
<!-- Generator: Adobe Illustrator 22.0.0, SVG Export Plug-In . SVG Version: 6.00 Build 0)  -->
<svg version="1.1" id="Layer_1" xmlns="http://www.w3.org/2000/svg" xmlns:xlink="http://www.w3.org/1999/xlink" x="0px" y="0px"
	 viewBox="0 0 24 24" style="enable-background:new 0 0 24 24;" xml:space="preserve">
<style type="text/css">
	.st0{fill:none;}
	.st1{filter:url(#Adobe_OpacityMaskFilter);}
	.st2{fill:#FFFFFF;}
	.st3{mask:url(#b_1_);}
	.st4{fill:#FF6300;}
</style>
<g>
	<path class="st0" d="M0,0h24v24H0V0z"/>
	<g>
		<path id="a_1_" d="M17,5c0,1.1-0.9,2-2,2H9C7.9,7,7,6.1,7,5H6C5.4,5,5,5.4,5,6v14c0,0.6,0.4,1,1,1h12c0.6,0,1-0.4,1-1V6
			c0-0.6-0.4-1-1-1H17z M17,3h1c1.7,0,3,1.3,3,3v14c0,1.7-1.3,3-3,3H6c-1.7,0-3-1.3-3-3V6c0-1.7,1.3-3,3-3h1c0-1.1,0.9-2,2-2h6
			C16.1,1,17,1.9,17,3z M9,3v2h6V3H9z"/>
	</g>
	<defs>
		<filter id="Adobe_OpacityMaskFilter" filterUnits="userSpaceOnUse" x="0" y="0" width="24" height="24">
			<feColorMatrix  type="matrix" values="1 0 0 0 0  0 1 0 0 0  0 0 1 0 0  0 0 0 1 0"/>
		</filter>
	</defs>
	<mask maskUnits="userSpaceOnUse" x="0" y="0" width="24" height="24" id="b_1_">
		<g class="st1">
			<path id="a_2_" class="st2" d="M17,5c0,1.1-0.9,2-2,2H9C7.9,7,7,6.1,7,5H6C5.4,5,5,5.4,5,6v14c0,0.6,0.4,1,1,1h12
				c0.6,0,1-0.4,1-1V6c0-0.6-0.4-1-1-1H17z M17,3h1c1.7,0,3,1.3,3,3v14c0,1.7-1.3,3-3,3H6c-1.7,0-3-1.3-3-3V6c0-1.7,1.3-3,3-3h1
				c0-1.1,0.9-2,2-2h6C16.1,1,17,1.9,17,3z M9,3v2h6V3H9z"/>
		</g>
	</mask>
	<g class="st3">
		<path class="st4" d="M0,0h24v24H0V0z"/>
	</g>
</g>
</svg>
