<?xml version="1.0" encoding="UTF-8"?>
<svg width="20px" height="14px" viewBox="0 0 20 14" version="1.1" xmlns="http://www.w3.org/2000/svg" xmlns:xlink="http://www.w3.org/1999/xlink">
    <!-- Generator: sketchtool 49 (51002) - http://www.bohemiancoding.com/sketch -->
    <title>7CE70A84-A250-4509-BA4B-E9F2C5149DB0</title>
    <desc>Created with sketchtool.</desc>
    <defs></defs>
    <g id="📱Mobile-Web" stroke="none" stroke-width="1" fill="none" fill-rule="evenodd">
        <g id="1.1.Home-Page" transform="translate(-280.000000, -2531.000000)" fill="#1046F1">
            <path d="M293.468428,2531.21044 C293.195328,2530.92985 292.742808,2530.92985 292.460181,2531.21044 C292.187875,2531.48234 292.187875,2531.93287 292.460181,2532.20477 L297.571277,2537.29259 L280.70736,2537.29259 C280.313589,2537.29259 280,2537.6048 280,2537.99684 C280,2538.38572 280.313589,2538.70978 280.70736,2538.70978 L297.571277,2538.70978 L292.460181,2543.78574 C292.187875,2544.06713 292.187875,2544.52082 292.460181,2544.78956 C292.742808,2545.07015 293.195328,2545.07015 293.468428,2544.78956 L299.788625,2538.49716 C300.070458,2538.22526 300.070458,2537.77474 299.788625,2537.506 L293.468428,2531.21044 Z" id="arrow"></path>
        </g>
    </g>
</svg>