<?xml version="1.0" encoding="utf-8"?>
<!-- Generator: Adobe Illustrator 22.0.0, SVG Export Plug-In . SVG Version: 6.00 Build 0)  -->
<svg version="1.1" id="Layer_1" xmlns="http://www.w3.org/2000/svg" xmlns:xlink="http://www.w3.org/1999/xlink" x="0px" y="0px"
	 viewBox="0 0 496 182.5" style="enable-background:new 0 0 496 182.5;" xml:space="preserve">
<style type="text/css">
	.st0{fill:url(#Path-2_1_);fill-opacity:0.33;}
	.st1{fill:none;stroke:url(#Path-3_1_);stroke-width:5;}
	.st2{fill:#3B73F7;}
	.st3{fill:none;stroke:#FFFFFF;stroke-width:5;stroke-miterlimit:10;}
</style>
<title>E0C90332-CBA9-40A9-B197-82ABE7C65E1B</title>
<desc>Created with sketchtool.</desc>
<linearGradient id="Path-2_1_" gradientUnits="userSpaceOnUse" x1="271.3004" y1="75.4201" x2="270.6877" y2="75.8556" gradientTransform="matrix(440 0 0 169 -118937 -12663.3701)">
	<stop  offset="0" style="stop-color:#76B1FF"/>
	<stop  offset="1" style="stop-color:#7676FF"/>
</linearGradient>
<path id="Path-2" class="st0" d="M-3.6,81.8c16.7-18.5,40-26.8,70.1-24.9c45,2.9,64.4,34.8,87,34.8c22.5,0,34.9-32.6,65.2-34.8
	c30.3-2.3,45.9,34.8,78.5,34.8c21.7,0,49.1-14.5,82.1-43.5c20.9-24.1,43.9-33.6,68.9-28.6s47.1-3.3,66.4-24.9v199H-3.6V81.8z"/>
<linearGradient id="Path-3_1_" gradientUnits="userSpaceOnUse" x1="271.04" y1="73.9672" x2="270.6873" y2="75.5495" gradientTransform="matrix(437 0 0 77.2012 -118125 -5723.6611)">
	<stop  offset="0" style="stop-color:#76B1FF"/>
	<stop  offset="1" style="stop-color:#1046F1"/>
</linearGradient>
<path id="Path-3" class="st1" d="M-4.9,77.6c26.7-17.3,52.2-23.9,76.6-20c28.3,0,62.3,34.4,78.9,34.2c33.3-0.5,36.5-38.9,73-34.2
	c23.1,0.6,42.4,37.7,69.5,34.2c56.5,0,82.4-57.7,131.9-73c11.8-3.5,35.4,3,50.6,0c10.2-2,21.5-7.9,34.2-17.7"/>
<g>
	
		<image style="overflow:visible;" width="56" height="56" xlink:href="C3A06172.png"  transform="matrix(1 0 0 1 187.9921 31.4921)">
	</image>
	<g>
		<circle class="st2" cx="216.2" cy="59.2" r="7.9"/>
		<circle class="st3" cx="216.2" cy="59.2" r="7.9"/>
	</g>
</g>
</svg>
