<?xml version="1.0" encoding="utf-8"?>
<!-- Generator: Adobe Illustrator 22.0.0, SVG Export Plug-In . SVG Version: 6.00 Build 0)  -->
<svg version="1.1" id="Layer_1" xmlns="http://www.w3.org/2000/svg" xmlns:xlink="http://www.w3.org/1999/xlink" x="0px" y="0px"
	 viewBox="0 0 496 182.5" style="enable-background:new 0 0 496 182.5;" xml:space="preserve">
<style type="text/css">
	.st0{filter:url(#Adobe_OpacityMaskFilter);}
	.st1{fill:#FFFFFF;}
	.st2{mask:url(#mask-2_1_);fill:url(#Path-2_1_);fill-opacity:0.33;}
	.st3{filter:url(#Adobe_OpacityMaskFilter_1_);}
	.st4{mask:url(#mask-2_2_);fill:none;stroke:url(#Path-3_1_);stroke-width:5;}
</style>
<title>E0C90332-CBA9-40A9-B197-82ABE7C65E1B</title>
<desc>Created with sketchtool.</desc>
<defs>
	<filter id="Adobe_OpacityMaskFilter" filterUnits="userSpaceOnUse" x="-3.6" y="-5.2" width="518.2" height="199">
		<feColorMatrix  type="matrix" values="1 0 0 0 0  0 1 0 0 0  0 0 1 0 0  0 0 0 1 0"/>
	</filter>
</defs>
<mask maskUnits="userSpaceOnUse" x="-3.6" y="-5.2" width="518.2" height="199" id="mask-2_1_">
	<g class="st0">
		<path id="path-1_3_" class="st1" d="M9.4-120.7h482.9c5.2,0,9.4,4.2,9.4,9.4v287.4c0,5.2-4.2,9.4-9.4,9.4H9.4
			c-5.2,0-9.4-4.2-9.4-9.4v-287.4C0-116.4,4.2-120.7,9.4-120.7z"/>
	</g>
</mask>
<linearGradient id="Path-2_1_" gradientUnits="userSpaceOnUse" x1="184.4984" y1="81.4316" x2="183.8857" y2="80.9961" gradientTransform="matrix(440 0 0 -169 -80744 13844.6299)">
	<stop  offset="0" style="stop-color:#76B1FF"/>
	<stop  offset="1" style="stop-color:#7676FF"/>
</linearGradient>
<path id="Path-2" class="st2" d="M-3.6,81.8c16.7-18.5,40-26.8,70.1-24.9c45,2.9,64.4,34.8,87,34.8c22.5,0,34.9-32.6,65.2-34.8
	c30.3-2.3,45.9,34.8,78.5,34.8c21.7,0,49.1-14.5,82.1-43.5c20.9-24.1,43.9-33.6,68.9-28.6c25,5,47.1-3.3,66.4-24.9v199H-3.6V81.8z"
	/>
<defs>
	<filter id="Adobe_OpacityMaskFilter_1_" filterUnits="userSpaceOnUse" x="-6.3" y="-1" width="517.6" height="95.4">
		<feColorMatrix  type="matrix" values="1 0 0 0 0  0 1 0 0 0  0 0 1 0 0  0 0 0 1 0"/>
	</filter>
</defs>
<mask maskUnits="userSpaceOnUse" x="-6.3" y="-1" width="517.6" height="95.4" id="mask-2_2_">
	<g class="st3">
		<path id="path-1_4_" class="st1" d="M9.2-121.5h482.9c5.2,0,9.4,4.2,9.4,9.4v287.4c0,5.2-4.2,9.4-9.4,9.4H9.2
			c-5.2,0-9.4-4.2-9.4-9.4v-287.4C-0.2-117.3,4-121.5,9.2-121.5z"/>
	</g>
</mask>
<linearGradient id="Path-3_1_" gradientUnits="userSpaceOnUse" x1="184.2389" y1="82.709" x2="183.8862" y2="81.1267" gradientTransform="matrix(437 0 0 -77.2012 -80193 6371.9277)">
	<stop  offset="0" style="stop-color:#76B1FF"/>
	<stop  offset="1" style="stop-color:#1046F1"/>
</linearGradient>
<path id="Path-3" class="st4" d="M-4.9,77.6c26.7-17.3,52.2-23.9,76.6-20c28.3,0,62.3,34.4,78.9,34.2c33.3-0.5,36.5-38.9,73-34.2
	c23.1,0.6,42.4,37.7,69.5,34.2c56.5,0,82.4-57.7,131.9-73c11.8-3.5,35.4,3,50.6,0c10.2-2,21.5-7.9,34.2-17.7"/>
</svg>
