<?xml version="1.0" encoding="utf-8"?>
<!-- Generator: Adobe Illustrator 22.0.0, SVG Export Plug-In . SVG Version: 6.00 Build 0)  -->
<svg version="1.1" id="Layer_1" xmlns="http://www.w3.org/2000/svg" xmlns:xlink="http://www.w3.org/1999/xlink" x="0px" y="0px"
	 viewBox="0 0 197.3 182.5" style="enable-background:new 0 0 197.3 182.5;" xml:space="preserve">
<style type="text/css">
	.st0{fill:url(#Path-2_2_);fill-opacity:0.48;}
	.st1{fill:url(#Path-3_2_);}
	.st2{fill:#FF8309;}
	.st3{fill:none;stroke:#FFFFFF;stroke-width:5;stroke-miterlimit:10;}
</style>
<title>E0C90332-CBA9-40A9-B197-82ABE7C65E1B</title>
<desc>Created with sketchtool.</desc>
<linearGradient id="Path-2_2_" gradientUnits="userSpaceOnUse" x1="123.2117" y1="75.033" x2="122.5343" y2="75.5145" gradientTransform="matrix(212 0 0 114.0502 -25921 -8457.9727)">
	<stop  offset="0" style="stop-color:#FFBF45"/>
	<stop  offset="1" style="stop-color:#FF850B"/>
</linearGradient>
<path id="Path-2_1_" class="st0" d="M-15,71.8c14.8,27.1,36.3,44.1,64.4,51c24.9,6.1,42-15.1,58.6-32.5
	c11.5-12.1,22.4-18.5,31.6-18.5c7.8,0,21.5-3,28.1-9.6c12.2-12.3,21.4-32.2,41-34c4.4-0.4,9.6,0.8,12.9,5.9
	c7.8,12.2,11.7,66.4,11.7,162.6H-15V71.8z"/>
<linearGradient id="Path-3_2_" gradientUnits="userSpaceOnUse" x1="122.9239" y1="73.3169" x2="122.4439" y2="75.4707" gradientTransform="matrix(206.9451 0 0 67.36 -25303.873 -4933.2021)">
	<stop  offset="0" style="stop-color:#FFBF45"/>
	<stop  offset="1" style="stop-color:#FF8309"/>
</linearGradient>
<path id="Path-3_1_" class="st1" d="M-20.4,77.4l3.8-5.6c28.4,30.7,54.3,45.9,77.7,45.9c7.5,0,13.7-2.1,19.3-6.2
	c4.4-3.2,7.8-6.8,14-14.5c0.2-0.3,1.1-1.3,1.3-1.6c7-8.6,10.9-12.8,16.4-16.7c7.2-5.1,15.3-7.8,25-7.8c17.9,0,28.5-6.4,42.4-21.8
	c0.8-0.9,4.8-5.4,5.9-6.6c12.8-13.8,22-18.8,36.6-16.5l-0.7,7.3c-12.6-2.1-20.4,2.2-31.8,14.7c-1.1,1.2-5.1,5.7-5.9,6.6
	c-6.9,7.6-12,12.3-18.4,16.1c-8.1,4.9-17.1,7.4-27.9,7.4c-8.8,0-15.8,2.3-22.2,6.8c-4.9,3.5-8.6,7.4-15.2,15.5
	c-0.2,0.3-1.1,1.3-1.3,1.6c-6.6,8.1-10.2,12-15.2,15.6c-6.5,4.8-13.7,7.2-22.3,7.2C36.2,125.1,9,109.1-20.4,77.4z"/>
<g>
	<image style="overflow:visible;" width="56" height="56" xlink:href="A226F13F.png"  transform="matrix(1 0 0 1 70.9921 62.4921)">
	</image>
	<g>
		<circle class="st2" cx="99.2" cy="90.2" r="7.9"/>
		<circle class="st3" cx="99.2" cy="90.2" r="7.9"/>
	</g>
</g>
</svg>
