<?xml version="1.0" encoding="utf-8"?>
<!-- Generator: Adobe Illustrator 22.0.0, SVG Export Plug-In . SVG Version: 6.00 Build 0)  -->
<svg version="1.1" id="Layer_1" xmlns="http://www.w3.org/2000/svg" xmlns:xlink="http://www.w3.org/1999/xlink" x="0px" y="0px"
	 viewBox="0 0 197.3 182.5" style="enable-background:new 0 0 197.3 182.5;" xml:space="preserve">
<style type="text/css">
	.st0{fill:url(#Path-2_1_);fill-opacity:0.48;}
	.st1{fill:url(#Path-3_1_);}
	.st2{fill:#19D0B8;}
	.st3{fill:none;stroke:#FFFFFF;stroke-width:5;stroke-miterlimit:10;}
</style>
<title>E0C90332-CBA9-40A9-B197-82ABE7C65E1B</title>
<desc>Created with sketchtool.</desc>
<linearGradient id="Path-2_1_" gradientUnits="userSpaceOnUse" x1="123.0127" y1="75.8161" x2="122.538" y2="75.1482" gradientTransform="matrix(214 0 0 131.0335 -26169 -9738.7295)">
	<stop  offset="0" style="stop-color:#25CEDA"/>
	<stop  offset="1" style="stop-color:#0ED198"/>
</linearGradient>
<path id="Path-2" class="st0" d="M-17.7,104.2C-13.4,96.6-10,92-7.5,90.4c8.2-4.9,17.4-2.3,20.5-5.5c14.8-15.1,21.6-22,31.9-19.3
	c23.9,6.4,26.2,38.6,38.7,33c12.5-5.5,28.6-35.8,37.6-35.8c7.6,0,18.2,9.6,26.2,6.9c5.4-1.9,18.9-25.1,30.7-26.2
	c11.9-1.1,15.1,17.3,17.1,22c0.7,1.7,10.3,14.8,12.5,16.5c1.8,1.4,7.6,3.9,9.1,8.3c4.4,12.2,7.4,56.8,9.1,133.6H-15.4L-17.7,104.2z"
	/>
<linearGradient id="Path-3_1_" gradientUnits="userSpaceOnUse" x1="122.987" y1="74.4458" x2="122.5284" y2="73.8007" gradientTransform="matrix(206.4284 0 0 52.4409 -25241.1133 -3805.9795)">
	<stop  offset="0" style="stop-color:#25CEDA"/>
	<stop  offset="1" style="stop-color:#0ED198"/>
</linearGradient>
<path id="Path-3" class="st1" d="M-16.1,111l-5.5-1.6c3.3-16.5,12.1-25.1,25.5-25.1c6.3,0,9.5-2.6,15.7-11l0.2-0.3
	c3.6-4.8,5.4-6.9,8.1-9.1c3.6-2.9,7.7-4.4,12.5-4.4s8.9,2.1,12.9,5.9c2.9,2.8,4.9,5.5,9.2,11.9C71,89.8,75.1,93.5,82.2,92.5
	c5.3-0.8,9-4.5,15.9-14.8c0.2-0.3,0.9-1.3,0.9-1.3c5.9-8.8,9.1-12.7,13.8-15.7c6.4-4.1,13.6-4.1,22.2,0.4c7.1,3.8,12.3,4.2,16.6,2.1
	c3.3-1.6,5.8-4.3,9.9-10.3c0.1-0.2,1-1.5,1.3-1.9c6.1-8.7,10.1-12.2,16.6-12.2c4.9,0,8.9,2.8,12.4,8c2.4,3.6,4,7.1,7.3,15.3
	c5.9,14.7,9,19.4,14.5,19.4v6.9c-4.9,0-8.9-2.8-12.4-8c-2.4-3.6-4-7.1-7.3-15.3c-5.9-14.7-9-19.4-14.5-19.4c-4.3,0-7.2,2.5-12.2,9.7
	c-0.3,0.4-1.2,1.7-1.3,1.9c-4.7,6.8-7.7,10.1-12.1,12.3c-5.8,2.9-12.6,2.3-21-2.1c-7-3.7-12.4-3.7-17.2-0.6c-3.8,2.4-6.6,5.9-12,14
	c0,0-0.7,1-0.9,1.3c-7.8,11.6-12.3,16.3-19.6,17.3c-5.4,0.8-10.2-1-14.6-5c-3.2-2.9-5.4-5.8-10.1-12.7c-8.1-11.8-11.9-15.5-18-15.5
	c-6.6,0-9.9,2.7-16.3,11.3l-0.2,0.3c-3.5,4.7-5.3,6.8-7.9,8.9c-3.5,2.9-7.4,4.4-12.1,4.4C-6.9,91.1-13.4,97.5-16.1,111z"/>
<g>
	<image style="overflow:visible;" width="56" height="56" xlink:href="13820118.png"  transform="matrix(1 0 0 1 86.9921 33.4921)">
	</image>
	<g>
		<circle class="st2" cx="114.9" cy="61.2" r="7.9"/>
		<circle class="st3" cx="114.9" cy="61.2" r="7.9"/>
	</g>
</g>
</svg>
