<?xml version="1.0" encoding="utf-8"?>
<!-- Generator: Adobe Illustrator 22.0.0, SVG Export Plug-In . SVG Version: 6.00 Build 0)  -->
<svg version="1.1" id="Layer_1" xmlns="http://www.w3.org/2000/svg" xmlns:xlink="http://www.w3.org/1999/xlink" x="0px" y="0px"
	 viewBox="0 0 270 157" style="enable-background:new 0 0 270 157;" xml:space="preserve">
<style type="text/css">
	.st0{fill:url(#Path-2_2_);fill-opacity:0.48;}
	.st1{fill:url(#Path-3_2_);}
	.st2{fill:url(#SVGID_1_);}
	.st3{fill:none;stroke:#FFFFFF;stroke-width:5;stroke-miterlimit:10;}
</style>
<title>E0C90332-CBA9-40A9-B197-82ABE7C65E1B</title>
<desc>Created with sketchtool.</desc>
<linearGradient id="Path-2_2_" gradientUnits="userSpaceOnUse" x1="287.6451" y1="68.9279" x2="286.6383" y2="69.1834" gradientTransform="matrix(320.25 0 0 -151.4013 -91834.4375 10554.377)">
	<stop  offset="0" style="stop-color:#F5515F"/>
	<stop  offset="1" style="stop-color:#9F041B"/>
</linearGradient>
<path id="Path-2_1_" class="st0" d="M-70.3,82.9c1.6-38.2-1.2-47.6,0.7-49.1c7.7-12.2,43.1,13.6,57.1,20.3
	c26.9,7.3,44.8,34.6,61.1,26c22.1,4.4,36.5-23.3,47.9-20.3c11.8,3.2,25.3,15,45.5,0c5.7-4.2,26.6-18.9,34-20.8
	c5.1-1.3,16.7-4.1,26.7,0.9c12.4,5,21.3,23.2,23.4,24.4c0.2,0.2,14.2,1.5,18.9,7.1c16.9-8.2,4.4-0.3,11-2.1
	c17.1-4.7,57.1-29.6,57.8-28c0,12.5,0,68,0,115.7h-384V82.9z"/>
<linearGradient id="Path-3_2_" gradientUnits="userSpaceOnUse" x1="287.5765" y1="70.0774" x2="286.6637" y2="70.0774" gradientTransform="matrix(308.6779 0 0 -69.1664 -88510.9766 4903.2222)">
	<stop  offset="0" style="stop-color:#F5515F"/>
	<stop  offset="1" style="stop-color:#9F041B"/>
</linearGradient>
<path id="Path-3_1_" class="st1" d="M-69.3,27.3c5.4,0,17,1.6,22.5,4.6c4.1,2.3,7.9,4.9,13.9,9.7c0.5,0.5,0.8,0.6,1.9,1.6
	c13.5,10.7,19.9,14.3,27.6,14.3c5.6,0,10.4,1.4,15.2,4.1c3.5,1.9,5.8,3.7,10.9,8.1c10.1,8.7,15.1,11.3,23.6,10.5
	c6.3-0.5,11-2.8,19.4-8.3c0.3-0.2,0.6-0.4,1-0.7c0.5-0.4,0.8-0.5,1-0.7c8-5.3,12.4-7.7,18.5-9.5c8-2.3,16.9-2.1,27,1
	c12.1,3.8,19.7,1.2,31.8-8.3c0.6-0.5,1.4-1.1,2.4-1.9c0.3-0.2,1.3-1,1.2-1c0.5-0.4,0.9-0.7,1.2-1c6.7-5.3,11-8.3,16.4-10.7
	c7.1-3.3,14.5-4.8,23.1-4.4c9.1,0.5,15.9,2.5,20.8,6.2c3.8,2.7,6,5.6,9.1,11.1c0.1,0.2,0.2,0.4,0.5,0.8c3.1,5.3,4.9,7.7,7.7,9.7
	c3.8,2.6,9,4.1,16.9,4.1c6.3,0,14.5-2.1,24.4-5.9c4.4-1.7,9-3.8,14.5-6.2c3.8-1.7,15.9-7.7,17.9-8.6c6.3-3,9.9-4.3,12.6-4.3v4.7
	c-0.9,0-4.1,1.2-9.1,3.6c-2,1-14.2,6.9-17.9,8.6c-5.4,2.5-10.2,4.7-14.9,6.5c-10.8,4.2-19.8,6.5-27.5,6.5c-9.4,0-16.2-1.8-21.3-5.3
	c-3.8-2.6-5.8-5.3-9.3-11.3c-0.2-0.4-0.3-0.6-0.5-0.8c-2.9-5-4.9-7.4-7.7-9.6c-3.9-2.8-9-4.4-16.7-4.8c-13-0.7-21.3,3.2-34.3,13.7
	c-0.3,0.3-0.8,0.6-1.2,1c0,0-1,0.8-1.2,1c-1,0.8-1.7,1.3-2.4,2c-6.3,5-11,7.9-16.4,9.7c-6.9,2.3-14.2,2.3-22.5-0.2
	c-8.6-2.6-15.7-2.8-22.3-1c-5.2,1.4-9,3.6-16.5,8.6c-0.2,0.1-0.5,0.4-1,0.7c-0.5,0.3-0.8,0.4-1.1,0.7c-9.4,6.2-15.1,8.9-22.9,9.5
	c-6.3,0.5-11.8-0.7-17.1-3.4c-3.8-2-6.3-4-11.9-8.7C8.5,64.7,4,62.1-3.4,62.1c-5.8,0-11.4-1.8-17.4-5.2c-4.3-2.5-7.7-4.9-14.9-10.7
	c-1.2-1-1.4-1.1-1.9-1.5c-11.8-9.2-24.7-11-31.8-11"/>
<g>
	
		<image style="overflow:visible;enable-background:new    ;" width="57" height="57" xlink:href="97A3F940.png"  transform="matrix(0.9825 0 0 0.9825 116.9699 23.9411)">
	</image>
	<g>
		
			<linearGradient id="SVGID_1_" gradientUnits="userSpaceOnUse" x1="152.795" y1="104.8678" x2="137.0281" y2="104.8678" gradientTransform="matrix(1 0 0 -1 0 156.5)">
			<stop  offset="0" style="stop-color:#F5515F"/>
			<stop  offset="1" style="stop-color:#9F041B"/>
		</linearGradient>
		<circle class="st2" cx="144.9" cy="51.6" r="7.9"/>
		<circle class="st3" cx="144.9" cy="51.6" r="7.9"/>
	</g>
</g>
</svg>
