<?xml version="1.0" encoding="UTF-8"?>
<svg width="40px" height="40px" viewBox="0 0 40 40" version="1.1" xmlns="http://www.w3.org/2000/svg" xmlns:xlink="http://www.w3.org/1999/xlink">
    <!-- Generator: sketchtool 49 (51002) - http://www.bohemiancoding.com/sketch -->
    <title>B9B0EB6B-21D4-433B-A160-156A655C1C14</title>
    <desc>Created with sketchtool.</desc>
    <defs></defs>
    <g id="💻-Desktop-Web" stroke="none" stroke-width="1" fill="none" fill-rule="evenodd">
        <g id="0.2.Footer" transform="translate(-1100.000000, -774.000000)" fill-rule="nonzero">
            <g id="booking" transform="translate(1100.000000, 774.000000)">
                <circle id="Oval-1-Copy-39" fill="#FFFFFF" cx="20" cy="20" r="20"></circle>
                <g id="Group-20" transform="translate(13.142857, 9.714286)" fill="#828C8E">
                    <path d="M3.58112346,15.7536339 C3.26462963,15.7614073 3.13009877,15.6996398 3.15087654,15.3485736 C3.18403703,14.789935 3.15969136,14.2279349 3.15969136,13.6674055 L3.16892593,13.6674055 C3.16892593,13.0927998 3.1521358,12.5175638 3.1727037,11.9437985 C3.20355555,11.0908189 3.59728395,10.7151717 4.45064198,10.7273571 C5.22949383,10.738282 6.0119136,10.655085 6.78698766,10.7767291 C7.99524691,10.9664435 8.67167903,11.6876945 8.80977777,12.9142203 C8.96046914,14.2523058 8.31509874,15.3124375 7.14503703,15.637032 C6.77397531,15.7399778 6.39179011,15.7521632 6.0070864,15.7488017 C5.1984321,15.7416585 4.38935802,15.733675 3.58112346,15.7536339 M3.15528395,7.22110686 C3.17165432,6.738312 3.16011111,6.2546768 3.16011111,5.77125166 L3.17333333,5.77125166 C3.17333333,5.30190281 3.16472839,4.83234385 3.1754321,4.36320509 C3.19138271,3.65792123 3.51920987,3.26630696 4.24118518,3.1973963 C5.03766667,3.12134245 5.84695063,3.09676151 6.63566669,3.25496191 C7.84875309,3.49825018 8.47712343,4.72792739 8.09409874,6.04143189 C7.81538274,6.99651691 7.1169136,7.53078469 6.09355554,7.54507103 C5.22067901,7.55704634 4.34717284,7.53498651 3.47471605,7.55494543 C3.18865432,7.56145834 3.14730864,7.45725194 3.15528395,7.22110686 M7.88107406,18.5743491 C10.7910123,18.120337 13.0805555,16.1746612 12.7923951,12.68879 C12.6641605,11.1366193 11.9675802,9.89916863 10.5935185,9.10207389 C10.4394691,9.01257406 10.2562469,8.96257183 10.1458518,8.79701817 C10.3162716,8.64428017 10.4848025,8.49679457 10.6497654,8.34531714 C12.8007901,6.37043829 12.5533457,2.69863434 10.1513086,1.05402249 C9.35020989,0.505258285 8.44983949,0.202513562 7.4915432,0.107971491 C5.59258025,-0.0792218109 3.68711111,0.033388301 1.78479013,0.0354892359 C0.870777777,0.0365397034 0.116691358,0.823760017 0.0149012346,1.75510447 C0.017,7.30850577 0.019308642,12.8623272 0.0203580247,18.4163588 C0.0203580247,18.4861098 0.00713580246,18.5558609 0,18.625822 C0.143975309,18.7088089 0.301592593,18.6705719 0.452703703,18.670782 C2.39867901,18.6737233 4.34465432,18.6709921 6.29083949,18.6745637 C6.82350617,18.6754041 7.35365434,18.6564957 7.88107406,18.5743491" id="Fill-85"></path>
                    <path d="M15.7390081,14.5714287 C14.5133291,14.5710085 13.495218,15.5985758 13.4920698,16.8391778 C13.4891316,18.0791497 14.5047242,19.1094481 15.7297735,19.1090279 C16.9623785,19.1086078 17.983218,18.0814607 17.9754526,16.8494725 C17.9674773,15.5947941 16.9634279,14.5718489 15.7390081,14.5714287" id="Fill-86"></path>
                </g>
            </g>
        </g>
    </g>
</svg>