<?xml version="1.0" encoding="utf-8"?>
<!-- Generator: Adobe Illustrator 16.0.0, SVG Export Plug-In . SVG Version: 6.00 Build 0)  -->
<!DOCTYPE svg PUBLIC "-//W3C//DTD SVG 1.1//EN" "http://www.w3.org/Graphics/SVG/1.1/DTD/svg11.dtd">
<svg version="1.1" id="Layer_1" xmlns="http://www.w3.org/2000/svg" xmlns:xlink="http://www.w3.org/1999/xlink" x="0px" y="0px"
	 width="24px" height="24px" viewBox="0 0 24 24" enable-background="new 0 0 24 24" xml:space="preserve">
<title>C278B81E-3B48-4016-BBAA-E800640E39D5</title>
<desc>Created with sketchtool.</desc>
<g id="Symbols">
	<g id="Icons-_x2F_-24px-_x2F_-camera">
		<g id="Combined-Shape">
			<path id="path-1_1_" fill="#1046F1" d="M9.535,4L7.832,6.555C7.646,6.833,7.334,7,7,7H3C2.448,7,2,7.448,2,8v11
				c0,0.553,0.448,1,1,1h18c0.553,0,1-0.447,1-1V8c0-0.552-0.447-1-1-1h-4c-0.334,0-0.646-0.167-0.832-0.445L14.465,4H9.535z
				 M17.535,5H21c1.656,0,3,1.343,3,3v11c0,1.656-1.344,3-3,3H3c-1.657,0-3-1.344-3-3V8c0-1.657,1.343-3,3-3h3.465l1.703-2.555
				C8.354,2.167,8.666,2,9,2h6c0.334,0,0.646,0.167,0.832,0.445L17.535,5z M12,18c2.762,0,5-2.238,5-5c0-2.761-2.238-5-5-5
				c-2.761,0-5,2.239-5,5C7,15.762,9.239,18,12,18z M12,16c-1.657,0-3-1.344-3-3c0-1.657,1.343-3,3-3c1.656,0,3,1.343,3,3
				C15,14.656,13.656,16,12,16z"/>
		</g>
		<defs>
			<filter id="Adobe_OpacityMaskFilter" filterUnits="userSpaceOnUse" x="0" y="0" width="24" height="24">
				<feColorMatrix  type="matrix" values="1 0 0 0 0  0 1 0 0 0  0 0 1 0 0  0 0 0 1 0"/>
			</filter>
		</defs>
		<mask maskUnits="userSpaceOnUse" x="0" y="0" width="24" height="24" id="mask-2">
			<g filter="url(#Adobe_OpacityMaskFilter)">
				<path id="path-1" fill="#FFFFFF" d="M9.535,4L7.832,6.555C7.646,6.833,7.334,7,7,7H3C2.448,7,2,7.448,2,8v11
					c0,0.553,0.448,1,1,1h18c0.553,0,1-0.447,1-1V8c0-0.552-0.447-1-1-1h-4c-0.334,0-0.646-0.167-0.832-0.445L14.465,4H9.535z
					 M17.535,5H21c1.656,0,3,1.343,3,3v11c0,1.656-1.344,3-3,3H3c-1.657,0-3-1.344-3-3V8c0-1.657,1.343-3,3-3h3.465l1.703-2.555
					C8.354,2.167,8.666,2,9,2h6c0.334,0,0.646,0.167,0.832,0.445L17.535,5z M12,18c2.762,0,5-2.238,5-5c0-2.761-2.238-5-5-5
					c-2.761,0-5,2.239-5,5C7,15.762,9.239,18,12,18z M12,16c-1.657,0-3-1.344-3-3c0-1.657,1.343-3,3-3c1.656,0,3,1.343,3,3
					C15,14.656,13.656,16,12,16z"/>
			</g>
		</mask>
		<g id="UI_x2F_Color_x2F_Flat_x2F_Black" mask="url(#mask-2)">
			<rect id="Base" fill="#1046F1" width="24" height="24"/>
		</g>
	</g>
</g>
</svg>
