<?xml version="1.0" encoding="utf-8"?>
<!-- Generator: Adobe Illustrator 16.0.0, SVG Export Plug-In . SVG Version: 6.00 Build 0)  -->
<!DOCTYPE svg PUBLIC "-//W3C//DTD SVG 1.1//EN" "http://www.w3.org/Graphics/SVG/1.1/DTD/svg11.dtd">
<svg version="1.1" id="Layer_1" xmlns="http://www.w3.org/2000/svg" xmlns:xlink="http://www.w3.org/1999/xlink" x="0px" y="0px"
	 width="60px" height="60px" viewBox="0 0 60 60" enable-background="new 0 0 60 60" xml:space="preserve">
<g>
	<path fill-rule="evenodd" clip-rule="evenodd" fill="#1046F1" d="M56.196,52.356c0,1.912,0,3.747,0,5.583
		c-0.001,0.873-0.329,1.203-1.2,1.203c-16.61-0.002-33.221-0.003-49.831-0.004c-1.013,0-1.288-0.273-1.29-1.289
		c-0.002-1.795,0-3.592,0-5.493c-0.568,0-1.142,0.002-1.716-0.001c-0.88-0.003-1.189-0.313-1.189-1.207
		c-0.002-11.482-0.003-22.966-0.004-34.45c0-0.826,0.343-1.16,1.182-1.16c4.582,0,9.163,0.002,13.745,0.003c0.16,0,0.321,0,0.58,0
		c0-0.26,0-0.491,0-0.723c0-4.177,0-8.355,0-12.533c0-0.999,0.284-1.278,1.302-1.278c8.174,0,16.348,0,24.522,0
		c1.018,0,1.3,0.275,1.3,1.276c0.003,4.198,0.003,8.396,0.005,12.594c0,0.199,0,0.397,0,0.664c0.259,0,0.473,0,0.688,0
		c4.46-0.001,8.92-0.002,13.381-0.003c1.198-0.001,1.43,0.237,1.43,1.456c0,11.343,0,22.686,0,34.028
		c0,1.079-0.261,1.332-1.366,1.335C57.232,52.356,56.73,52.356,56.196,52.356z M41.622,38.883c0-11.994,0-23.949,0-35.895
		c-7.757,0-15.474,0-23.189,0c0,11.991,0,23.935,0,35.896c1.731-0.31,3.171,0.165,4.145,1.619c1.104,1.646,0.825,3.277-0.289,4.771
		c0.645,0.581,1.254,1.13,1.773,1.598c0.874-0.845,1.76-1.7,2.661-2.57c-2.033-2.855-2.056-5.257,0.012-7.157
		c1.864-1.715,4.629-1.736,6.544-0.036c0.893,0.793,1.43,1.804,1.572,2.985c0.203,1.696-0.412,3.119-1.528,4.192
		c0.921,0.892,1.806,1.747,2.673,2.586c0.534-0.481,1.143-1.029,1.783-1.607c-1.15-1.527-1.386-3.18-0.247-4.832
		C38.5,39.028,39.915,38.59,41.622,38.883z M2.943,17.497c0,11.004,0,21.947,0,32.925c0.422,0,0.804,0.012,1.184-0.003
		c0.192-0.008,0.452,0.005,0.561-0.108c0.693-0.71,1.353-1.453,2.033-2.197c-1.564-1.943-0.953-4.22,0.318-5.395
		c1.393-1.291,3.548-1.385,5.049-0.208c1.72,1.35,1.9,3.323,0.507,5.741c0.345,0.259,0.693,0.521,1.108,0.835
		c0.42-1.655,1.392-2.868,2.811-3.748c-0.142-0.2-0.251-0.343-0.346-0.493c-0.893-1.413-0.893-2.83-0.062-4.28
		c0.197-0.343,0.348-0.771,0.349-1.16c0.02-7.121,0.013-14.243,0.01-21.364c0-0.175-0.018-0.35-0.029-0.544
		C11.925,17.497,7.454,17.497,2.943,17.497z M43.612,45.235c0.607,0.594,1.239,1.084,1.701,1.699
		c0.47,0.624,0.772,1.375,1.152,2.078c0.339-0.257,0.686-0.521,1.032-0.784c-1.605-2.031-1.061-4.192,0.098-5.377
		c1.3-1.329,3.38-1.555,4.936-0.522c0.767,0.508,1.298,1.21,1.562,2.089c0.426,1.419,0.062,2.69-0.747,3.701
		c0.689,0.739,1.313,1.416,1.948,2.079c0.099,0.104,0.251,0.207,0.384,0.214c0.477,0.025,0.957,0.01,1.449,0.01
		c0-11.014,0-21.96,0-32.898c-4.528,0-9.015,0-13.53,0c0,0.25,0,0.451,0,0.652c0,6.802,0.004,13.604-0.004,20.406
		c-0.001,0.848-0.073,1.693,0.573,2.383c0.09,0.097,0.114,0.255,0.164,0.387C44.862,42.798,44.508,44.081,43.612,45.235z
		 M34.873,57.18c0-2.386,0.006-4.704-0.009-7.022c-0.002-0.337-0.084-0.681-0.175-1.009c-0.638-2.286-2.873-3.831-5.119-3.548
		c-2.501,0.315-4.322,2.237-4.369,4.697c-0.042,2.219-0.012,4.438-0.01,6.656c0,0.074,0.034,0.148,0.052,0.226
		C28.451,57.18,31.632,57.18,34.873,57.18z M23.23,57.189c0-2.414,0.12-4.778-0.033-7.127c-0.156-2.386-2.33-3.882-4.63-3.41
		c-1.77,0.362-3.041,1.934-3.061,3.845c-0.022,2.099-0.008,4.198-0.006,6.297c0,0.133,0.036,0.265,0.055,0.396
		C18.117,57.189,20.638,57.189,23.23,57.189z M44.561,57.18c0-2.365,0.061-4.662-0.02-6.956c-0.071-2.104-1.91-3.739-3.962-3.679
		c-2.1,0.063-3.756,1.798-3.763,3.951c-0.005,2.036-0.002,4.071-0.002,6.107c0,0.19,0,0.382,0,0.576
		C39.438,57.18,41.97,57.18,44.561,57.18z M46.567,57.171c2.544,0,5.093,0,7.674,0c0-1.401,0.084-2.775-0.021-4.136
		c-0.153-2.022-1.806-3.532-3.756-3.58c-1.903-0.047-3.636,1.323-3.864,3.296C46.433,54.197,46.567,55.679,46.567,57.171z
		 M13.556,57.176c0-1.392,0.064-2.743-0.015-4.087c-0.119-1.991-1.754-3.541-3.714-3.636c-1.881-0.092-3.668,1.28-3.902,3.242
		c-0.174,1.465-0.034,2.966-0.034,4.48C8.402,57.176,10.937,57.176,13.556,57.176z M32.94,40.731
		c-0.013-1.603-1.362-2.93-2.953-2.907c-1.539,0.021-2.852,1.343-2.86,2.878c-0.009,1.594,1.327,2.936,2.924,2.936
		C31.606,43.639,32.954,42.282,32.94,40.731z M42.627,42.669c0.003-1.018-0.906-1.925-1.938-1.936
		c-1.017-0.009-1.939,0.915-1.935,1.937c0.008,1.03,0.915,1.935,1.938,1.934C41.724,44.603,42.624,43.703,42.627,42.669z
		 M21.313,42.664c-0.009-1.037-0.924-1.944-1.94-1.928c-1.042,0.02-1.938,0.919-1.931,1.94c0.007,1.028,0.912,1.925,1.946,1.931
		C20.406,44.612,21.322,43.688,21.313,42.664z M9.7,43.638c-1.016-0.018-1.938,0.884-1.951,1.908
		c-0.012,1.031,0.86,1.938,1.895,1.969c1.045,0.031,1.983-0.887,1.982-1.938C11.625,44.546,10.742,43.657,9.7,43.638z
		 M52.318,45.613c0.02-1.03-0.85-1.939-1.886-1.976c-1.045-0.036-1.985,0.877-1.989,1.931c-0.005,1.03,0.875,1.92,1.917,1.945
		C51.375,47.537,52.303,46.639,52.318,45.613z"/>
	<path fill-rule="evenodd" clip-rule="evenodd" fill="#1046F1" d="M42.627,42.669c-0.003,1.034-0.903,1.934-1.936,1.935
		c-1.022,0.001-1.93-0.903-1.938-1.934c-0.005-1.021,0.918-1.945,1.935-1.937C41.721,40.744,42.63,41.651,42.627,42.669z"/>
	<path fill-rule="evenodd" clip-rule="evenodd" fill="#1046F1" d="M30.062,4.883c1.855,0,3.709-0.002,5.566,0.001
		c0.856,0.001,1.185,0.316,1.186,1.147c0.003,2.46,0.003,4.921,0,7.381c0,0.833-0.33,1.154-1.18,1.155
		c-3.711,0.003-7.422,0.004-11.132,0.003c-0.955,0-1.25-0.309-1.249-1.271c0.001-2.258,0-4.518-0.003-6.776
		c-0.002-1.485,0.163-1.647,1.67-1.644c1.714,0.003,3.428,0.001,5.143,0.001C30.062,4.881,30.062,4.882,30.062,4.883z M34.854,6.863
		c-3.245,0-6.439,0-9.617,0c0,1.949,0,3.851,0,5.74c3.23,0,6.409,0,9.617,0C34.854,10.684,34.854,8.795,34.854,6.863z"/>
	<path fill-rule="evenodd" clip-rule="evenodd" fill="#1046F1" d="M25.23,16.54c0.648,0,1.244,0,1.868,0c0,0.625,0,1.22,0,1.861
		c-0.609,0-1.219,0-1.868,0C25.23,17.796,25.23,17.187,25.23,16.54z"/>
	<path fill-rule="evenodd" clip-rule="evenodd" fill="#1046F1" d="M38.711,26.17c-0.639,0-1.233,0-1.86,0c0-0.622,0-1.218,0-1.862
		c0.595,0,1.204,0,1.86,0C38.711,24.9,38.711,25.509,38.711,26.17z"/>
	<path fill-rule="evenodd" clip-rule="evenodd" fill="#1046F1" d="M23.229,28.186c0,0.62,0,1.214,0,1.848c-0.63,0-1.239,0-1.881,0
		c0-0.608,0-1.203,0-1.848C21.944,28.186,22.554,28.186,23.229,28.186z"/>
	<path fill-rule="evenodd" clip-rule="evenodd" fill="#1046F1" d="M25.222,28.163c0.628,0,1.224,0,1.862,0c0,0.616,0,1.225,0,1.873
		c-0.611,0-1.219,0-1.862,0C25.222,29.423,25.222,28.829,25.222,28.163z"/>
	<path fill-rule="evenodd" clip-rule="evenodd" fill="#1046F1" d="M30.977,28.167c0,0.632,0,1.228,0,1.865c-0.617,0-1.226,0-1.874,0
		c0-0.614,0-1.223,0-1.865C29.717,28.167,30.313,28.167,30.977,28.167z"/>
	<path fill-rule="evenodd" clip-rule="evenodd" fill="#1046F1" d="M34.853,28.167c0,0.628,0,1.224,0,1.863c-0.617,0-1.227,0-1.873,0
		c0-0.612,0-1.221,0-1.863C33.591,28.167,34.185,28.167,34.853,28.167z"/>
	<path fill-rule="evenodd" clip-rule="evenodd" fill="#1046F1" d="M38.728,28.168c0,0.627,0,1.222,0,1.861c-0.614,0-1.224,0-1.873,0
		c0-0.609,0-1.218,0-1.861C37.466,28.168,38.06,28.168,38.728,28.168z"/>
	<path fill-rule="evenodd" clip-rule="evenodd" fill="#1046F1" d="M21.342,33.916c0-0.627,0-1.222,0-1.861c0.614,0,1.223,0,1.871,0
		c0,0.609,0,1.218,0,1.861C22.603,33.916,22.008,33.916,21.342,33.916z"/>
	<path fill-rule="evenodd" clip-rule="evenodd" fill="#1046F1" d="M25.232,32.04c0.643,0,1.238,0,1.863,0c0,0.624,0,1.218,0,1.862
		c-0.599,0-1.209,0-1.863,0C25.232,33.305,25.232,32.696,25.232,32.04z"/>
	<path fill-rule="evenodd" clip-rule="evenodd" fill="#1046F1" d="M30.969,33.921c-0.624,0-1.219,0-1.858,0c0-0.612,0-1.222,0-1.871
		c0.604,0,1.213,0,1.858,0C30.969,32.656,30.969,33.253,30.969,33.921z"/>
	<path fill-rule="evenodd" clip-rule="evenodd" fill="#1046F1" d="M34.85,32.045c0,0.623,0,1.217,0,1.859c-0.608,0-1.218,0-1.868,0
		c0-0.604,0-1.213,0-1.859C33.587,32.045,34.181,32.045,34.85,32.045z"/>
	<path fill-rule="evenodd" clip-rule="evenodd" fill="#1046F1" d="M38.73,32.041c0,0.637,0,1.231,0,1.867c-0.626,0-1.235,0-1.878,0
		c0-0.618,0-1.227,0-1.867C37.474,32.041,38.068,32.041,38.73,32.041z"/>
	<path fill-rule="evenodd" clip-rule="evenodd" fill="#1046F1" d="M30.973,16.544c0,0.617,0,1.211,0,1.855c-0.604,0-1.213,0-1.866,0
		c0-0.6,0-1.208,0-1.855C29.723,16.544,30.332,16.544,30.973,16.544z"/>
	<path fill-rule="evenodd" clip-rule="evenodd" fill="#1046F1" d="M34.84,18.434c-0.64,0-1.222,0-1.85,0c0-0.617,0-1.227,0-1.88
		c0.595,0,1.204,0,1.85,0C34.84,17.161,34.84,17.77,34.84,18.434z"/>
	<path fill-rule="evenodd" clip-rule="evenodd" fill="#1046F1" d="M21.327,22.271c0-0.633,0-1.214,0-1.841c0.62,0,1.229,0,1.883,0
		c0,0.599,0,1.208,0,1.841C22.579,22.271,21.957,22.271,21.327,22.271z"/>
	<path fill-rule="evenodd" clip-rule="evenodd" fill="#1046F1" d="M27.086,22.292c-0.646,0-1.241,0-1.866,0c0-0.625,0-1.219,0-1.862
		c0.604,0,1.214,0,1.866,0C27.086,21.031,27.086,21.64,27.086,22.292z"/>
	<path fill-rule="evenodd" clip-rule="evenodd" fill="#1046F1" d="M30.958,22.294c-0.637,0-1.232,0-1.859,0c0-0.62,0-1.215,0-1.859
		c0.595,0,1.205,0,1.859,0C30.958,21.023,30.958,21.633,30.958,22.294z"/>
	<path fill-rule="evenodd" clip-rule="evenodd" fill="#1046F1" d="M34.827,26.184c-0.63,0-1.211,0-1.839,0c0-0.621,0-1.23,0-1.883
		c0.601,0,1.21,0,1.839,0C34.827,24.934,34.827,25.557,34.827,26.184z"/>
	<path fill-rule="evenodd" clip-rule="evenodd" fill="#1046F1" d="M34.849,20.425c0,0.646,0,1.24,0,1.866c-0.625,0-1.219,0-1.86,0
		c0-0.605,0-1.214,0-1.866C33.589,20.425,34.197,20.425,34.849,20.425z"/>
	<path fill-rule="evenodd" clip-rule="evenodd" fill="#1046F1" d="M38.707,22.298c-0.624,0-1.221,0-1.854,0c0-0.632,0-1.24,0-1.883
		c0.615,0,1.21,0,1.854,0C38.707,21.018,38.707,21.627,38.707,22.298z"/>
	<path fill-rule="evenodd" clip-rule="evenodd" fill="#1046F1" d="M23.225,24.292c0,0.628,0,1.223,0,1.862c-0.616,0-1.225,0-1.873,0
		c0-0.611,0-1.219,0-1.862C21.964,24.292,22.559,24.292,23.225,24.292z"/>
	<path fill-rule="evenodd" clip-rule="evenodd" fill="#1046F1" d="M25.202,26.157c0-0.637,0-1.218,0-1.847c0.618,0,1.228,0,1.881,0
		c0,0.591,0,1.2,0,1.847C26.474,26.157,25.864,26.157,25.202,26.157z"/>
	<path fill-rule="evenodd" clip-rule="evenodd" fill="#1046F1" d="M29.089,26.168c0-0.638,0-1.232,0-1.868c0.626,0,1.234,0,1.879,0
		c0,0.62,0,1.229,0,1.868C30.347,26.168,29.752,26.168,29.089,26.168z"/>
	<path fill-rule="evenodd" clip-rule="evenodd" fill="#1046F1" d="M11.672,23.316c0.623,0,1.219,0,1.854,0
		c0,5.148,0,10.276,0,15.441c-0.61,0-1.207,0-1.854,0C11.672,33.64,11.672,28.511,11.672,23.316z"/>
	<path fill-rule="evenodd" clip-rule="evenodd" fill="#1046F1" d="M5.851,23.306c0.633,0,1.215,0,1.849,0c0,5.135,0,10.265,0,15.44
		c-0.584,0-1.196,0-1.849,0C5.851,33.624,5.851,28.495,5.851,23.306z"/>
	<path fill-rule="evenodd" clip-rule="evenodd" fill="#1046F1" d="M48.409,38.778c-0.648,0-1.232,0-1.858,0
		c0-5.142,0-10.271,0-15.444c0.601,0,1.212,0,1.858,0C48.409,28.472,48.409,33.6,48.409,38.778z"/>
	<path fill-rule="evenodd" clip-rule="evenodd" fill="#1046F1" d="M54.217,38.777c-0.631,0-1.213,0-1.846,0
		c0-5.134,0-10.263,0-15.439c0.581,0,1.192,0,1.846,0C54.217,28.459,54.217,33.588,54.217,38.777z"/>
</g>
</svg>
