<?xml version="1.0" encoding="utf-8"?>
<!-- Generator: Adobe Illustrator 16.0.0, SVG Export Plug-In . SVG Version: 6.00 Build 0)  -->
<!DOCTYPE svg PUBLIC "-//W3C//DTD SVG 1.1//EN" "http://www.w3.org/Graphics/SVG/1.1/DTD/svg11.dtd">
<svg version="1.1" id="Layer_1" xmlns="http://www.w3.org/2000/svg" xmlns:xlink="http://www.w3.org/1999/xlink" x="0px" y="0px"
	 width="24px" height="24px" viewBox="0 0 24 24" enable-background="new 0 0 24 24" xml:space="preserve">
<title>2D6DA29E-ADDE-4BA0-B0C3-6F3688B72BE6</title>
<desc>Created with sketchtool.</desc>
<g id="Symbols">
	<g id="Icons-_x2F_-24px-_x2F_-contact">
		<g id="Combined-Shape">
			<path id="path-1_1_" fill="#1046F1" d="M21.189,1H4.488C4.066,1,3.724,1.336,3.724,1.75v4.325H2.764C2.342,6.075,2,6.411,2,6.825
				c0,0.415,0.342,0.75,0.764,0.75h0.959v3.575H2.764C2.342,11.15,2,11.486,2,11.9s0.342,0.75,0.764,0.75h0.959v3.574H2.764
				C2.342,16.225,2,16.561,2,16.975s0.342,0.75,0.764,0.75h0.959v4.325c0,0.414,0.342,0.75,0.764,0.75h16.702
				c0.423,0,0.765-0.336,0.765-0.75V1.75C21.954,1.336,21.612,1,21.189,1z M20.426,21.3H5.252v-3.575h0.96
				c0.422,0,0.764-0.336,0.764-0.75s-0.342-0.75-0.764-0.75h-0.96V12.65h0.96c0.422,0,0.764-0.336,0.764-0.75
				s-0.342-0.75-0.764-0.75h-0.96V7.575h0.96c0.422,0,0.764-0.335,0.764-0.75c0-0.414-0.342-0.75-0.764-0.75h-0.96V2.5h15.173V21.3z
				 M13.386,12.245c1.733,0,3.144-1.384,3.144-3.085s-1.41-3.085-3.144-3.085c-1.733,0-3.144,1.384-3.144,3.085
				S11.653,12.245,13.386,12.245z M13.386,7.575C14.275,7.575,15,8.286,15,9.16c0,0.874-0.725,1.585-1.614,1.585
				c-0.89,0-1.615-0.711-1.615-1.585C11.771,8.286,12.496,7.575,13.386,7.575z M9.887,17.854c0.422,0,0.764-0.336,0.764-0.75v-1.295
				c0-0.832,0.69-1.51,1.538-1.51h2.413c0.848,0,1.539,0.678,1.539,1.51v1.295c0,0.414,0.342,0.75,0.764,0.75
				s0.765-0.336,0.765-0.75v-1.295c0-1.66-1.376-3.01-3.067-3.01h-2.413c-1.691,0-3.066,1.35-3.066,3.01v1.295
				C9.122,17.518,9.464,17.854,9.887,17.854z"/>
		</g>
		<defs>
			<filter id="Adobe_OpacityMaskFilter" filterUnits="userSpaceOnUse" x="0" y="0" width="24" height="24">
				<feColorMatrix  type="matrix" values="1 0 0 0 0  0 1 0 0 0  0 0 1 0 0  0 0 0 1 0"/>
			</filter>
		</defs>
		<mask maskUnits="userSpaceOnUse" x="0" y="0" width="24" height="24" id="mask-2">
			<g filter="url(#Adobe_OpacityMaskFilter)">
				<path id="path-1" fill="#FFFFFF" d="M21.189,1H4.488C4.066,1,3.724,1.336,3.724,1.75v4.325H2.764C2.342,6.075,2,6.411,2,6.825
					c0,0.415,0.342,0.75,0.764,0.75h0.959v3.575H2.764C2.342,11.15,2,11.486,2,11.9s0.342,0.75,0.764,0.75h0.959v3.574H2.764
					C2.342,16.225,2,16.561,2,16.975s0.342,0.75,0.764,0.75h0.959v4.325c0,0.414,0.342,0.75,0.764,0.75h16.702
					c0.423,0,0.765-0.336,0.765-0.75V1.75C21.954,1.336,21.612,1,21.189,1z M20.426,21.3H5.252v-3.575h0.96
					c0.422,0,0.764-0.336,0.764-0.75s-0.342-0.75-0.764-0.75h-0.96V12.65h0.96c0.422,0,0.764-0.336,0.764-0.75
					s-0.342-0.75-0.764-0.75h-0.96V7.575h0.96c0.422,0,0.764-0.335,0.764-0.75c0-0.414-0.342-0.75-0.764-0.75h-0.96V2.5h15.173V21.3
					z M13.386,12.245c1.733,0,3.144-1.384,3.144-3.085s-1.41-3.085-3.144-3.085c-1.733,0-3.144,1.384-3.144,3.085
					S11.653,12.245,13.386,12.245z M13.386,7.575C14.275,7.575,15,8.286,15,9.16c0,0.874-0.725,1.585-1.614,1.585
					c-0.89,0-1.615-0.711-1.615-1.585C11.771,8.286,12.496,7.575,13.386,7.575z M9.887,17.854c0.422,0,0.764-0.336,0.764-0.75
					v-1.295c0-0.832,0.69-1.51,1.538-1.51h2.413c0.848,0,1.539,0.678,1.539,1.51v1.295c0,0.414,0.342,0.75,0.764,0.75
					s0.765-0.336,0.765-0.75v-1.295c0-1.66-1.376-3.01-3.067-3.01h-2.413c-1.691,0-3.066,1.35-3.066,3.01v1.295
					C9.122,17.518,9.464,17.854,9.887,17.854z"/>
			</g>
		</mask>
		<g id="UI_x2F_Color_x2F_Flat_x2F_Black" mask="url(#mask-2)">
			<rect id="Base" fill="#1046F1" width="24" height="24"/>
		</g>
	</g>
</g>
</svg>
