<?xml version="1.0" encoding="utf-8"?>
<!-- Generator: Adobe Illustrator 16.0.0, SVG Export Plug-In . SVG Version: 6.00 Build 0)  -->
<!DOCTYPE svg PUBLIC "-//W3C//DTD SVG 1.1//EN" "http://www.w3.org/Graphics/SVG/1.1/DTD/svg11.dtd">
<svg version="1.1" id="Layer_1" xmlns="http://www.w3.org/2000/svg" xmlns:xlink="http://www.w3.org/1999/xlink" x="0px" y="0px"
	 width="24px" height="24px" viewBox="0 0 24 24" enable-background="new 0 0 24 24" xml:space="preserve">
<title>E4EB5518-C80B-4EBD-B4BD-66F7B4BC4889</title>
<desc>Created with sketchtool.</desc>
<g id="_xD83D__xDCBB_-Desktop-Web">
	<g id="_x31_.3.1.Company-Detail_x5F_Company-Info_x5F_Full-Data" transform="translate(-365.000000, -4313.000000)">
		<g id="Icons-_x2F_-24px-_x2F_-cpu" transform="translate(365.000000, 4313.000000)">
			<g id="Combined-Shape">
				<path id="path-1_1_" d="M6,5C5.448,5,5,5.448,5,6v12c0,0.553,0.448,1,1,1h12c0.553,0,1-0.447,1-1V6c0-0.552-0.447-1-1-1H6z
					 M3,13v-3H1c-0.552,0-1-0.448-1-1s0.448-1,1-1h2V6c0-1.657,1.343-3,3-3h2V1c0-0.552,0.448-1,1-1s1,0.448,1,1v2h4V1
					c0-0.552,0.447-1,1-1s1,0.448,1,1v2h2c1.656,0,3,1.343,3,3v2h2c0.553,0,1,0.448,1,1s-0.447,1-1,1h-2v3h2c0.553,0,1,0.447,1,1
					s-0.447,1-1,1h-2v3c0,1.656-1.344,3-3,3h-2v2c0,0.553-0.447,1-1,1s-1-0.447-1-1v-2h-4v2c0,0.553-0.448,1-1,1s-1-0.447-1-1v-2H6
					c-1.657,0-3-1.344-3-3v-3H1c-0.552,0-1-0.447-1-1s0.448-1,1-1H3z M9,8C8.448,8,8,8.448,8,9v6c0,0.553,0.448,1,1,1h6
					c0.553,0,1-0.447,1-1V9c0-0.552-0.447-1-1-1H9z"/>
			</g>
			<defs>
				<filter id="Adobe_OpacityMaskFilter" filterUnits="userSpaceOnUse" x="0" y="0" width="24" height="24">
					<feColorMatrix  type="matrix" values="1 0 0 0 0  0 1 0 0 0  0 0 1 0 0  0 0 0 1 0"/>
				</filter>
			</defs>
			<mask maskUnits="userSpaceOnUse" x="0" y="0" width="24" height="24" id="mask-2">
				<g filter="url(#Adobe_OpacityMaskFilter)">
					<path id="path-1" fill="#FFFFFF" d="M6,5C5.448,5,5,5.448,5,6v12c0,0.553,0.448,1,1,1h12c0.553,0,1-0.447,1-1V6
						c0-0.552-0.447-1-1-1H6z M3,13v-3H1c-0.552,0-1-0.448-1-1s0.448-1,1-1h2V6c0-1.657,1.343-3,3-3h2V1c0-0.552,0.448-1,1-1
						s1,0.448,1,1v2h4V1c0-0.552,0.447-1,1-1s1,0.448,1,1v2h2c1.656,0,3,1.343,3,3v2h2c0.553,0,1,0.448,1,1s-0.447,1-1,1h-2v3h2
						c0.553,0,1,0.447,1,1s-0.447,1-1,1h-2v3c0,1.656-1.344,3-3,3h-2v2c0,0.553-0.447,1-1,1s-1-0.447-1-1v-2h-4v2
						c0,0.553-0.448,1-1,1s-1-0.447-1-1v-2H6c-1.657,0-3-1.344-3-3v-3H1c-0.552,0-1-0.447-1-1s0.448-1,1-1H3z M9,8
						C8.448,8,8,8.448,8,9v6c0,0.553,0.448,1,1,1h6c0.553,0,1-0.447,1-1V9c0-0.552-0.447-1-1-1H9z"/>
				</g>
			</mask>
			<g id="UI_x2F_Color_x2F_Flat_x2F_White" mask="url(#mask-2)">
				<rect id="Base" fill="none" width="24" height="24"/>
			</g>
		</g>
	</g>
</g>
</svg>
