<?xml version="1.0" encoding="utf-8"?>
<!-- Generator: Adobe Illustrator 16.0.0, SVG Export Plug-In . SVG Version: 6.00 Build 0)  -->
<!DOCTYPE svg PUBLIC "-//W3C//DTD SVG 1.1//EN" "http://www.w3.org/Graphics/SVG/1.1/DTD/svg11.dtd">
<svg version="1.1" id="Layer_1" xmlns="http://www.w3.org/2000/svg" xmlns:xlink="http://www.w3.org/1999/xlink" x="0px" y="0px"
	 width="24px" height="24px" viewBox="0 0 24 24" enable-background="new 0 0 24 24" xml:space="preserve">
<title>E3AA91F7-6CFE-4D00-95BA-6CE61F31BEB2</title>
<desc>Created with sketchtool.</desc>
<g id="Symbols">
	<g id="Icons-_x2F_-24px-_x2F_-download">
		<rect id="Base" fill="none" width="24" height="24"/>
		<g id="Combined-Shape">
			<path id="path-1_1_" d="M11,13.586V2c0-0.552,0.448-1,1-1c0.553,0,1,0.448,1,1v11.586l2.293-2.293
				c0.391-0.391,1.023-0.391,1.414,0s0.391,1.023,0,1.414l-4,4c-0.391,0.391-1.023,0.391-1.414,0l-4-4
				c-0.391-0.391-0.391-1.023,0-1.414s1.023-0.391,1.414,0L11,13.586z M2,17c0-0.553,0.448-1,1-1s1,0.447,1,1v3c0,0.553,0.448,1,1,1
				h14c0.553,0,1-0.447,1-1v-3c0-0.553,0.447-1,1-1s1,0.447,1,1v3c0,1.656-1.344,3-3,3H5c-1.657,0-3-1.344-3-3V17z"/>
		</g>
		<defs>
			<filter id="Adobe_OpacityMaskFilter" filterUnits="userSpaceOnUse" x="0" y="0" width="24" height="24">
				<feColorMatrix  type="matrix" values="1 0 0 0 0  0 1 0 0 0  0 0 1 0 0  0 0 0 1 0"/>
			</filter>
		</defs>
		<mask maskUnits="userSpaceOnUse" x="0" y="0" width="24" height="24" id="mask-2">
			<g filter="url(#Adobe_OpacityMaskFilter)">
				<path id="path-1" fill="#FFFFFF" d="M11,13.586V2c0-0.552,0.448-1,1-1c0.553,0,1,0.448,1,1v11.586l2.293-2.293
					c0.391-0.391,1.023-0.391,1.414,0s0.391,1.023,0,1.414l-4,4c-0.391,0.391-1.023,0.391-1.414,0l-4-4
					c-0.391-0.391-0.391-1.023,0-1.414s1.023-0.391,1.414,0L11,13.586z M2,17c0-0.553,0.448-1,1-1s1,0.447,1,1v3
					c0,0.553,0.448,1,1,1h14c0.553,0,1-0.447,1-1v-3c0-0.553,0.447-1,1-1s1,0.447,1,1v3c0,1.656-1.344,3-3,3H5c-1.657,0-3-1.344-3-3
					V17z"/>
			</g>
		</mask>
		<g id="UI_x2F_Color_x2F_Flat_x2F_Dark-1" mask="url(#mask-2)">
			<rect id="Base_1_" fill="#1046F1" width="24" height="24"/>
		</g>
	</g>
</g>
</svg>
