<?xml version="1.0" encoding="UTF-8"?>
<svg width="40px" height="40px" viewBox="0 0 40 40" version="1.1" xmlns="http://www.w3.org/2000/svg" xmlns:xlink="http://www.w3.org/1999/xlink">
    <!-- Generator: sketchtool 49 (51002) - http://www.bohemiancoding.com/sketch -->
    <title>96F6B0B9-842C-40A3-B958-C477D7E68488</title>
    <desc>Created with sketchtool.</desc>
    <defs></defs>
    <g id="💻-Desktop-Web" stroke="none" stroke-width="1" fill="none" fill-rule="evenodd">
        <g id="0.2.Footer" transform="translate(-1035.000000, -774.000000)" fill-rule="nonzero">
            <g id="dribbble" transform="translate(1035.000000, 774.000000)">
                <circle id="Oval-1-Copy-19" fill="#FFFFFF" cx="20" cy="20" r="20"></circle>
                <path d="M28.3466032,19.5486632 C28.3188254,19.5437693 28.2899365,19.5393202 28.2599365,19.5342038 C28.1550476,19.5164077 28.0374921,19.4977217 27.9072698,19.4781459 C27.8650476,19.4716949 27.8272698,19.4661335 27.782381,19.45946 C27.608381,19.4345454 27.4206032,19.4094083 27.2128254,19.3849386 C27.2001587,19.3836039 27.186381,19.3822692 27.1737143,19.3809345 C26.9801587,19.3586893 26.7717143,19.3384462 26.554381,19.3197602 C26.5014921,19.3150887 26.4492698,19.3110846 26.3952698,19.3068579 C26.1719365,19.2892843 25.940381,19.27438 25.698381,19.2634798 C25.678381,19.2625901 25.6599365,19.2612553 25.6399365,19.2603655 C25.3721587,19.2492429 25.0948254,19.2441265 24.810381,19.2445714 C24.7681587,19.2445714 24.7257143,19.2456837 24.6832698,19.2461286 C24.4352698,19.2481307 24.1834921,19.2561389 23.9277143,19.2697085 C23.8770476,19.2726004 23.8274921,19.2746025 23.7766032,19.2777167 C23.476381,19.2966252 23.1739365,19.3226521 22.8699365,19.3609138 C22.8090476,19.2120934 22.7554921,19.0672773 22.6914921,18.9166773 C22.5119365,18.4949084 22.3177143,18.0766988 22.116381,17.6647178 C22.458381,17.5243506 22.7739365,17.3802018 23.0752698,17.2302692 C23.0981587,17.2191466 23.120381,17.208024 23.1428254,17.1966789 C25.2792698,16.1195667 26.4081587,14.8920769 26.7514921,14.4622998 C26.9090476,14.6560554 27.0874921,14.8335721 27.2270476,15.039785 C27.528381,15.488693 27.7886032,15.9665198 27.9986032,16.4630325 C28.2128254,16.9695555 28.3759365,17.4976564 28.4866032,18.0353227 C28.5901587,18.5491867 28.6426032,19.0768427 28.6501587,19.6042762 C28.5728254,19.5891495 28.4708254,19.5704635 28.3466032,19.5486632 M28.4866032,21.4125879 C28.3759365,21.9518114 28.2128254,22.4801348 27.9986032,22.9862129 C27.7886032,23.4827257 27.528381,23.9607749 27.2270476,24.4096829 C26.9272698,24.8528071 26.5841587,25.2692371 26.2050476,25.6485177 C25.8434921,26.0113368 25.4450476,26.3390085 25.0246032,26.6290858 C24.8857143,25.8547306 24.4117143,23.5220997 23.3928254,20.7145338 C24.8972698,20.4731734 26.2910476,20.586179 27.2761587,20.7483465 C27.2779365,20.7487914 27.2797143,20.7490138 27.2812698,20.7492363 C27.6648254,20.8126351 27.9837143,20.8831523 28.2248254,20.9432144 C28.2421587,20.9476634 28.2586032,20.9516675 28.2750476,20.9558942 C28.3808254,20.9828109 28.4752698,21.0083928 28.5446032,21.0284135 C28.5248254,21.1563233 28.5121587,21.2860128 28.4866032,21.4125879 M23.5439365,27.4454844 C23.0399365,27.6590382 22.5106032,27.8232078 21.9717143,27.9339889 C21.4217143,28.0456597 20.854381,28.1039421 20.2857143,28.1039421 C19.7170476,28.1039421 19.1499365,28.0456597 18.5981587,27.9339889 C18.0608254,27.8232078 17.5332698,27.6590382 17.0274921,27.4454844 C16.5314921,27.2352673 16.0539365,26.9747761 15.6057143,26.6731313 C15.4374921,26.5592359 15.2770476,26.4331057 15.1172698,26.306753 C15.1592698,26.2288947 15.2261587,26.1145545 15.3041587,25.9879793 C15.3172698,25.9666239 15.3286032,25.9472706 15.3428254,25.924803 C15.4261587,25.792889 15.5321587,25.6371726 15.6534921,25.468999 C15.6768254,25.4369659 15.7010476,25.404043 15.7257143,25.3708977 C15.8570476,25.1940484 16.0081587,25.0027397 16.1826032,24.7996411 C16.208381,24.7698325 16.2374921,24.7384668 16.2641587,24.7079909 C16.4554921,24.4904329 16.6659365,24.2637544 16.9097143,24.0292901 C16.9097143,24.0290676 16.9099365,24.0290676 16.9099365,24.0290676 C17.1481587,23.7997197 17.4210476,23.5645879 17.7128254,23.3296787 C17.7570476,23.2940864 17.7988254,23.2584941 17.844381,23.2229018 C18.132381,22.9977805 18.4506032,22.7742162 18.7912698,22.5548786 C18.8554921,22.5135026 18.9210476,22.472349 18.9872698,22.4316403 C19.3408254,22.21297 19.7199365,22.000306 20.1308254,21.7985421 C20.192381,21.7685111 20.258381,21.7400372 20.3212698,21.7102286 C20.7634921,21.5015687 21.2299365,21.3015845 21.7399365,21.1238454 C21.7581587,21.1176167 21.7761587,21.1133901 21.794381,21.1071615 C22.9154921,24.0241737 23.4250476,26.4993963 23.5901587,27.4232392 C23.574381,27.4301352 23.5597143,27.4390333 23.5439365,27.4454844 M14.712381,24.2991242 C14.5650476,24.4902105 14.4368254,24.6639454 14.3317143,24.8152127 C14.312381,24.8425743 14.2999365,24.8612603 14.2821587,24.8872871 C14.1819365,25.0332157 14.0970476,25.1620153 14.040381,25.2521083 C13.7988254,24.9789374 13.5492698,24.7111053 13.344381,24.4096829 C13.0430476,23.9607749 12.7830476,23.4827257 12.5728254,22.9862129 C12.3588254,22.4801348 12.1948254,21.9518114 12.0848254,21.4125879 C11.9734921,20.861797 11.9152698,20.2940997 11.9152698,19.7248451 C11.9152698,19.6347521 11.9259365,19.5453265 11.9288254,19.4556783 C12.0339365,19.4563457 12.1886032,19.4556783 12.3801587,19.4530089 L12.3806032,19.4530089 C13.7268254,19.4329882 17.0619365,19.267484 20.5170476,18.2330825 C20.7637143,18.7164705 20.9908254,19.2074219 21.2072698,19.6970387 C21.0974921,19.7281819 20.9861587,19.7550986 20.8779365,19.790246 C20.4139365,19.9404011 19.9792698,20.1232566 19.5612698,20.320349 C19.5017143,20.3486004 19.4406032,20.3741823 19.3817143,20.4031011 C18.9912698,20.595522 18.6241587,20.8052942 18.2752698,21.026189 C18.2097143,21.0677875 18.1457143,21.1087186 18.0814921,21.1509845 C17.7426032,21.3745487 17.4221587,21.6054538 17.1246032,21.84281 C17.0770476,21.8806269 17.0339365,21.9179987 16.9874921,21.9560381 C16.684381,22.2047393 16.3968254,22.4558875 16.1386032,22.7048113 L16.138381,22.7052562 C15.8741587,22.9599636 15.6399365,23.2086649 15.4228254,23.4495803 C15.3921587,23.4838379 15.3606032,23.5172057 15.3308254,23.5510184 C15.1310476,23.7768071 14.9557143,23.9892487 14.7986032,24.1887881 C14.7681587,24.2272723 14.7410476,24.2619748 14.712381,24.2991242 M12.5728254,16.4630325 C12.7830476,15.9665198 13.0430476,15.488693 13.344381,15.039785 C13.6457143,14.5951036 13.9874921,14.1784511 14.3679365,13.7991706 C14.7468254,13.41989 15.1628254,13.0762018 15.6057143,12.7761141 C15.9670476,12.5320843 16.3532698,12.3236469 16.7490476,12.1383444 C17.1332698,12.6673351 18.5072698,14.5968832 19.8117143,16.9177242 C19.5474921,16.9877966 19.2852698,17.0531974 19.0261587,17.1143717 C19.0254921,17.1143717 19.0248254,17.1145942 19.0241587,17.1148166 C16.9312698,17.608215 15.0368254,17.8157627 13.7319365,17.9022965 C13.7308254,17.9025189 13.7294921,17.9025189 13.728381,17.9025189 C13.2094921,17.9367765 12.7846032,17.9519033 12.4772698,17.9583543 C12.4737143,17.9583543 12.4701587,17.9585768 12.4666032,17.9585768 C12.3161587,17.9616911 12.1930476,17.9628034 12.1034921,17.9628034 C12.2130476,17.4502741 12.3686032,16.9464205 12.5728254,16.4630325 M18.5981587,11.5152566 C19.1499365,11.402251 19.7170476,11.3455257 20.2857143,11.3455257 C20.854381,11.3455257 21.4217143,11.402251 21.9717143,11.5152566 C22.5106032,11.6262601 23.0381587,11.7895398 23.5439365,12.003761 C24.0399365,12.2142005 24.5190476,12.4744693 24.9657143,12.7761141 C25.2654921,12.9794352 25.532381,13.2281365 25.8048254,13.4688294 C25.4874921,13.8736919 24.462381,15.0275501 22.412381,15.9889874 C22.4068254,15.9916568 22.4010476,15.9943262 22.3952698,15.9969957 C22.1037143,16.1331362 21.7919365,16.2657176 21.4579365,16.3914029 C20.1806032,14.044535 18.7972698,12.1236626 18.3872698,11.5697573 C18.4579365,11.5532958 18.5270476,11.5301609 18.5981587,11.5152566 M29.4997143,15.8274873 C29.248381,15.2346529 28.9381587,14.6620616 28.5779365,14.1259525 C28.2192698,13.5971842 27.8079365,13.0988919 27.3572698,12.6459797 C26.9048254,12.1939574 26.4070476,11.7830887 25.8788254,11.4240513 C25.3430476,11.0625669 24.7710476,10.7526913 24.1790476,10.5013206 C23.5737143,10.2457234 22.9428254,10.0499657 22.2997143,9.91738434 C21.6406032,9.782356 20.9637143,9.71428571 20.2857143,9.71428571 C19.6079365,9.71428571 18.9308254,9.782356 18.2717143,9.91738434 C17.6286032,10.0499657 16.9968254,10.2457234 16.3926032,10.5013206 C15.800381,10.7526913 15.228381,11.0625669 14.6928254,11.4240513 C14.164381,11.7830887 13.6668254,12.1939574 13.214381,12.6459797 C12.7634921,13.0988919 12.352381,13.5971842 11.9937143,14.1259525 C11.6332698,14.6620616 11.3230476,15.2346529 11.0717143,15.8274873 C10.8166032,16.4323341 10.6210476,17.0647649 10.4892698,17.7085409 C10.3537143,18.3685557 10.2857143,19.0461443 10.2857143,19.7248451 C10.2857143,20.4031011 10.3537143,21.0809121 10.4892698,21.740927 C10.6210476,22.3847029 10.8166032,23.0171338 11.0717143,23.6204234 C11.3230476,24.214815 11.6332698,24.7871838 11.9937143,25.3235154 C12.352381,25.8522837 12.7634921,26.350576 13.214381,26.8034881 C13.6668254,27.2546206 14.164381,27.6663791 14.6928254,28.0238594 C15.228381,28.3862336 15.800381,28.6967765 16.3926032,28.9481472 C16.9968254,29.2037445 17.6286032,29.3995022 18.2717143,29.5311937 C18.9308254,29.6671118 19.6079365,29.7349597 20.2857143,29.7349597 C20.9637143,29.7349597 21.6406032,29.6671118 22.2997143,29.5311937 C22.9428254,29.3995022 23.5737143,29.2037445 24.1790476,28.9481472 C24.7710476,28.6967765 25.3430476,28.3862336 25.8788254,28.0238594 C26.4070476,27.6663791 26.9048254,27.2546206 27.3572698,26.8034881 C27.8079365,26.350576 28.2192698,25.8522837 28.5779365,25.3235154 C28.9381587,24.7871838 29.248381,24.214815 29.4997143,23.6204234 C29.7541587,23.0171338 29.950381,22.3847029 30.0821587,21.740927 C30.2179365,21.0809121 30.2857143,20.4031011 30.2857143,19.7248451 C30.2857143,19.0461443 30.2179365,18.3685557 30.0821587,17.7085409 C29.950381,17.0647649 29.7541587,16.4323341 29.4997143,15.8274873" id="Fill-30" fill="#828C8E"></path>
            </g>
        </g>
    </g>
</svg>