<svg xmlns="http://www.w3.org/2000/svg" width="39" height="39" viewBox="0 0 39 39">
    <path fill="#6F93F9" fill-rule="evenodd" d="M30.241 22.463c-1.301 4.504-5.444 7.766-10.296 7.766-4.853 0-8.996-3.321-10.298-7.766 2.25 3.32 6.036 5.394 10.298 5.394 4.26.06 8.048-2.074 10.296-5.394m-6.982-7.764c0-1.66 1.3-3.024 2.959-3.024a3.035 3.035 0 0 1 3.019 3.024c0 1.658-1.363 2.963-3.02 2.963a2.932 2.932 0 0 1-2.958-2.963m-12.902 0a3.034 3.034 0 0 1 3.018-3.024 3.033 3.033 0 0 1 3.019 3.024c0 1.658-1.361 2.963-3.019 2.963-1.656 0-3.018-1.305-3.018-2.963m9.114 22.7C9.647 37.4 1.598 29.397 1.598 19.5c0-9.9 8.05-17.959 17.873-17.959 9.943 0 17.99 8.06 17.99 17.959 0 9.897-8.047 17.9-17.99 17.9m0-37.4C8.76 0 0 8.712 0 19.5 0 30.287 8.759 39 19.471 39 30.301 39 39 30.287 39 19.5 39 8.712 30.3 0 19.471 0"/>
</svg>
