<svg xmlns="http://www.w3.org/2000/svg" width="39" height="39" viewBox="0 0 39 39">
    <path fill="#999" fill-rule="evenodd" d="M9.661 22.938l20.568.059a10.722 10.722 0 0 1-10.315 7.707c-4.86 0-8.949-3.261-10.253-7.766m13.574-8.239c0-1.66 1.363-2.964 3.022-2.964 1.66 0 3.023 1.305 3.023 2.964a3.036 3.036 0 0 1-3.023 3.023 3.036 3.036 0 0 1-3.022-3.023m-12.862 0a2.973 2.973 0 0 1 2.963-2.964c1.66 0 3.023 1.305 3.023 2.964a3.036 3.036 0 0 1-3.023 3.023c-1.6 0-2.963-1.364-2.963-3.023M19.5 37.461c-9.898 0-17.959-8.003-17.959-17.96 0-9.84 8.06-17.962 17.959-17.962 9.957 0 17.959 8.122 17.959 17.963A17.91 17.91 0 0 1 19.5 37.46M19.5 0C8.772 0 0 8.713 0 19.502 0 30.287 8.772 39 19.5 39 30.287 39 39 30.287 39 19.502 39 8.713 30.287 0 19.5 0"/>
</svg>
