<?xml version="1.0" encoding="UTF-8"?>
<svg width="24px" height="24px" viewBox="0 0 24 24" version="1.1" xmlns="http://www.w3.org/2000/svg" xmlns:xlink="http://www.w3.org/1999/xlink">
    <!-- Generator: sketchtool 49 (51002) - http://www.bohemiancoding.com/sketch -->
    <title>A927585F-AA3B-4120-8BFE-326927E7112B</title>
    <desc>Created with sketchtool.</desc>
    <defs>
        <path d="M9,12.8261466 L1.23643005,3.64572512 C0.68677074,2.99575299 1.14877199,2 2,2 L22,2 C22.851228,2 23.3132293,2.99575299 22.76357,3.64572512 L15,12.8261466 L15,21 C15,21.743382 14.2176875,22.2268777 13.5527864,21.8944272 L9.5527864,19.8944272 C9.21400238,19.7250352 9,19.3787721 9,19 L9,12.8261466 Z M4.15530367,4 L10.76357,11.8142749 C10.9162342,11.9948003 11,12.223577 11,12.46 L11,18.381966 L13,19.381966 L13,12.46 C13,12.223577 13.0837658,11.9948003 13.23643,11.8142749 L19.8446963,4 L4.15530367,4 Z" id="path-1"></path>
    </defs>
    <g id="Symbols" stroke="none" stroke-width="1" fill="none" fill-rule="evenodd">
        <g id="Icons-/-24px-/-filter">
            <rect id="Base" x="0" y="0" width="24" height="24"></rect>
            <mask id="mask-2" fill="white">
                <use xlink:href="#path-1"></use>
            </mask>
            <use id="Shape" fill="#000000" fill-rule="nonzero" xlink:href="#path-1"></use>
            <g id="UI/Color/Flat/Dark-1" mask="url(#mask-2)" fill="#333333">
                <rect id="Base" x="0" y="0" width="24" height="24"></rect>
            </g>
        </g>
    </g>
</svg>