<svg xmlns="http://www.w3.org/2000/svg" xmlns:xlink="http://www.w3.org/1999/xlink" width="24" height="24" viewBox="0 0 24 24">
    <defs>
        <path id="a" d="M14.263 20.702A16.28 16.28 0 0 0 16.935 13h4.006c-.414 3.739-3.118 6.778-6.678 7.702zM3.058 13h4.01a16.31 16.31 0 0 0 2.67 7.702c-3.56-.924-6.266-3.963-6.68-7.702zm6.68-9.701a16.269 16.269 0 0 0-2.673 7.7H3.058c.414-3.737 3.12-6.776 6.68-7.7zm-.678 7.7A14.28 14.28 0 0 1 12 3.552 14.307 14.307 0 0 1 14.938 11H9.06zm.002 2h5.877A14.278 14.278 0 0 1 12 20.45 14.293 14.293 0 0 1 9.062 13zm11.88-2h-4.01a16.294 16.294 0 0 0-2.669-7.7c3.56.924 6.264 3.963 6.678 7.7zM12 1C5.925 1 1 5.926 1 12c0 6.077 4.925 11 11 11s11-4.923 11-11c0-6.074-4.925-11-11-11z"/>
    </defs>
    <g fill="none" fill-rule="evenodd">
        <mask id="b" fill="#fff">
            <use xlink:href="#a"/>
        </mask>
        <use fill="#000" xlink:href="#a"/>
        <g fill="#000" mask="url(#b)">
            <path d="M0 0h24v24H0z"/>
        </g>
    </g>
</svg>
