<?xml version="1.0" encoding="utf-8"?>
<!-- Generator: Adobe Illustrator 16.0.0, SVG Export Plug-In . SVG Version: 6.00 Build 0)  -->
<!DOCTYPE svg PUBLIC "-//W3C//DTD SVG 1.1//EN" "http://www.w3.org/Graphics/SVG/1.1/DTD/svg11.dtd">
<svg version="1.1" id="Layer_1" xmlns="http://www.w3.org/2000/svg" xmlns:xlink="http://www.w3.org/1999/xlink" x="0px" y="0px"
	 width="81px" height="70px" viewBox="0 0 81 70" enable-background="new 0 0 81 70" xml:space="preserve">
<title>F8340169-7CB1-4D43-8372-1EF0F9BAB865</title>
<desc>Created with sketchtool.</desc>
<g id="_xD83D__xDCBB_-Desktop-Web">
	<g id="_x31_.1.Home-Page" transform="translate(-280.000000, -1679.000000)">
		<g id="Group-7" transform="translate(280.000000, 1679.000000)">
			<path id="Fill-1" fill="#1046F1" d="M78.912,18.018L62.521,1.611C61.483,0.572,60.104,0,58.637,0s-2.847,0.572-3.885,1.611
				L50.9,5.466c-0.592,0.593-1.015,1.291-1.281,2.034l-18.02-3.23c-0.001,0-0.003,0-0.005,0c-8.102-1.61-16.014,3.662-17.648,11.775
				l-0.832,4.127c-0.917,4.558,2.041,9.012,6.593,9.932c4.554,0.917,9.005-2.042,9.922-6.601l0.509-2.523l8.082,0.707l24.928,24.955
				c0.775,0.776,0.775,2.036,0,2.813c-0.773,0.774-2.033,0.775-2.809,0L50.094,39.198c-0.713-0.714-1.871-0.714-2.584,0
				s-0.713,1.872,0,2.586l10.246,10.257c0.375,0.375,0.582,0.874,0.582,1.405c0,0.532-0.207,1.03-0.582,1.405
				c-0.774,0.775-2.035,0.775-2.809,0L44.701,44.596c-0.713-0.714-1.872-0.714-2.584,0c-0.715,0.715-0.715,1.873,0,2.588
				l10.245,10.256c0.774,0.775,0.774,2.036,0,2.812c-0.375,0.375-0.875,0.582-1.403,0.582c-0.531,0-1.031-0.207-1.406-0.582
				L39.307,49.996c-0.714-0.715-1.871-0.715-2.584,0s-0.714,1.873,0,2.586l10.245,10.256c0.774,0.776,0.774,2.037,0,2.813
				c-0.772,0.774-2.034,0.775-2.808,0L3.12,24.571c-0.714-0.715-1.871-0.715-2.585,0c-0.714,0.714-0.714,1.873,0,2.587l9.998,10.007
				l-2.872,2.874c-0.94,0.941-1.459,2.193-1.459,3.524c0,1.332,0.519,2.584,1.459,3.524l0.937,0.938
				c0.822,0.823,1.881,1.321,3.023,1.435c0.113,1.144,0.611,2.203,1.434,3.025l0.937,0.939c0.843,0.844,1.918,1.32,3.022,1.431
				c0.111,1.145,0.611,2.206,1.435,3.029l0.937,0.938c0.822,0.822,1.881,1.322,3.021,1.434c0.113,1.145,0.613,2.204,1.434,3.027
				l0.938,0.938c0.97,0.973,2.246,1.457,3.52,1.457c1.275,0,2.549-0.484,3.521-1.457l2.872-2.874l6.883,6.89
				c1.065,1.065,2.482,1.654,3.989,1.654c1.506,0,2.924-0.589,3.988-1.654c1.01-1.011,1.582-2.34,1.641-3.758
				c1.419-0.059,2.744-0.631,3.754-1.643c1.041-1.041,1.582-2.392,1.639-3.758c1.365-0.057,2.715-0.6,3.755-1.641
				s1.583-2.391,1.638-3.76c1.367-0.057,2.716-0.598,3.755-1.639c2.2-2.203,2.2-5.785,0-7.986l-2.532-2.535l15.711-15.725
				C81.054,23.649,81.054,20.161,78.912,18.018z M10.246,44.501c-0.516-0.517-0.516-1.358,0-1.874l2.693-2.695l2.809,2.811
				l-2.693,2.697c-0.516,0.516-1.356,0.516-1.872,0L10.246,44.501z M15.64,49.9c-0.518-0.518-0.518-1.357,0-1.874l2.692-2.696
				l2.809,2.813l-2.691,2.695c-0.516,0.518-1.356,0.518-1.873,0L15.64,49.9z M21.032,55.299c-0.25-0.25-0.388-0.582-0.388-0.937
				c0-0.353,0.138-0.687,0.388-0.937l2.693-2.696l2.81,2.812l-2.693,2.697c-0.516,0.516-1.356,0.516-1.873,0L21.032,55.299z
				 M29.236,61.636c-0.516,0.519-1.356,0.517-1.873,0l-0.937-0.938c-0.516-0.516-0.516-1.357,0-1.873l2.693-2.696l2.81,2.813
				L29.236,61.636z M60.616,38.932L40.333,18.629c-0.303-0.304-0.705-0.491-1.133-0.529l-10.372-0.908
				c-0.054-0.004-0.107-0.005-0.161-0.005c-0.861,0-1.617,0.607-1.789,1.467l-0.832,4.127c-0.519,2.58-3.038,4.256-5.617,3.735
				c-1.248-0.251-2.325-0.975-3.03-2.036c-0.705-1.063-0.955-2.336-0.702-3.585l0.83-4.128c1.239-6.148,7.242-10.144,13.388-8.904
				c0.012,0.003,0.025,0.006,0.039,0.008l17.759,3.182L68.591,30.95L60.616,38.932z M76.328,23.207l-5.152,5.157L53.484,10.656
				c-0.348-0.348-0.538-0.81-0.538-1.302c0-0.491,0.19-0.953,0.538-1.301l3.853-3.855c0.347-0.347,0.81-0.539,1.3-0.539
				s0.952,0.192,1.3,0.539l16.392,16.407c0.346,0.347,0.537,0.81,0.537,1.301C76.865,22.397,76.674,22.859,76.328,23.207z"/>
			<path id="Fill-4" fill="#1046F1" d="M20.904,22.862c0,1.011-0.818,1.83-1.828,1.83c-1.008,0-1.827-0.819-1.827-1.83
				c0-1.009,0.819-1.828,1.827-1.828C20.086,21.034,20.904,21.853,20.904,22.862z"/>
		</g>
	</g>
</g>
</svg>
