<?xml version="1.0" encoding="utf-8"?>
<!-- Generator: Adobe Illustrator 22.0.0, SVG Export Plug-In . SVG Version: 6.00 Build 0)  -->
<svg version="1.1" id="Layer_1" xmlns="http://www.w3.org/2000/svg" xmlns:xlink="http://www.w3.org/1999/xlink" x="0px" y="0px"
	 viewBox="0 0 68 70" style="enable-background:new 0 0 68 70;" xml:space="preserve">
<style type="text/css">
	.st0{fill:#1046F1;}
	.st1{fill:#FFFFFF;}
</style>
<title>5D11EFC9-1C80-45EC-8EAB-FEBE43D5665F</title>
<desc>Created with sketchtool.</desc>
<polygon class="st0" points="67.9,0.3 0,0.3 0,3.8 3.9,3.8 3.9,40.5 64,40.5 64,3.8 67.9,3.8 "/>
<rect x="7.4" y="3.8" class="st1" width="53.1" height="33.2"/>
<path id="Fill-4" class="st0" d="M21.6,34c5.7,0,10.3-4.6,10.3-10.3v-1.8h-8.6v-8.6h-1.8c-5.7,0-10.3,4.6-10.3,10.3S15.9,34,21.6,34
	z M19.8,17.1v8.3h8.3c-0.8,2.9-3.4,5.1-6.6,5.1c-3.8,0-6.8-3.1-6.8-6.8C14.8,20.5,16.9,17.8,19.8,17.1z"/>
<path id="Fill-5" class="st0" d="M37.3,18.2c0-5.7-4.6-10.3-10.3-10.3h-1.8V20h12.1V18.2z M28.8,16.5v-4.8c2.3,0.6,4.2,2.5,4.8,4.8
	H28.8z"/>
<polygon id="Fill-6" class="st0" points="39.9,10 56.3,10 56.3,6.4 39.9,6.4 "/>
<polygon id="Fill-7" class="st0" points="39.9,17.6 56.3,17.6 56.3,14.1 39.9,14.1 "/>
<polygon id="Fill-8" class="st0" points="39.9,25.2 56.3,25.2 56.3,21.7 39.9,21.7 "/>
<polygon id="Fill-9" class="st0" points="39.9,32.8 56.3,32.8 56.3,29.3 39.9,29.3 "/>
<polygon id="Fill-10" class="st0" points="42.4,47 42.4,43.5 25.6,43.5 25.6,47 31.4,47 14.9,67.8 17.7,70 32.2,51.6 32.2,68.6 
	35.7,68.6 35.7,51.3 50.4,69.8 53.1,67.7 36.8,47 "/>
</svg>
