<svg xmlns="http://www.w3.org/2000/svg" xmlns:xlink="http://www.w3.org/1999/xlink" width="24" height="24" viewBox="0 0 24 24">
    <defs>
        <path id="a" d="M12 23C5.925 23 1 18.075 1 12S5.925 1 12 1s11 4.925 11 11-4.925 11-11 11zM10.033 9.332a1 1 0 1 1-1.886-.664A4 4 0 0 1 15.92 10c0 1.28-.758 2.29-1.945 3.082a7.575 7.575 0 0 1-1.739.867 1 1 0 1 1-.632-1.898 5.988 5.988 0 0 0 1.262-.633c.687-.459 1.054-.948 1.054-1.42a2 2 0 0 0-3.887-.666zM12 21a9 9 0 1 0 0-18 9 9 0 0 0 0 18zm0-3a1 1 0 1 1 0-2 1 1 0 0 1 0 2z"/>
    </defs>
    <g fill="none" fill-rule="evenodd">
        <path d="M0 0h24v24H0z"/>
        <mask id="b" fill="#fff">
            <use xlink:href="#a"/>
        </mask>
        <use fill="#000" fill-rule="nonzero" xlink:href="#a"/>
        <g fill="#333" mask="url(#b)">
            <path d="M0 0h24v24H0z"/>
        </g>
    </g>
</svg>
