<?xml version="1.0" encoding="utf-8"?>
<!-- Generator: Adobe Illustrator 16.0.0, SVG Export Plug-In . SVG Version: 6.00 Build 0)  -->
<!DOCTYPE svg PUBLIC "-//W3C//DTD SVG 1.1//EN" "http://www.w3.org/Graphics/SVG/1.1/DTD/svg11.dtd">
<svg version="1.1" id="Layer_1" xmlns="http://www.w3.org/2000/svg" xmlns:xlink="http://www.w3.org/1999/xlink" x="0px" y="0px"
	 width="24px" height="24px" viewBox="0 0 24 24" enable-background="new 0 0 24 24" xml:space="preserve">
<title>C77C0D40-C4B0-4A33-B397-8F37B9C694FA</title>
<desc>Created with sketchtool.</desc>
<g id="Symbols">
	<g id="Icons-_x2F_-24px-_x2F_-home">
		<g id="Combined-Shape">
			<path id="path-1_1_" fill="#1046F1" d="M4,9.489V20c0,0.553,0.448,1,1,1h14c0.553,0,1-0.447,1-1V9.489l-8-6.222L4,9.489z
				 M2.386,8.21l9-7c0.361-0.281,0.867-0.281,1.227,0l9,7C21.857,8.4,22,8.691,22,9v11c0,1.656-1.344,3-3,3H5c-1.657,0-3-1.344-3-3
				V9C2,8.691,2.143,8.4,2.386,8.21z M10,13h4v9c0,0.553,0.447,1,1,1s1-0.447,1-1V12c0-0.552-0.447-1-1-1H9c-0.552,0-1,0.448-1,1v10
				c0,0.553,0.448,1,1,1s1-0.447,1-1V13z"/>
		</g>
		<defs>
			<filter id="Adobe_OpacityMaskFilter" filterUnits="userSpaceOnUse" x="0" y="0" width="24" height="24">
				<feColorMatrix  type="matrix" values="1 0 0 0 0  0 1 0 0 0  0 0 1 0 0  0 0 0 1 0"/>
			</filter>
		</defs>
		<mask maskUnits="userSpaceOnUse" x="0" y="0" width="24" height="24" id="mask-2">
			<g filter="url(#Adobe_OpacityMaskFilter)">
				<path id="path-1" fill="#FFFFFF" d="M4,9.489V20c0,0.553,0.448,1,1,1h14c0.553,0,1-0.447,1-1V9.489l-8-6.222L4,9.489z
					 M2.386,8.21l9-7c0.361-0.281,0.867-0.281,1.227,0l9,7C21.857,8.4,22,8.691,22,9v11c0,1.656-1.344,3-3,3H5c-1.657,0-3-1.344-3-3
					V9C2,8.691,2.143,8.4,2.386,8.21z M10,13h4v9c0,0.553,0.447,1,1,1s1-0.447,1-1V12c0-0.552-0.447-1-1-1H9c-0.552,0-1,0.448-1,1
					v10c0,0.553,0.448,1,1,1s1-0.447,1-1V13z"/>
			</g>
		</mask>
		<g id="UI_x2F_Color_x2F_Flat_x2F_Black" mask="url(#mask-2)">
			<rect id="Base" fill="#1046F1" width="24" height="24"/>
		</g>
	</g>
</g>
</svg>
