<?xml version="1.0" encoding="utf-8"?>
<!-- Generator: Adobe Illustrator 22.0.0, SVG Export Plug-In . SVG Version: 6.00 Build 0)  -->
<svg version="1.1" id="Layer_1" xmlns="http://www.w3.org/2000/svg" xmlns:xlink="http://www.w3.org/1999/xlink" x="0px" y="0px"
	 viewBox="0 0 24 24" style="enable-background:new 0 0 24 24;" xml:space="preserve">
<style type="text/css">
	.st0{fill:#1046F1;}
	.st1{filter:url(#Adobe_OpacityMaskFilter);}
	.st2{fill:#FFFFFF;}
	.st3{mask:url(#b_1_);}
</style>
<g>
	<g>
		<path id="a_1_" class="st0" d="M4,9.5V20c0,0.6,0.4,1,1,1h14c0.6,0,1-0.4,1-1V9.5l-8-6.2L4,9.5L4,9.5z M2.4,8.2l9-7
			c0.4-0.3,0.9-0.3,1.2,0l9,7C21.9,8.4,22,8.7,22,9v11c0,1.7-1.3,3-3,3H5c-1.7,0-3-1.3-3-3V9C2,8.7,2.1,8.4,2.4,8.2z M10,13h4v9
			c0,0.6,0.4,1,1,1s1-0.4,1-1V12c0-0.6-0.4-1-1-1H9c-0.6,0-1,0.4-1,1v10c0,0.6,0.4,1,1,1s1-0.4,1-1V13z"/>
	</g>
	<defs>
		<filter id="Adobe_OpacityMaskFilter" filterUnits="userSpaceOnUse" x="0" y="0" width="24" height="24">
			<feColorMatrix  type="matrix" values="1 0 0 0 0  0 1 0 0 0  0 0 1 0 0  0 0 0 1 0"/>
		</filter>
	</defs>
	<mask maskUnits="userSpaceOnUse" x="0" y="0" width="24" height="24" id="b_1_">
		<g class="st1">
			<path id="a_2_" class="st2" d="M4,9.5V20c0,0.6,0.4,1,1,1h14c0.6,0,1-0.4,1-1V9.5l-8-6.2L4,9.5L4,9.5z M2.4,8.2l9-7
				c0.4-0.3,0.9-0.3,1.2,0l9,7C21.9,8.4,22,8.7,22,9v11c0,1.7-1.3,3-3,3H5c-1.7,0-3-1.3-3-3V9C2,8.7,2.1,8.4,2.4,8.2z M10,13h4v9
				c0,0.6,0.4,1,1,1s1-0.4,1-1V12c0-0.6-0.4-1-1-1H9c-0.6,0-1,0.4-1,1v10c0,0.6,0.4,1,1,1s1-0.4,1-1V13z"/>
		</g>
	</mask>
	<g class="st3">
		<path class="st0" d="M0,0h24v24H0V0z"/>
	</g>
</g>
</svg>
