<?xml version="1.0" encoding="UTF-8"?>
<svg width="28px" height="33px" viewBox="0 0 28 33" version="1.1" xmlns="http://www.w3.org/2000/svg" xmlns:xlink="http://www.w3.org/1999/xlink">
    <!-- Generator: sketchtool 49 (51002) - http://www.bohemiancoding.com/sketch -->
    <title>AA45BDBD-4FC3-4100-994B-EECAC3B80EF7</title>
    <desc>Created with sketchtool.</desc>
    <defs>
        <path d="M16,32.003335 L16,22.0022928 L12,22.0022928 L12,32.003335 L0,32.003335 L0,6.00062531 L2,6.00062531 L2,0 L10,0 L10,6.00062531 L12,6.00062531 L12,12.0012506 L16,12.0012506 L16,6.00062531 L18,6.00062531 L18,0 L26,0 L26,6.00062531 L28,6.00062531 L28,32.003335 L16,32.003335 Z M8,2.00020844 L4,2.00020844 L4,6.00062531 L8,6.00062531 L8,2.00020844 Z M10,8.00083375 L2,8.00083375 L2,24.0025013 L10,24.0025013 L10,8.00083375 Z M10,26.0027097 L2,26.0027097 L2,30.0031266 L10,30.0031266 L10,26.0027097 Z M16,14.0014591 L12,14.0014591 L12,20.0020844 L16,20.0020844 L16,14.0014591 Z M24,2.00020844 L20,2.00020844 L20,6.00062531 L24,6.00062531 L24,2.00020844 Z M26,8.00083375 L18,8.00083375 L18,24.0025013 L26,24.0025013 L26,8.00083375 Z M26,26.0027097 L18,26.0027097 L18,30.0031266 L26,30.0031266 L26,26.0027097 Z" id="path-1"></path>
    </defs>
    <g id="💻-Desktop-Web" stroke="none" stroke-width="1" fill="none" fill-rule="evenodd">
        <g id="1.3.3.Company-Detail_Features" transform="translate(-137.000000, -1675.000000)">
            <g id="2.-Icon-/-2.-Icon-Box-/-16-Size--/-ic_binoculars" transform="translate(137.000000, 1675.000000)">
                <mask id="mask-2" fill="white">
                    <use xlink:href="#path-1"></use>
                </mask>
                <use id="ic_binoculars" fill="#6F93F9" fill-rule="nonzero" xlink:href="#path-1"></use>
            </g>
        </g>
    </g>
</svg>