<?xml version="1.0" encoding="UTF-8"?>
<svg width="22px" height="32px" viewBox="0 0 22 32" version="1.1" xmlns="http://www.w3.org/2000/svg" xmlns:xlink="http://www.w3.org/1999/xlink">
    <!-- Generator: sketchtool 49 (51002) - http://www.bohemiancoding.com/sketch -->
    <title>4FB01995-3A43-4C02-AB69-D51161BC7662</title>
    <desc>Created with sketchtool.</desc>
    <defs></defs>
    <g id="💻-Desktop-Web" stroke="none" stroke-width="1" fill="none" fill-rule="evenodd">
        <g id="1.3.3.Company-Detail_Features" transform="translate(-739.000000, -1528.000000)" fill="#6F93F9" fill-rule="nonzero">
            <path d="M761,1556.00028 L761,1558.0003 C761,1559.10632 760.104,1560.00233 759,1560.00233 L741,1560.00233 C739.894,1560.00233 739,1559.10632 739,1558.0003 L739,1556.00028 C739,1554.89627 739.894,1554.00026 741,1554.00026 L743,1554.00026 L739,1546.00018 L750,1528 L761,1546.00018 L757,1554.00026 L759,1554.00026 C760.104,1554.00026 761,1554.89427 761,1556.00028 Z M759,1545.78618 L751,1532.64205 L751,1538.0001 L749,1538.0001 L749,1532.66605 L741,1546.00018 L745,1554.00026 L754.978,1554.00026 L759,1545.78618 Z M758,1556.00028 L742,1556.00028 C741.448,1556.00028 741,1556.44829 741,1557.00029 C741,1557.5523 741.448,1558.0003 742,1558.0003 L758,1558.0003 C758.55,1558.0003 759,1557.5523 759,1557.00029 C759,1556.44829 758.55,1556.00028 758,1556.00028 Z M750,1552.00024 C747.238,1552.00024 745,1549.76022 745,1547.00019 C745,1544.24016 747.238,1542.00014 750,1542.00014 C752.762,1542.00014 755,1544.23816 755,1547.00019 C755,1549.76022 752.762,1552.00024 750,1552.00024 Z M750,1543.99816 C748.344,1543.99816 747,1545.34218 747,1546.99819 C747,1548.65621 748.344,1549.99822 750,1549.99822 C751.656,1549.99822 753,1548.65421 753,1546.99819 C753,1545.34218 751.656,1543.99816 750,1543.99816 Z" id="ic_fountain-pen"></path>
        </g>
    </g>
</svg>