<?xml version="1.0" encoding="UTF-8"?>
<svg width="32px" height="32px" viewBox="0 0 32 32" version="1.1" xmlns="http://www.w3.org/2000/svg" xmlns:xlink="http://www.w3.org/1999/xlink">
    <!-- Generator: sketchtool 49 (51002) - http://www.bohemiancoding.com/sketch -->
    <title>8D5C2585-7CA5-447E-8BBB-DA50DA223C20</title>
    <desc>Created with sketchtool.</desc>
    <defs></defs>
    <g id="💻-Desktop-Web" stroke="none" stroke-width="1" fill="none" fill-rule="evenodd">
        <g id="1.3.3.Company-Detail_Features" transform="translate(-739.000000, -1675.000000)" fill="#6F93F9" fill-rule="nonzero">
            <path d="M768.791651,1694.14571 C768.917649,1694.40571 768.999648,1694.6897 768.999648,1694.9997 L768.999648,1698.99764 L768.999648,1700.99961 L768.999648,1702.99758 C768.999648,1704.10556 768.103659,1704.99955 766.999672,1704.99955 L765.999684,1704.99955 L765.999684,1706.99752 L763.999707,1706.99752 L763.999707,1704.99955 L756.999789,1704.99955 L752.999836,1704.99955 L745.999918,1704.99955 L745.999918,1706.99752 L743.999941,1706.99752 L743.999941,1704.99955 L742.999953,1704.99955 C741.893966,1704.99955 740.999977,1704.10556 740.999977,1702.99758 L740.999977,1700.99961 L740.999977,1698.99764 L740.999977,1694.9997 C740.999977,1694.6917 741.081976,1694.40571 741.207974,1694.14571 C739.87599,1693.24773 739,1691.72575 739,1689.99977 C739,1687.58181 740.71798,1685.56384 742.999953,1685.09985 L742.999953,1684.99785 C742.999953,1679.47593 747.475901,1675 752.999836,1675 L756.999789,1675 C762.523724,1675 766.999672,1679.47593 766.999672,1684.99785 L766.999672,1685.09985 C769.281645,1685.56384 770.999625,1687.58181 770.999625,1689.99977 C770.999625,1691.72575 770.125635,1693.24773 768.791651,1694.14571 Z M742.999953,1701.9976 C742.999953,1702.55159 743.447948,1702.99758 743.999941,1702.99758 L745.999918,1702.99758 L763.999707,1702.99758 L765.999684,1702.99758 C766.549677,1702.99758 766.999672,1702.55159 766.999672,1701.9976 L766.999672,1700.99961 L742.999953,1700.99961 L742.999953,1701.9976 Z M766.999672,1698.99764 L766.999672,1695.99769 C766.999672,1695.44769 766.549677,1694.9997 765.999684,1694.9997 C764.993695,1694.9997 764.061706,1694.6977 763.279715,1694.18771 C761.16374,1693.63172 758.101776,1692.99973 754.999812,1692.99973 C751.899849,1692.99973 748.833885,1693.63172 746.71791,1694.18971 C745.931919,1694.6977 745.00393,1694.9997 743.999941,1694.9997 C743.447948,1694.9997 742.999953,1695.44769 742.999953,1695.99769 L742.999953,1698.99764 L766.999672,1698.99764 Z M740.999977,1689.99977 C740.999977,1691.65575 742.343961,1692.99973 743.999941,1692.99973 C745.655922,1692.99973 746.999906,1691.65575 746.999906,1689.99977 C746.999906,1688.3418 745.655922,1686.99982 743.999941,1686.99982 C742.343961,1686.99982 740.999977,1688.3418 740.999977,1689.99977 Z M764.999695,1684.99785 C764.999695,1680.57992 761.417737,1676.99797 756.999789,1676.99797 L752.999836,1676.99797 C748.581888,1676.99797 744.99993,1680.57992 744.99993,1684.99785 L744.99993,1685.09985 C747.281903,1685.56384 748.999883,1687.58181 748.999883,1689.99977 C748.999883,1690.57177 748.881884,1691.11376 748.707886,1691.62375 C750.617864,1691.27976 752.791838,1690.99976 754.999812,1690.99976 C757.221786,1690.99976 759.389761,1691.27576 761.291739,1691.61775 C761.115741,1691.10776 760.999742,1690.56977 760.999742,1689.99977 C760.999742,1687.58181 762.717722,1685.56384 764.999695,1685.09985 L764.999695,1684.99785 Z M765.999684,1686.99982 C764.343703,1686.99982 762.999719,1688.3418 762.999719,1689.99977 C762.999719,1691.65575 764.343703,1692.99973 765.999684,1692.99973 C767.655664,1692.99973 768.999648,1691.65575 768.999648,1689.99977 C768.999648,1688.3418 767.655664,1686.99982 765.999684,1686.99982 Z" id="ic_sofa"></path>
        </g>
    </g>
</svg>