<?xml version="1.0" encoding="utf-8"?>
<!-- Generator: Adobe Illustrator 22.0.0, SVG Export Plug-In . SVG Version: 6.00 Build 0)  -->
<svg version="1.1" id="Layer_1" xmlns="http://www.w3.org/2000/svg" xmlns:xlink="http://www.w3.org/1999/xlink" x="0px" y="0px"
	 viewBox="0 0 24 24" style="enable-background:new 0 0 24 24;" xml:space="preserve">
<style type="text/css">
	.st0{fill:#0A090B;}
	.st1{filter:url(#Adobe_OpacityMaskFilter);}
	.st2{fill:#FFFFFF;}
	.st3{mask:url(#b_1_);}
	.st4{fill:#00B79D;}
</style>
<g>
	<g>
		<path id="a_1_" class="st0" d="M20.1,18.1H4.9V5.9h1.9v6.5c0,0.5,0.4,0.9,0.9,0.9c0.2,0,0.3,0,0.5-0.1l5.2-2.9v2.1
			c0,0.5,0.4,0.9,0.9,0.9c0.2,0,0.3,0,0.5-0.1l5.2-2.9C20.1,10.2,20.1,18.1,20.1,18.1z M20.6,7.8l-5.2,2.9V8.6
			c0-0.5-0.4-0.9-0.9-0.9c0,0,0,0,0,0c-0.2,0-0.3,0-0.5,0.1l-5.2,2.9V4.9C8.7,4.4,8.3,4,7.8,4c0,0,0,0,0,0H4C3.4,4,3,4.4,3,4.9
			c0,0,0,0,0,0v14.1C3,19.6,3.4,20,3.9,20H21c0.5,0,1-0.4,1-0.9V8.6c0-0.3-0.2-0.6-0.5-0.8C21.2,7.7,20.9,7.7,20.6,7.8z"/>
	</g>
	<defs>
		<filter id="Adobe_OpacityMaskFilter" filterUnits="userSpaceOnUse" x="0" y="0" width="24" height="24">
			<feColorMatrix  type="matrix" values="1 0 0 0 0  0 1 0 0 0  0 0 1 0 0  0 0 0 1 0"/>
		</filter>
	</defs>
	<mask maskUnits="userSpaceOnUse" x="0" y="0" width="24" height="24" id="b_1_">
		<g class="st1">
			<path id="a_2_" class="st2" d="M20.1,18.1H4.9V5.9h1.9v6.5c0,0.5,0.4,0.9,0.9,0.9c0.2,0,0.3,0,0.5-0.1l5.2-2.9v2.1
				c0,0.5,0.4,0.9,0.9,0.9c0.2,0,0.3,0,0.5-0.1l5.2-2.9C20.1,10.2,20.1,18.1,20.1,18.1z M20.6,7.8l-5.2,2.9V8.6
				c0-0.5-0.4-0.9-0.9-0.9c0,0,0,0,0,0c-0.2,0-0.3,0-0.5,0.1l-5.2,2.9V4.9C8.7,4.4,8.3,4,7.8,4c0,0,0,0,0,0H4C3.4,4,3,4.4,3,4.9
				c0,0,0,0,0,0v14.1C3,19.6,3.4,20,3.9,20H21c0.5,0,1-0.4,1-0.9V8.6c0-0.3-0.2-0.6-0.5-0.8C21.2,7.7,20.9,7.7,20.6,7.8z"/>
		</g>
	</mask>
	<g class="st3">
		<path class="st4" d="M0,0h24v24H0V0z"/>
	</g>
</g>
</svg>
