<?xml version="1.0" encoding="utf-8"?>
<!-- Generator: Adobe Illustrator 16.0.0, SVG Export Plug-In . SVG Version: 6.00 Build 0)  -->
<!DOCTYPE svg PUBLIC "-//W3C//DTD SVG 1.1//EN" "http://www.w3.org/Graphics/SVG/1.1/DTD/svg11.dtd">
<svg version="1.1" id="Layer_1" xmlns="http://www.w3.org/2000/svg" xmlns:xlink="http://www.w3.org/1999/xlink" x="0px" y="0px"
	 width="60px" height="60px" viewBox="0 0 60 60" enable-background="new 0 0 60 60" xml:space="preserve">
<g>
	<path fill-rule="evenodd" clip-rule="evenodd" fill="#1046F1" d="M0.781,38.324c0.26-0.198,0.503-0.436,0.784-0.592
		c4.474-2.479,8.953-4.946,13.431-7.415c0.068-0.038,0.136-0.075,0.205-0.109c0.768-0.391,1.279-0.057,1.287,0.878
		c0.015,1.827,0.004,3.654,0.004,5.481c0,0.224,0,0.446,0,0.744c0.258-0.133,0.445-0.221,0.627-0.321
		c4.018-2.214,8.036-4.43,12.054-6.644c0.169-0.093,0.338-0.195,0.517-0.26c0.462-0.168,0.839,0.055,0.953,0.575
		c0.053,0.242,0.063,0.498,0.063,0.748c0.005,1.929,0.003,3.858,0.003,5.917c0.577-0.314,1.075-0.586,1.573-0.859
		c0.525-0.287,1.039-0.608,1.58-0.856c0.381-0.175,0.473-0.436,0.473-0.866c-0.012-6.236-0.008-12.473-0.008-18.709
		c0-1.334,0.166-1.514,1.387-1.514c0.588,0,1.178-0.006,1.766,0.001c0.764,0.009,1.016,0.291,1.017,1.145
		c0.001,5.523,0,11.046,0,16.568c0,0.231,0,0.46,0,0.804c1.14-0.629,2.221-1.209,3.285-1.83c0.111-0.065,0.156-0.359,0.159-0.55
		c0.115-4.765,0.223-9.529,0.324-14.295c0.1-4.681,0.188-9.362,0.294-14.042c0.025-1.135,0.198-1.294,1.227-1.294
		c1.843-0.001,3.684-0.001,5.526,0c0.94,0,1.132,0.214,1.155,1.234c0.223,10.412,0.447,20.824,0.672,31.237
		c0.002,0.1,0.018,0.202,0.032,0.37c0.201-0.101,0.37-0.178,0.535-0.269c2.001-1.104,4-2.21,6.002-3.312
		c0.974-0.537,1.417-0.223,1.417,0.998c0,8.65,0,17.302,0,25.953c0,1.023-0.203,1.245-1.139,1.245c-18.686,0-37.371,0-56.055,0.007
		c-0.466,0-0.857-0.083-1.15-0.507C0.781,51.43,0.781,44.878,0.781,38.324z M43.404,32.194c-0.308,0.163-0.523,0.276-0.738,0.394
		c-3.971,2.191-7.94,4.383-11.909,6.572c-1.104,0.609-1.562,0.302-1.563-1.044c-0.002-1.722,0-3.444,0-5.166
		c0-0.218,0-0.438,0-0.744c-0.291,0.146-0.479,0.231-0.661,0.332c-4.037,2.225-8.07,4.452-12.106,6.678
		c-0.972,0.535-1.422,0.225-1.424-0.983C14.998,36.468,15,34.704,15,32.939c0-0.219,0-0.435,0-0.725
		c-0.222,0.096-0.347,0.137-0.461,0.199c-3.967,2.187-7.932,4.38-11.905,6.553c-0.344,0.189-0.383,0.438-0.382,0.799
		C2.26,45.248,2.257,50.73,2.258,56.212c0,0.201,0.018,0.402,0.026,0.588c18.483,0,36.911,0,55.334,0c0-8.207,0-16.368,0-24.591
		c-0.215,0.108-0.385,0.19-0.55,0.281c-4.073,2.243-8.145,4.488-12.217,6.731c-0.971,0.533-1.445,0.214-1.446-0.969
		C43.403,36.279,43.404,34.307,43.404,32.194z M44.035,2.692c-0.19,9.176-0.38,18.322-0.57,27.481
		c1.246-0.271,1.439-0.087,1.44,1.291c0.001,1.429,0,2.857,0,4.285c0,0.49,0,0.983,0,1.558c0.263-0.132,0.434-0.212,0.6-0.305
		c1.188-0.65,2.365-1.329,3.568-1.949c0.46-0.235,0.613-0.51,0.601-1.085c-0.241-10.286-0.458-20.57-0.681-30.854
		c-0.003-0.139-0.028-0.278-0.044-0.422C47.307,2.692,45.7,2.692,44.035,2.692z M35.883,16.207c0,6.083,0,12.13,0,18.188
		c1.139-0.366,1.139-0.366,1.139-1.551c0-5.308,0-10.617,0-15.926c0-0.239,0-0.479,0-0.712
		C36.585,16.207,36.25,16.207,35.883,16.207z"/>
	<path fill-rule="evenodd" clip-rule="evenodd" fill="#1046F1" d="M10.697,49.722c0-0.715-0.006-1.428,0.001-2.143
		c0.007-0.653,0.228-0.968,0.793-0.991c0.891-0.035,1.785-0.024,2.676-0.005c0.491,0.013,0.796,0.333,0.804,0.871
		c0.022,1.49,0.028,2.98,0.001,4.472c-0.012,0.623-0.31,0.881-0.889,0.887c-0.836,0.009-1.672,0.009-2.507,0
		c-0.613-0.009-0.868-0.282-0.878-0.948C10.689,51.149,10.697,50.435,10.697,49.722z M12.208,48.283c0,0.995,0,1.926,0,2.866
		c0.428,0,0.817,0,1.23,0c0-0.968,0-1.898,0-2.866C13.019,48.283,12.63,48.283,12.208,48.283z"/>
	<path fill-rule="evenodd" clip-rule="evenodd" fill="#1046F1" d="M32.799,49.671c0,0.733,0.01,1.471-0.002,2.204
		c-0.011,0.638-0.266,0.927-0.833,0.936c-0.854,0.013-1.708,0.011-2.563,0.002c-0.576-0.006-0.868-0.27-0.879-0.898
		c-0.026-1.471-0.019-2.939-0.002-4.41c0.006-0.565,0.298-0.908,0.819-0.921c0.873-0.021,1.747-0.03,2.621,0
		c0.603,0.022,0.83,0.326,0.837,1.009C32.805,48.285,32.799,48.979,32.799,49.671z M31.291,51.167c0-0.998,0-1.932,0-2.865
		c-0.434,0-0.836,0-1.218,0c0,0.987,0,1.917,0,2.865C30.495,51.167,30.87,51.167,31.291,51.167z"/>
	<path fill-rule="evenodd" clip-rule="evenodd" fill="#1046F1" d="M16.629,49.713c0-0.713-0.009-1.423,0.002-2.136
		c0.01-0.647,0.242-0.966,0.802-0.989c0.889-0.035,1.779-0.027,2.669-0.005c0.548,0.016,0.823,0.382,0.826,0.977
		c0.008,1.425,0.014,2.849-0.002,4.273c-0.007,0.688-0.295,0.974-0.922,0.979c-0.833,0.007-1.667,0.009-2.5-0.002
		c-0.59-0.007-0.859-0.3-0.872-0.962C16.619,51.137,16.629,50.426,16.629,49.713z M19.391,51.161c0-1.008,0-1.937,0-2.861
		c-0.445,0-0.847,0-1.243,0c0,0.986,0,1.913,0,2.861C18.578,51.161,18.968,51.161,19.391,51.161z"/>
	<path fill-rule="evenodd" clip-rule="evenodd" fill="#1046F1" d="M26.868,49.732c0,0.691,0.007,1.384-0.002,2.073
		c-0.01,0.703-0.274,1.001-0.893,1.007c-0.853,0.009-1.705-0.004-2.557,0.002c-0.54,0.005-0.832-0.323-0.842-0.875
		c-0.026-1.487-0.019-2.974-0.003-4.462c0.006-0.537,0.292-0.875,0.782-0.888c0.908-0.026,1.818-0.029,2.726,0
		c0.515,0.018,0.786,0.365,0.787,0.944C26.87,48.267,26.868,48.998,26.868,49.732z M24.106,48.281c0,0.98,0,1.924,0,2.87
		c0.439,0,0.83,0,1.237,0c0-0.976,0-1.922,0-2.87C24.907,48.281,24.517,48.281,24.106,48.281z"/>
	<path fill-rule="evenodd" clip-rule="evenodd" fill="#1046F1" d="M4.755,49.703c0-0.712-0.009-1.427,0.003-2.142
		c0.01-0.654,0.232-0.952,0.804-0.977c0.891-0.032,1.784-0.024,2.676,0.003c0.484,0.015,0.773,0.323,0.775,0.884
		c0.005,1.49,0.012,2.98-0.001,4.471c-0.005,0.58-0.297,0.877-0.833,0.872c-0.854-0.004-1.709,0.009-2.563-0.004
		c-0.609-0.007-0.847-0.274-0.858-0.966C4.746,51.13,4.755,50.417,4.755,49.703z M6.272,48.269c0,1.002,0,1.933,0,2.883
		c0.419,0,0.806,0,1.208,0c0-0.979,0-1.924,0-2.883C7.063,48.269,6.689,48.269,6.272,48.269z"/>
	<path fill-rule="evenodd" clip-rule="evenodd" fill="none" d="M12.208,48.283c0.422,0,0.811,0,1.23,0c0,0.968,0,1.898,0,2.866
		c-0.414,0-0.803,0-1.23,0C12.208,50.209,12.208,49.278,12.208,48.283z"/>
	<path fill-rule="evenodd" clip-rule="evenodd" fill="none" d="M31.291,51.167c-0.421,0-0.796,0-1.218,0c0-0.948,0-1.878,0-2.865
		c0.382,0,0.784,0,1.218,0C31.291,49.235,31.291,50.169,31.291,51.167z"/>
	<path fill-rule="evenodd" clip-rule="evenodd" fill="none" d="M19.391,51.161c-0.423,0-0.813,0-1.243,0c0-0.948,0-1.875,0-2.861
		c0.396,0,0.798,0,1.243,0C19.391,49.225,19.391,50.153,19.391,51.161z"/>
	<path fill-rule="evenodd" clip-rule="evenodd" fill="none" d="M24.106,48.281c0.41,0,0.801,0,1.237,0c0,0.948,0,1.895,0,2.87
		c-0.407,0-0.797,0-1.237,0C24.106,50.205,24.106,49.262,24.106,48.281z"/>
	<path fill-rule="evenodd" clip-rule="evenodd" fill="none" d="M6.272,48.269c0.417,0,0.791,0,1.208,0c0,0.959,0,1.904,0,2.883
		c-0.402,0-0.789,0-1.208,0C6.272,50.201,6.272,49.271,6.272,48.269z"/>
</g>
</svg>
