<?xml version="1.0" encoding="utf-8"?>
<!-- Generator: Adobe Illustrator 16.0.0, SVG Export Plug-In . SVG Version: 6.00 Build 0)  -->
<!DOCTYPE svg PUBLIC "-//W3C//DTD SVG 1.1//EN" "http://www.w3.org/Graphics/SVG/1.1/DTD/svg11.dtd">
<svg version="1.1" id="Layer_1" xmlns="http://www.w3.org/2000/svg" xmlns:xlink="http://www.w3.org/1999/xlink" x="0px" y="0px"
	 width="60px" height="60px" viewBox="0 0 60 60" enable-background="new 0 0 60 60" xml:space="preserve">
<g>
	<path fill-rule="evenodd" clip-rule="evenodd" fill="#1046F1" d="M59.498,23.996c0.007,0.496-0.16,0.906-0.55,1.235
		c-1.878,1.596-3.749,3.199-5.623,4.799c-0.496,0.423-1.067,0.556-1.695,0.409c-1.211-0.285-1.995-1.026-2.306-2.239
		c-0.163-0.64-0.032-1.23,0.396-1.742c1.582-1.89,3.17-3.775,4.745-5.669c0.339-0.407,0.763-0.584,1.27-0.584
		C57.51,20.205,59.497,22.21,59.498,23.996z"/>
	<path fill-rule="evenodd" clip-rule="evenodd" fill="#1046F1" d="M0.525,23.952c0.025-1.752,1.958-3.705,3.713-3.742
		c0.522-0.01,0.964,0.159,1.316,0.581c1.564,1.883,3.139,3.757,4.715,5.63c0.454,0.54,0.578,1.145,0.417,1.823
		c-0.279,1.169-1.332,2.11-2.518,2.235c-0.551,0.058-1.045-0.083-1.473-0.449c-1.884-1.611-3.768-3.221-5.654-4.827
		C0.65,24.87,0.51,24.445,0.525,23.952z"/>
	<path fill-rule="evenodd" clip-rule="evenodd" fill="#1046F1" d="M11.917,14.431c1.179-0.003,1.797,0.347,2.176,1.201
		c0.938,2.11,1.933,4.195,2.903,6.291c0.466,1.006,0.32,1.905-0.427,2.654c-0.782,0.784-2.028,1.068-2.917,0.601
		c-0.319-0.168-0.618-0.446-0.823-0.745c-1.353-1.966-2.664-3.96-4.018-5.925c-0.452-0.654-0.475-1.299-0.112-1.956
		C9.459,15.179,10.676,14.532,11.917,14.431z"/>
	<path fill-rule="evenodd" clip-rule="evenodd" fill="#1046F1" d="M48.271,14.468c1.07,0.102,2.242,0.723,2.989,2.014
		c0.391,0.677,0.39,1.352-0.085,2.039c-1.34,1.939-2.641,3.905-3.961,5.857c-0.714,1.055-1.969,1.303-3.155,0.633
		c-1.163-0.657-1.585-1.849-1.054-2.998c0.975-2.11,1.979-4.208,2.92-6.334C46.318,14.79,46.949,14.421,48.271,14.468z"/>
	<path fill-rule="evenodd" clip-rule="evenodd" fill="#1046F1" d="M22.116,22.359c-1.091,0-1.82-0.523-2.179-1.562
		c-0.77-2.224-1.527-4.453-2.317-6.67c-0.277-0.778-0.131-1.439,0.432-1.994c1.089-1.07,2.405-1.407,3.876-1.027
		c0.774,0.2,1.247,0.695,1.387,1.542c0.38,2.292,0.816,4.576,1.226,6.863C24.828,21.12,23.769,22.359,22.116,22.359z"/>
	<path fill-rule="evenodd" clip-rule="evenodd" fill="#1046F1" d="M32.93,12.133c-0.197,2.527-0.379,4.907-0.57,7.286
		c-0.118,1.464-1.82,2.365-3.32,1.755c-0.841-0.343-1.326-0.947-1.394-1.886c-0.171-2.396-0.354-4.792-0.559-7.185
		c-0.065-0.752,0.229-1.286,0.818-1.698c1.143-0.8,3.06-0.799,4.208-0.002C32.771,10.861,33.077,11.469,32.93,12.133z"/>
	<path fill-rule="evenodd" clip-rule="evenodd" fill="#1046F1" d="M39.119,10.983c1.159,0.049,2.177,0.398,2.944,1.297
		c0.445,0.521,0.566,1.103,0.332,1.772c-0.796,2.265-1.57,4.537-2.357,6.803c-0.394,1.133-1.521,1.714-2.731,1.418
		c-1.287-0.314-2.033-1.285-1.829-2.504c0.407-2.457,0.855-4.907,1.303-7.358c0.136-0.741,0.795-1.251,1.716-1.382
		C38.704,11,38.917,10.997,39.119,10.983z"/>
	<path fill-rule="evenodd" clip-rule="evenodd" fill="#1046F1" d="M27.45,41.838c0.085-1.121,0.162-2.17,0.246-3.217
		c0.227-2.834,0.457-5.664,0.685-8.496c0.041-0.497,0.068-0.995,0.115-1.492c0.08-0.861,0.695-1.453,1.502-1.46
		c0.808-0.006,1.455,0.582,1.524,1.436c0.347,4.262,0.681,8.525,1.019,12.787c0.01,0.119,0.001,0.24,0.001,0.42
		C30.853,40.998,29.179,40.984,27.45,41.838z"/>
	<path fill-rule="evenodd" clip-rule="evenodd" fill="#1046F1" d="M30.004,51.023c-2.495,0-4.5-2.004-4.501-4.496
		c-0.001-2.482,2.02-4.494,4.511-4.492c2.491,0.004,4.507,2.02,4.502,4.502C34.512,49.025,32.5,51.027,30.004,51.023z
		 M29.471,43.049c-1.685,0.107-3.069,1.785-3.029,3.598c0.038,1.693,1.492,3.338,3.021,3.352c-1.026-0.959-1.443-2.137-1.441-3.477
		C28.023,45.184,28.454,44.012,29.471,43.049z"/>
</g>
</svg>
