<?xml version="1.0" encoding="utf-8"?>
<!-- Generator: Adobe Illustrator 16.0.0, SVG Export Plug-In . SVG Version: 6.00 Build 0)  -->
<!DOCTYPE svg PUBLIC "-//W3C//DTD SVG 1.1//EN" "http://www.w3.org/Graphics/SVG/1.1/DTD/svg11.dtd">
<svg version="1.1" id="Layer_1" xmlns="http://www.w3.org/2000/svg" xmlns:xlink="http://www.w3.org/1999/xlink" x="0px" y="0px"
	 width="60px" height="60px" viewBox="0 0 60 60" enable-background="new 0 0 60 60" xml:space="preserve">
<g>
	<path fill-rule="evenodd" clip-rule="evenodd" fill="#231F20" d="M12.33,47.918C8.975,36.256,5.633,24.637,2.278,12.972
		C13.941,9.617,25.56,6.275,37.225,2.919c3.354,11.665,6.696,23.283,10.052,34.946C35.613,41.221,23.995,44.563,12.33,47.918z
		 M13.446,39.346c9.46-2.723,18.9-5.438,28.372-8.162c-0.23-0.792-0.438-1.509-0.662-2.279c-3.701,1.062-7.354,2.109-11.006,3.156
		c-0.028-0.037-0.057-0.074-0.085-0.111c1.262-1.59,1.795-3.472,2.238-5.392c0.063-0.274,0.164-0.54,0.257-0.807
		c0.142-0.41,0.388-0.638,0.867-0.66c0.894-0.04,1.505-0.479,1.802-1.368c0.328-0.978,0.619-1.046,1.459-0.426
		c0.167,0.123,0.326,0.258,0.473,0.404c0.832,0.823,1.657,1.653,2.491,2.474c0.271,0.268,0.564,0.515,0.848,0.771
		c0.027-0.021,0.055-0.043,0.082-0.064c-1.894-6.58-3.787-13.16-5.685-19.755c-9.511,2.735-18.943,5.448-28.412,8.172
		c1.91,6.64,3.806,13.231,5.736,19.941c1.296-1.947,2.614-3.732,3.309-5.848c0.569-1.734,1.002-3.514,1.479-5.277
		c0.269-0.992,0.772-1.569,1.918-1.605c1.252-0.04,2.148-0.736,2.549-1.977c0.092-0.287,0.196-0.571,0.318-0.847
		c0.324-0.726,0.82-0.932,1.497-0.513c0.604,0.374,1.172,0.828,1.688,1.318c1.969,1.872,3.915,3.769,5.854,5.673
		c0.122,0.12,0.171,0.392,0.142,0.576c-0.327,2.066-1.311,3.838-2.542,5.485c-0.174,0.234-0.461,0.449-0.738,0.531
		c-4.775,1.395-9.557,2.766-14.337,4.145c-0.191,0.055-0.38,0.115-0.599,0.182c0.197,0.699,0.374,1.334,0.555,1.967
		C13.339,39.135,13.388,39.217,13.446,39.346z"/>
	<path fill-rule="evenodd" clip-rule="evenodd" fill="#231F20" d="M24.428,46.795c8.458-2.432,16.916-4.865,25.284-7.271
		c-0.102,0.689-0.234,1.344-0.288,2.004c-0.19,2.35-0.353,4.701-0.534,7.17c-8.167-0.604-16.308-1.203-24.45-1.805
		C24.436,46.859,24.432,46.828,24.428,46.795z"/>
	<path fill-rule="evenodd" clip-rule="evenodd" fill="#231F20" d="M47.912,15.582c-0.732-0.061-1.441-0.124-2.151-0.176
		c-0.733-0.054-1.471-0.077-2.2-0.163c-0.19-0.022-0.466-0.196-0.519-0.359c-0.325-1-0.599-2.019-0.922-3.146
		c3.178,0.234,6.283,0.463,9.449,0.696c-0.623,8.428-1.242,16.804-1.86,25.182c-0.044,0.006-0.088,0.012-0.132,0.018
		c-0.162-0.543-0.327-1.084-0.484-1.627c-0.673-2.336-1.35-4.67-2.008-7.009c-0.079-0.281-0.089-0.595-0.068-0.89
		c0.292-4.064,0.595-8.129,0.895-12.193C47.918,15.822,47.912,15.729,47.912,15.582z"/>
	<path fill-rule="evenodd" clip-rule="evenodd" fill="#231F20" d="M43.896,50.602c-1.188,2.195-2.333,4.313-3.505,6.479
		c-4.75-2.568-9.465-5.119-14.182-7.67c0.009-0.039,0.019-0.076,0.028-0.113C32.098,49.73,37.959,50.162,43.896,50.602z"/>
	<path fill-rule="evenodd" clip-rule="evenodd" fill="#231F20" d="M52.171,35.09c0.116-1.627,0.232-3.252,0.35-4.878
		c0.061-0.845,0.112-1.691,0.192-2.535c0.027-0.293,0.144-0.577,0.188-0.87c0.023-0.151-0.018-0.312-0.035-0.468
		c-0.008-0.073-0.044-0.146-0.039-0.217c0.083-1.139,0.171-2.278,0.265-3.509c1.565,0.845,3.063,1.654,4.603,2.486
		c-1.82,3.365-3.623,6.697-5.426,10.029C52.235,35.115,52.203,35.102,52.171,35.09z"/>
	<path fill-rule="evenodd" clip-rule="evenodd" fill="#231F20" d="M12.895,15.949c1.576,0.017,2.869,1.326,2.862,2.897
		c-0.008,1.555-1.345,2.882-2.898,2.875c-1.596-0.007-2.884-1.324-2.875-2.94C9.993,17.209,11.306,15.933,12.895,15.949z"/>
</g>
</svg>
