<?xml version="1.0" encoding="utf-8"?>
<!-- Generator: Adobe Illustrator 16.0.0, SVG Export Plug-In . SVG Version: 6.00 Build 0)  -->
<!DOCTYPE svg PUBLIC "-//W3C//DTD SVG 1.1//EN" "http://www.w3.org/Graphics/SVG/1.1/DTD/svg11.dtd">
<svg version="1.1" id="Layer_1" xmlns="http://www.w3.org/2000/svg" xmlns:xlink="http://www.w3.org/1999/xlink" x="0px" y="0px"
	 width="60px" height="60px" viewBox="0 0 60 60" enable-background="new 0 0 60 60" xml:space="preserve">
<g>
	<path fill-rule="evenodd" clip-rule="evenodd" fill="#231F20" d="M27.646,24.583c5.989,0,11.977,0,17.966,0
		c0.158,0,0.317-0.008,0.475,0.004c0.849,0.065,1.324,0.551,1.373,1.4c0.008,0.126,0.004,0.253,0.004,0.38
		c0,5.751,0.001,11.502-0.003,17.253c0,0.252-0.004,0.513-0.064,0.754c-0.125,0.498-0.44,0.837-0.961,0.933
		c-0.247,0.046-0.502,0.069-0.754,0.069c-12.057,0.003-24.113,0.003-36.169,0c-0.22,0-0.442-0.02-0.659-0.058
		c-0.587-0.103-0.956-0.477-1.056-1.062c-0.029-0.17-0.04-0.346-0.04-0.52c-0.002-5.83-0.004-11.66,0.005-17.491
		c0-0.309,0.04-0.644,0.164-0.921c0.267-0.596,0.816-0.743,1.421-0.743c1.631,0,3.263,0,4.895,0
		C18.71,24.583,23.178,24.583,27.646,24.583z M44.813,27.264c-11.488,0-22.932,0-34.383,0c0,5.165,0,10.29,0,15.43
		c11.475,0,22.92,0,34.383,0C44.813,37.543,44.813,32.429,44.813,27.264z"/>
	<path fill-rule="evenodd" clip-rule="evenodd" fill="#231F20" d="M56.328,9.278c-10.399,0-20.756,0-31.178,0
		c0,0.207,0,0.391,0,0.575c0,3.438,0,6.877,0,10.315c0,1.089-0.458,1.686-1.297,1.696c-0.858,0.01-1.339-0.603-1.339-1.709
		c0-3.945,0-7.891,0-11.837c0-1.212,0.491-1.713,1.69-1.713c11.044-0.001,22.089-0.001,33.134,0C58.507,6.604,59,7.11,59,8.292
		c0,13.294,0,26.589,0,39.884c0,1.19-0.482,1.678-1.666,1.679c-3.629,0.001-7.257-0.002-10.886,0.002
		c-0.548,0.001-1.04-0.1-1.372-0.59c-0.503-0.741-0.143-1.742,0.726-1.971c0.226-0.06,0.469-0.075,0.704-0.075
		c3.074-0.005,6.147-0.003,9.222-0.003c0.188,0,0.375,0,0.601,0C56.328,34.563,56.328,21.944,56.328,9.278z"/>
	<path fill-rule="evenodd" clip-rule="evenodd" fill="#231F20" d="M3.634,49.376c11.521,0,22.952,0,34.391,0
		c0.047-0.224,0.082-0.424,0.131-0.62c0.141-0.572,0.665-0.975,1.251-0.968c0.603,0.006,1.177,0.44,1.236,1.037
		c0.065,0.658,0.083,1.328,0.034,1.987c-0.055,0.726-0.454,1.093-1.174,1.21c-0.202,0.032-0.41,0.031-0.615,0.031
		c-12.024,0.001-24.048,0.001-36.072,0.001C1.44,52.055,1,51.612,1,50.233c0-5.751,0-11.501,0-17.252
		c0-1.236,0.487-1.728,1.728-1.721c0.505,0.003,1.017-0.005,1.512,0.072C4.88,31.434,5.306,32,5.289,32.611
		c-0.017,0.62-0.468,1.193-1.095,1.24c-0.49,0.036-0.571,0.231-0.57,0.673c0.016,4.753,0.01,9.506,0.01,14.258
		C3.634,48.969,3.634,49.154,3.634,49.376z"/>
	<path fill-rule="evenodd" clip-rule="evenodd" fill="#231F20" d="M40.746,20.431c-2.978,0-5.955-0.002-8.932,0.001
		c-0.576,0-1.102-0.083-1.447-0.624c-0.452-0.709-0.107-1.686,0.699-1.919c0.195-0.057,0.404-0.092,0.606-0.092
		c6.05-0.004,12.099-0.006,18.148-0.001c0.894,0.001,1.416,0.423,1.517,1.181c0.089,0.667-0.376,1.302-1.047,1.407
		c-0.232,0.037-0.473,0.046-0.709,0.046C46.637,20.432,43.691,20.431,40.746,20.431z"/>
	<path fill-rule="evenodd" clip-rule="evenodd" fill="#231F20" d="M40.739,12.381c1.82,0,3.642-0.004,5.463,0.002
		c0.869,0.003,1.367,0.359,1.524,1.061c0.151,0.674-0.279,1.362-0.959,1.509c-0.215,0.046-0.438,0.074-0.657,0.074
		c-3.595,0.004-7.189,0.004-10.783,0.002c-0.974,0-1.52-0.394-1.635-1.162c-0.097-0.65,0.325-1.279,0.972-1.417
		c0.23-0.049,0.471-0.066,0.707-0.066C37.16,12.378,38.949,12.381,40.739,12.381z"/>
	<path fill-rule="evenodd" clip-rule="evenodd" fill="#231F20" d="M54.45,40.334c-0.074,1.621-0.644,2.982-2.129,3.823
		c-0.677,0.383-1.409,0.208-1.798-0.389c-0.405-0.623-0.246-1.333,0.41-1.823c1.196-0.895,1.193-2.336-0.008-3.22
		c-0.619-0.455-0.796-1.153-0.442-1.743c0.383-0.64,1.131-0.86,1.814-0.48C53.789,37.33,54.369,38.688,54.45,40.334z"/>
	<path fill-rule="evenodd" clip-rule="evenodd" fill="#231F20" d="M27.628,39.913c-2.687,0.023-4.909-2.175-4.955-4.901
		c-0.045-2.678,2.243-4.98,4.941-4.972c2.692,0.009,4.916,2.235,4.929,4.936C32.557,37.664,30.342,39.889,27.628,39.913z
		 M29.904,34.992c0.005-1.27-1.013-2.296-2.283-2.303s-2.297,1.012-2.302,2.284c-0.004,1.274,1.007,2.294,2.282,2.3
		C28.875,37.279,29.899,36.265,29.904,34.992z"/>
	<path fill-rule="evenodd" clip-rule="evenodd" fill="#231F20" d="M16.6,36.259c-0.631,0-1.265,0.039-1.892-0.011
		c-0.604-0.049-1.005-0.508-1.1-1.126c-0.077-0.503,0.237-1.096,0.74-1.311c0.226-0.098,0.488-0.147,0.734-0.151
		c1.011-0.017,2.022-0.022,3.033-0.003c1.003,0.02,1.602,0.679,1.453,1.557c-0.091,0.537-0.486,0.985-1.028,1.027
		c-0.643,0.05-1.292,0.012-1.939,0.012C16.6,36.255,16.6,36.257,16.6,36.259z"/>
	<path fill-rule="evenodd" clip-rule="evenodd" fill="#231F20" d="M38.582,36.262c-0.615,0-1.233,0.037-1.845-0.011
		c-0.597-0.047-0.993-0.481-1.093-1.073c-0.093-0.556,0.194-1.114,0.712-1.369c0.083-0.041,0.179-0.082,0.269-0.082
		c1.322-0.007,2.646-0.034,3.968,0.007c0.496,0.016,0.813,0.395,0.962,0.864c0.15,0.475,0.077,0.962-0.302,1.26
		c-0.3,0.235-0.723,0.371-1.108,0.425c-0.512,0.07-1.041,0.017-1.562,0.017C38.583,36.286,38.582,36.273,38.582,36.262z"/>
</g>
</svg>
