<?xml version="1.0" encoding="utf-8"?>
<!-- Generator: Adobe Illustrator 16.0.0, SVG Export Plug-In . SVG Version: 6.00 Build 0)  -->
<!DOCTYPE svg PUBLIC "-//W3C//DTD SVG 1.1//EN" "http://www.w3.org/Graphics/SVG/1.1/DTD/svg11.dtd">
<svg version="1.1" id="Layer_1" xmlns="http://www.w3.org/2000/svg" xmlns:xlink="http://www.w3.org/1999/xlink" x="0px" y="0px"
	 width="60px" height="60px" viewBox="0 0 60 60" enable-background="new 0 0 60 60" xml:space="preserve">
<g>
	<path fill-rule="evenodd" clip-rule="evenodd" fill="#1046F1" d="M30.399,1.269c4.102-0.038,8.145,1.185,11.758,3.815
		c2.915,2.123,5.076,4.856,6.492,8.148c1.269,2.98,1.837,6.098,1.461,9.331c-0.239,2.191-0.861,4.323-1.734,6.351
		c-1.211,2.85-2.457,5.702-3.86,8.454c-3.534,6.935-7.624,13.546-11.931,20.023c-0.233,0.353-0.474,0.719-0.714,1.069
		c-0.734,1.074-1.936,1.084-2.639-0.01c-2.117-3.271-4.235-6.537-6.297-9.849c-2.696-4.351-5.209-8.8-7.467-13.388
		c-1.563-3.204-2.989-6.458-3.942-9.911c-0.882-3.185-0.826-6.354,0.058-9.517c1.393-4.973,4.294-8.835,8.665-11.582
		C23.288,2.306,26.558,1.408,30.399,1.269z M30.535,55.107c0.182-0.249,0.296-0.42,0.41-0.597c3.386-5.117,6.581-10.36,9.517-15.762
		c2.014-3.684,3.894-7.421,5.344-11.375c1.063-2.86,1.791-5.761,1.289-8.857c-0.585-3.696-2.163-6.877-4.823-9.485
		c-3.034-2.955-6.682-4.566-10.93-4.781c-3.14-0.154-6.104,0.524-8.848,2.056c-3.74,2.091-6.357,5.184-7.76,9.239
		c-1.031,2.989-1.201,6.029-0.318,9.106c0.964,3.364,2.358,6.549,3.91,9.665c2.819,5.66,6.026,11.103,9.412,16.438
		C28.633,52.181,29.563,53.6,30.535,55.107z"/>
	<path fill-rule="evenodd" clip-rule="evenodd" fill="#1046F1" d="M30.535,9.915c5.985-0.028,10.897,4.872,10.922,10.9
		c0.02,5.979-4.837,10.863-10.866,10.92c-5.978,0.051-10.896-4.837-10.942-10.872C19.593,14.878,24.499,9.953,30.535,9.915z
		 M38.513,20.834c0.01-4.364-3.538-7.937-7.931-7.971c-4.386-0.035-8,3.579-7.987,7.971c0.013,4.386,3.58,7.943,7.953,7.95
		C34.931,28.787,38.486,25.233,38.513,20.834z"/>
</g>
</svg>
