<?xml version="1.0" encoding="utf-8"?>
<!-- Generator: Adobe Illustrator 16.0.0, SVG Export Plug-In . SVG Version: 6.00 Build 0)  -->
<!DOCTYPE svg PUBLIC "-//W3C//DTD SVG 1.1//EN" "http://www.w3.org/Graphics/SVG/1.1/DTD/svg11.dtd">
<svg version="1.1" id="Layer_1" xmlns="http://www.w3.org/2000/svg" xmlns:xlink="http://www.w3.org/1999/xlink" x="0px" y="0px"
	 width="20px" height="20px" viewBox="0 0 20 20" enable-background="new 0 0 20 20" xml:space="preserve">
<g>
	<path fill-rule="evenodd" clip-rule="evenodd" d="M10.003,12.142c-0.104-0.045-0.203-0.076-0.29-0.127
		c-3.05-1.799-6.1-3.602-9.149-5.405C0.19,6.389,0.186,6.024,0.557,5.805c3.055-1.807,6.11-3.611,9.164-5.419
		c0.194-0.115,0.367-0.114,0.56,0c3.048,1.804,6.099,3.605,9.147,5.408c0.395,0.234,0.391,0.591-0.01,0.827
		c-3.037,1.796-6.074,3.59-9.114,5.384C10.212,12.06,10.107,12.095,10.003,12.142z M18.453,6.209
		c-0.055-0.038-0.084-0.058-0.111-0.075C15.604,4.517,12.867,2.9,10.134,1.28C10.03,1.219,9.956,1.228,9.857,1.287
		c-2.7,1.598-5.401,3.193-8.101,4.79c-0.064,0.038-0.126,0.08-0.202,0.128C1.62,6.247,1.669,6.281,1.721,6.313
		c2.683,1.585,5.367,3.169,8.046,4.762c0.184,0.109,0.305,0.096,0.476-0.008c2.302-1.367,4.609-2.727,6.912-4.089
		C17.58,6.726,18.004,6.474,18.453,6.209z"/>
	<path fill-rule="evenodd" clip-rule="evenodd" d="M2.85,9.23c-0.441,0.262-0.864,0.513-1.306,0.775
		c0.103,0.063,0.184,0.112,0.267,0.161c2.677,1.583,5.355,3.165,8.031,4.75c0.103,0.061,0.18,0.08,0.296,0.012
		c2.728-1.617,5.46-3.229,8.191-4.843c0.035-0.021,0.066-0.045,0.123-0.083c-0.436-0.26-0.857-0.51-1.299-0.772
		c0.268-0.159,0.504-0.308,0.752-0.439c0.049-0.026,0.145-0.005,0.199,0.027c0.439,0.253,0.877,0.513,1.314,0.772
		c0.406,0.241,0.402,0.597-0.008,0.839c-2.867,1.694-5.734,3.387-8.601,5.083c-0.17,0.102-0.348,0.195-0.514,0.305
		c-0.201,0.135-0.385,0.123-0.594-0.002c-1.734-1.029-3.474-2.055-5.212-3.08c-1.294-0.766-2.588-1.53-3.883-2.295
		c-0.433-0.256-0.435-0.605-0.003-0.86C1.027,9.325,1.456,9.08,1.877,8.821c0.111-0.067,0.19-0.064,0.296,0.004
		C2.385,8.962,2.606,9.086,2.85,9.23z"/>
	<path fill-rule="evenodd" clip-rule="evenodd" d="M18.451,13.804c-0.441-0.262-0.854-0.508-1.301-0.773
		c0.277-0.162,0.525-0.314,0.779-0.455c0.035-0.02,0.105,0,0.146,0.023c0.475,0.279,0.949,0.553,1.418,0.84
		c0.326,0.203,0.297,0.564-0.057,0.773c-1.459,0.863-2.92,1.727-4.381,2.59c-1.566,0.926-3.135,1.848-4.696,2.783
		c-0.258,0.154-0.466,0.15-0.723-0.002c-3.005-1.787-6.015-3.561-9.024-5.342c-0.445-0.264-0.445-0.605,0-0.869
		c0.42-0.248,0.841-0.494,1.258-0.746c0.106-0.064,0.186-0.076,0.295-0.006c0.211,0.141,0.434,0.262,0.683,0.412
		c-0.44,0.26-0.857,0.508-1.303,0.773c0.082,0.051,0.146,0.094,0.212,0.133c2.696,1.594,5.392,3.186,8.087,4.783
		c0.104,0.061,0.18,0.076,0.294,0.008c2.716-1.611,5.437-3.217,8.155-4.824C18.342,13.878,18.385,13.847,18.451,13.804z"/>
</g>
</svg>
