<?xml version="1.0" encoding="utf-8"?>
<!-- Generator: Adobe Illustrator 16.0.0, SVG Export Plug-In . SVG Version: 6.00 Build 0)  -->
<!DOCTYPE svg PUBLIC "-//W3C//DTD SVG 1.1//EN" "http://www.w3.org/Graphics/SVG/1.1/DTD/svg11.dtd">
<svg version="1.1" id="Layer_1" xmlns="http://www.w3.org/2000/svg" xmlns:xlink="http://www.w3.org/1999/xlink" x="0px" y="0px"
	 width="60px" height="60px" viewBox="0 0 60 60" enable-background="new 0 0 60 60" xml:space="preserve">
<g>
	<path fill-rule="evenodd" clip-rule="evenodd" fill="#1046F1" d="M0.705,32.192c0-1.645,0-3.29,0-4.936
		c0.074-0.198,0.185-0.39,0.215-0.593C2.675,14.492,9.423,6.374,20.938,2.249c2.163-0.775,4.52-1.008,6.787-1.492
		c1.472,0,2.944,0,4.417,0c0.676,0.1,1.354,0.177,2.024,0.302c11.74,2.187,19.685,8.867,23.564,20.178
		c0.772,2.251,0.969,4.701,1.43,7.059c0,1.299,0,2.597,0,3.896c-0.095,0.635-0.174,1.272-0.289,1.902
		c-2.106,11.585-8.604,19.539-19.717,23.532c-2.237,0.805-4.67,1.071-7.013,1.585c-1.473,0-2.944,0-4.417,0
		c-0.676-0.097-1.357-0.17-2.028-0.295C13.795,56.684,5.788,49.92,2.005,38.364C1.354,36.378,1.127,34.254,0.705,32.192z
		 M29.953,4.151C15.655,4.287,4.366,15.517,4.136,29.288c-0.247,14.787,11.286,26.49,25.736,26.526
		c14.02,0.034,25.858-11.641,25.883-25.531C55.779,15.892,44.197,4.161,29.953,4.151z"/>
	<path fill-rule="evenodd" clip-rule="evenodd" fill="#1046F1" d="M30.016,33.159c-2.572,4.002-5.034,7.859-7.539,11.688
		c-0.234,0.359-0.737,0.543-1.115,0.81c-0.043-0.427-0.211-0.888-0.113-1.279c2.654-10.479,5.333-20.952,8.021-31.423
		c0.096-0.372,0.346-0.704,0.68-1.365c0.323,0.682,0.556,1.025,0.653,1.404c2.685,10.472,5.363,20.947,8.014,31.428
		c0.096,0.382-0.097,0.837-0.154,1.256c-0.349-0.246-0.815-0.421-1.03-0.756c-2.155-3.389-4.269-6.802-6.399-10.207
		C30.741,34.245,30.428,33.786,30.016,33.159z"/>
</g>
</svg>
