<?xml version="1.0" encoding="utf-8"?>
<!-- Generator: Adobe Illustrator 22.0.0, SVG Export Plug-In . SVG Version: 6.00 Build 0)  -->
<svg version="1.1" id="Layer_1" xmlns="http://www.w3.org/2000/svg" xmlns:xlink="http://www.w3.org/1999/xlink" x="0px" y="0px"
	 viewBox="0 0 140 140" style="enable-background:new 0 0 140 140;" xml:space="preserve">
<style type="text/css">
	.st0{filter:url(#Adobe_OpacityMaskFilter);}
	.st1{fill:#FFFFFF;}
	.st2{mask:url(#b_1_);fill:#1046F1;}
	.st3{filter:url(#Adobe_OpacityMaskFilter_1_);}
	.st4{mask:url(#b_2_);fill:#1046F1;}
	.st5{filter:url(#Adobe_OpacityMaskFilter_2_);}
	.st6{mask:url(#b_3_);fill:#1046F1;}
	.st7{filter:url(#Adobe_OpacityMaskFilter_3_);}
	.st8{mask:url(#b_4_);fill:#1046F1;}
</style>
<g>
	<defs>
		<filter id="Adobe_OpacityMaskFilter" filterUnits="userSpaceOnUse" x="11.6" y="109.8" width="18.8" height="18.8">
			<feColorMatrix  type="matrix" values="1 0 0 0 0  0 1 0 0 0  0 0 1 0 0  0 0 0 1 0"/>
		</filter>
	</defs>
	<mask maskUnits="userSpaceOnUse" x="11.6" y="109.8" width="18.8" height="18.8" id="b_1_">
		<g class="st0">
			<path id="a_1_" class="st1" d="M0,0.3h140V140H0V0.3z"/>
		</g>
	</mask>
	<path class="st2" d="M21,124c-2.6,0-4.8-2.1-4.8-4.7c0-2.6,2.1-4.7,4.7-4.8c0,0,0,0,0,0c2.6,0,4.8,2.1,4.8,4.7v0
		C25.7,121.8,23.6,123.9,21,124z M21,109.8c-5.2,0-9.4,4.2-9.4,9.3c0,5.2,4.2,9.4,9.4,9.4s9.4-4.2,9.4-9.3v0
		C30.4,114.1,26.2,109.9,21,109.8z"/>
	<defs>
		<filter id="Adobe_OpacityMaskFilter_1_" filterUnits="userSpaceOnUse" x="0" y="77.1" width="127.6" height="62.9">
			<feColorMatrix  type="matrix" values="1 0 0 0 0  0 1 0 0 0  0 0 1 0 0  0 0 0 1 0"/>
		</filter>
	</defs>
	<mask maskUnits="userSpaceOnUse" x="0" y="77.1" width="127.6" height="62.9" id="b_2_">
		<g class="st3">
			<path id="a_2_" class="st1" d="M0,0.3h140V140H0V0.3z"/>
		</g>
	</mask>
	<path class="st4" d="M37.3,120.3l-2.9,1.4c-0.6,0.3-1,0.8-1.2,1.4c-0.2,0.7-0.5,1.4-0.9,2c-0.3,0.5-0.3,1.2-0.2,1.8l1,3.2
		c-0.5,0.5-0.9,1-1.5,1.5l-3.1-1c-0.6-0.2-1.2-0.1-1.8,0.2c-0.7,0.3-1.3,0.6-2,0.9c-0.6,0.2-1.1,0.6-1.4,1.1l-1.4,2.6h-2.2l-1.4-2.6
		c-0.3-0.5-0.8-0.9-1.3-1.1c-0.7-0.2-1.4-0.5-2-0.9c-0.6-0.3-1.2-0.3-1.8-0.2l-3.1,1c-0.5-0.5-1-0.9-1.5-1.5l1-3.2
		c0.2-0.6,0.1-1.2-0.2-1.8c-0.3-0.7-0.6-1.3-0.9-2.1c-0.2-0.6-0.6-1.1-1.2-1.4l-2.9-1.4v-2.2l2.9-1.4c0.6-0.3,1-0.8,1.2-1.4
		c0.2-0.7,0.5-1.4,0.9-2.1c0.3-0.5,0.3-1.2,0.2-1.8l-1-3.2c0.5-0.5,0.9-1,1.5-1.5l3.1,1c0.6,0.2,1.2,0.1,1.8-0.2
		c0.7-0.3,1.3-0.6,2-0.9c0.6-0.2,1.1-0.6,1.4-1.2l1.4-2.9h2.1l1.4,2.9c0.3,0.6,0.8,1,1.4,1.2c0.7,0.2,1.4,0.5,2,0.9
		c0.6,0.3,1.2,0.3,1.8,0.2l3.1-1c0.5,0.5,1,0.9,1.5,1.5l-1,3.2c-0.2,0.6-0.1,1.2,0.2,1.8c0.3,0.7,0.6,1.3,0.9,2
		c0.2,0.6,0.6,1.1,1.2,1.4l2.9,1.4C37.3,118.1,37.3,120.3,37.3,120.3z M40.7,114.6l-3.3-1.7c-0.1-0.3-0.3-0.6-0.4-0.9l1.1-3.5
		c0.2-0.7,0.1-1.5-0.4-2.1c-1.1-1.5-2.5-2.9-4-4c-0.6-0.5-1.4-0.6-2.1-0.4l-3.4,1.1c-0.3-0.1-0.6-0.3-0.9-0.4l-1.7-3.4
		c-0.4-0.8-1.2-1.3-2.1-1.3h-5c-0.9,0-1.7,0.5-2.1,1.3l-1.7,3.4c-0.3,0.1-0.6,0.2-0.9,0.4l-3.4-1.1c-0.7-0.2-1.5-0.1-2.1,0.4
		c-1.5,1.2-2.9,2.5-4,4c-0.5,0.6-0.6,1.4-0.4,2.1L5,112c-0.1,0.3-0.3,0.6-0.4,0.9l-3.3,1.7C0.5,115,0,115.8,0,116.7v5
		c0,0.9,0.5,1.7,1.3,2.1l3.3,1.7c0.1,0.3,0.3,0.6,0.4,0.9l-1.1,3.5c-0.2,0.7-0.1,1.5,0.4,2.1c1.1,1.5,2.5,2.9,4,4
		c0.6,0.5,1.4,0.6,2.1,0.4l3.4-1.1c0.3,0.1,0.6,0.3,1,0.4l1.7,3.1c0.4,0.8,1.2,1.2,2.1,1.2h5c0.9,0,1.6-0.5,2.1-1.2l1.7-3.1
		c0.3-0.1,0.6-0.3,1-0.4l3.4,1.1c0.7,0.2,1.5,0.1,2.1-0.4c1.5-1.2,2.9-2.5,4-4c0.5-0.6,0.6-1.4,0.4-2.1l-1.1-3.5
		c0.1-0.3,0.3-0.6,0.4-0.9l3.3-1.7c0.8-0.4,1.3-1.2,1.3-2.1v-5C42,115.8,41.5,115,40.7,114.6L40.7,114.6z M81.7,114.4h-2.3v-11.6
		h-4.7v32.6h-2.3v-21h-4.7v21h-2.3v-32.6h-4.7v11.6h-2.3V100c0-1.3,0-4.2,6.3-4.2h10.8c6.3,0,6.3,3,6.3,4.2L81.7,114.4L81.7,114.4z
		 M70,81.8c2.6,0,4.7,2.1,4.7,4.7c0,0,0,0,0,0c0,2.6-2.1,4.7-4.7,4.7l0,0c-2.6,0-4.7-2.1-4.7-4.7l0,0C65.3,83.9,67.4,81.8,70,81.8
		L70,81.8z M77.9,91.3c0.9-1.4,1.4-3.1,1.4-4.8c0-5.1-4.2-9.3-9.3-9.3c-5.2,0-9.3,4.2-9.3,9.3c0,1.7,0.5,3.4,1.4,4.8
		c-5.4,0.7-8.4,3.8-8.4,8.7v16.7c0,1.3,1,2.3,2.3,2.3h0h4.7v18.6c0,1.3,1,2.3,2.3,2.3h14c1.3,0,2.3-1,2.3-2.3V119H84
		c1.3,0,2.3-1,2.3-2.3V100C86.3,95.1,83.3,92,77.9,91.3L77.9,91.3z M119,112.1c2.2,0,3.9,1.2,3.9,2.3h4.7c0-3.9-3.8-7-8.6-7
		s-8.6,3.1-8.6,7c0,5,4.8,6.2,8,6.9c3.6,0.8,4.4,1.3,4.4,2.4c0,1.1-1.7,2.3-3.9,2.3s-3.9-1.2-3.9-2.3h-4.7c0,3.9,3.8,7,8.6,7
		s8.6-3.1,8.6-7c0-5.1-4.8-6.2-8-6.9c-3.6-0.8-4.4-1.3-4.4-2.4C115.1,113.3,116.8,112.1,119,112.1"/>
	<defs>
		<filter id="Adobe_OpacityMaskFilter_2_" filterUnits="userSpaceOnUse" x="23.3" y="0.3" width="116.7" height="139.7">
			<feColorMatrix  type="matrix" values="1 0 0 0 0  0 1 0 0 0  0 0 1 0 0  0 0 0 1 0"/>
		</filter>
	</defs>
	<mask maskUnits="userSpaceOnUse" x="23.3" y="0.3" width="116.7" height="139.7" id="b_3_">
		<g class="st5">
			<path id="a_3_" class="st1" d="M0,0.3h140V140H0V0.3z"/>
		</g>
	</mask>
	<path class="st6" d="M119,135.3c-9,0-16.3-7.3-16.3-16.3c0-9,7.3-16.3,16.3-16.3c9,0,16.3,7.3,16.3,16.3
		C135.3,128,128,135.3,119,135.3z M119,98.1c-11.6,0-21,9.4-21,21c0,11.6,9.4,21,21,21s21-9.4,21-21C140,107.5,130.6,98.1,119,98.1z
		 M98,49.2H42c-7.7,0-14-6.2-14-14s6.3-14,14-14c1.5,0,3,0.2,4.4,0.7c1.2,0.4,2.5-0.3,2.9-1.5c0-0.1,0-0.2,0.1-0.2
		C51.2,11.4,59.9,4.9,70,4.9s18.8,6.4,20.6,15.3c0.3,1.3,1.5,2.1,2.8,1.8c0.1,0,0.2,0,0.3-0.1c7.3-2.4,15.3,1.6,17.7,8.9
		c2.4,7.3-1.6,15.2-8.9,17.6C101,49,99.5,49.2,98,49.2L98,49.2z M116.7,35.2c0-10.3-8.3-18.6-18.6-18.6c-1.2,0-2.3,0.1-3.5,0.3
		C90.8,6.7,80.9,0,70,0.3C59.1,0,49.2,6.7,45.4,16.9C35.3,15,25.5,21.7,23.6,31.8c-1.9,10.1,4.8,19.8,14.9,21.7
		c1.1,0.2,2.3,0.3,3.4,0.3h56C108.3,53.8,116.7,45.5,116.7,35.2L116.7,35.2z"/>
	<defs>
		<filter id="Adobe_OpacityMaskFilter_3_" filterUnits="userSpaceOnUse" x="32.7" y="21.2" width="74.7" height="69.9">
			<feColorMatrix  type="matrix" values="1 0 0 0 0  0 1 0 0 0  0 0 1 0 0  0 0 0 1 0"/>
		</filter>
	</defs>
	<mask maskUnits="userSpaceOnUse" x="32.7" y="21.2" width="74.7" height="69.9" id="b_4_">
		<g class="st7">
			<path id="a_4_" class="st1" d="M0,0.3h140V140H0V0.3z"/>
		</g>
	</mask>
	<path class="st8" d="M80.8,37.3c1.2-2.7,1.2-5.8,0.1-8.6c1.8,1.1,3.4,2.6,4.8,4.2C84.3,34.6,82.6,36.1,80.8,37.3L80.8,37.3z
		 M70.1,39.9c-0.1,0-0.2,0-0.3,0c-3.9-0.1-6.9-3.3-6.8-7.2c0.1-3.7,3.2-6.7,6.9-6.8c0.1,0,0.2,0,0.3,0c3.9,0.1,6.9,3.3,6.8,7.2
		C76.9,36.8,73.8,39.8,70.1,39.9z M59.1,37.1c-1.8-1.1-3.4-2.6-4.8-4.2c1.4-1.7,3-3.2,4.9-4.4C58.1,31.2,58,34.3,59.1,37.1z
		 M70.3,21.3c-0.1,0-0.2,0-0.3,0c0,0-0.1,0-0.1,0c-0.1,0-0.2,0-0.3,0c-10.2,0-15.5,4.1-20.2,10.2c-0.6,0.8-0.6,2,0,2.8
		c4.6,6.6,12.2,10.4,20.2,10.2c0.1,0,0.2,0,0.3,0c0,0,0.1,0,0.1,0c0.1,0,0.2,0,0.3,0c10.2,0,15.5-4.1,20.2-10.2c0.6-0.8,0.6-2,0-2.8
		C85.9,24.9,78.3,21.1,70.3,21.3L70.3,21.3z M67.7,63.2h4.7v-4.7h-4.7V63.2z M46.7,63.2h4.7v-4.7h-4.7V63.2z M42,72.5h4.7v-4.7H42
		V72.5z M37.3,81.8H42v-4.7h-4.7V81.8z M32.7,91.1h4.7v-4.7h-4.7V91.1z M67.7,72.5h4.7v-4.7h-4.7V72.5z M88.7,63.2h4.7v-4.7h-4.7
		V63.2z M93.3,72.5H98v-4.7h-4.7V72.5z M98,81.8h4.7v-4.7H98V81.8z M102.7,91.1h4.7v-4.7h-4.7V91.1z"/>
</g>
</svg>
