<?xml version="1.0" encoding="utf-8"?>
<!-- Generator: Adobe Illustrator 22.0.0, SVG Export Plug-In . SVG Version: 6.00 Build 0)  -->
<svg version="1.1" id="Layer_1" xmlns="http://www.w3.org/2000/svg" xmlns:xlink="http://www.w3.org/1999/xlink" x="0px" y="0px"
	 viewBox="0 0 70 70" style="enable-background:new 0 0 70 70;" xml:space="preserve">
<style type="text/css">
	.st0{fill:#1046F1;}
</style>
<g>
	<path class="st0" d="M10.4,62c-1.3,0-2.4-1-2.4-2.3s1-2.3,2.3-2.4l0,0c1.3,0,2.4,1,2.4,2.3l0,0C12.8,60.9,11.7,61.9,10.4,62z
		 M10.4,54.9c-2.6,0-4.7,2.1-4.7,4.6c0,2.6,2.1,4.7,4.7,4.7s4.7-2.1,4.7-4.6l0,0C15.1,57,13,54.9,10.4,54.9z"/>
	<path class="st0" d="M18.6,60.1l-1.4,0.7c-0.3,0.1-0.5,0.4-0.6,0.7c-0.1,0.3-0.2,0.7-0.4,1c-0.1,0.2-0.1,0.6-0.1,0.9l0.5,1.6
		c-0.2,0.2-0.4,0.5-0.7,0.7l-1.5-0.5c-0.3-0.1-0.6,0-0.9,0.1c-0.3,0.1-0.6,0.3-1,0.4c-0.3,0.1-0.5,0.3-0.7,0.5l-0.7,1.3H9.8
		l-0.7-1.3c-0.1-0.2-0.4-0.4-0.6-0.5c-0.3-0.1-0.7-0.2-1-0.4c-0.3-0.1-0.6-0.1-0.9-0.1L5,65.7c-0.2-0.2-0.5-0.4-0.7-0.7l0.5-1.6
		c0.1-0.3,0-0.6-0.1-0.9c-0.1-0.3-0.3-0.6-0.4-1c-0.1-0.3-0.3-0.5-0.6-0.7l-1.4-0.7V59l1.4-0.7c0.3-0.1,0.5-0.4,0.6-0.7
		c0.1-0.3,0.2-0.7,0.4-1c0.1-0.2,0.1-0.6,0.1-0.9L4.2,54c0.2-0.2,0.4-0.5,0.7-0.7l1.5,0.5c0.3,0.1,0.6,0,0.9-0.1
		c0.3-0.1,0.6-0.3,1-0.4c0.3-0.1,0.5-0.3,0.7-0.6l0.7-1.4h1l0.7,1.4c0.1,0.3,0.4,0.5,0.7,0.6c0.3,0.1,0.7,0.2,1,0.4
		c0.3,0.1,0.6,0.1,0.9,0.1l1.5-0.5c0.2,0.2,0.5,0.4,0.7,0.7L16,55.6c-0.1,0.3,0,0.6,0.1,0.9c0.1,0.3,0.3,0.6,0.4,1
		c0.1,0.3,0.3,0.5,0.6,0.7l1.4,0.7C18.6,59,18.6,60.1,18.6,60.1z M20.3,57.3l-1.6-0.8c0-0.1-0.1-0.3-0.2-0.4l0.5-1.7
		c0.1-0.3,0-0.7-0.2-1c-0.5-0.7-1.2-1.4-2-2c-0.3-0.2-0.7-0.3-1-0.2L14,51.5c-0.1,0-0.3-0.1-0.4-0.2l-0.8-1.7
		c-0.2-0.4-0.6-0.6-1-0.6H9.2c-0.4,0-0.8,0.2-1,0.6l-0.8,1.7c-0.1,0-0.3,0.1-0.4,0.2L5.1,51c-0.3-0.1-0.7,0-1,0.2
		c-0.7,0.6-1.4,1.2-2,2c-0.2,0.3-0.3,0.7-0.2,1L2.4,56c0,0.1-0.1,0.3-0.2,0.4l-1.6,0.8c-0.4,0.2-0.6,0.6-0.6,1v2.5
		c0,0.4,0.2,0.8,0.6,1l1.6,0.8c0,0.1,0.1,0.3,0.2,0.4l-0.5,1.7c-0.1,0.3,0,0.7,0.2,1c0.5,0.7,1.2,1.4,2,2c0.3,0.2,0.7,0.3,1,0.2
		l1.7-0.5c0.1,0,0.3,0.1,0.5,0.2l0.8,1.5c0.2,0.4,0.6,0.6,1,0.6h2.5c0.4,0,0.8-0.2,1-0.6l0.8-1.5c0.1,0,0.3-0.1,0.5-0.2l1.7,0.5
		c0.3,0.1,0.7,0,1-0.2c0.7-0.6,1.4-1.2,2-2c0.2-0.3,0.3-0.7,0.2-1l-0.5-1.7c0-0.1,0.1-0.3,0.2-0.4l1.6-0.8c0.4-0.2,0.6-0.6,0.6-1
		v-2.5C20.9,57.9,20.7,57.5,20.3,57.3L20.3,57.3z M40.7,57.2h-1.1v-5.8h-2.3v16.3h-1.1V57.2h-2.3v10.5h-1.1V51.4h-2.3v5.8h-1.1V50
		c0-0.6,0-2.1,3.1-2.1h5.4c3.1,0,3.1,1.5,3.1,2.1L40.7,57.2L40.7,57.2z M34.9,40.9c1.3,0,2.3,1,2.3,2.3l0,0c0,1.3-1,2.3-2.3,2.3l0,0
		c-1.3,0-2.3-1-2.3-2.3l0,0C32.5,41.9,33.6,40.9,34.9,40.9L34.9,40.9z M38.8,45.6c0.4-0.7,0.7-1.5,0.7-2.4c0-2.5-2.1-4.6-4.6-4.6
		c-2.6,0-4.6,2.1-4.6,4.6c0,0.8,0.2,1.7,0.7,2.4c-2.7,0.3-4.2,1.9-4.2,4.3v8.3c0,0.6,0.5,1.1,1.1,1.1l0,0h2.3v9.3
		c0,0.6,0.5,1.1,1.1,1.1h7c0.6,0,1.1-0.5,1.1-1.1v-9.3h2.3c0.6,0,1.1-0.5,1.1-1.1V50C43,47.5,41.5,46,38.8,45.6L38.8,45.6z M59.4,56
		c1.1,0,1.9,0.6,1.9,1.1h2.3c0-1.9-1.9-3.5-4.3-3.5c-2.4,0-4.3,1.5-4.3,3.5c0,2.5,2.4,3.1,4,3.4c1.8,0.4,2.2,0.6,2.2,1.2
		s-0.8,1.1-1.9,1.1c-1.1,0-1.9-0.6-1.9-1.1H55c0,1.9,1.9,3.5,4.3,3.5s4.3-1.5,4.3-3.5c0-2.5-2.4-3.1-4-3.4c-1.8-0.4-2.2-0.6-2.2-1.2
		C57.4,56.6,58.3,56,59.4,56"/>
	<path class="st0" d="M59.4,67.6c-4.5,0-8.1-3.6-8.1-8.1s3.6-8.1,8.1-8.1s8.1,3.6,8.1,8.1S63.8,67.6,59.4,67.6z M59.4,49
		c-5.8,0-10.5,4.7-10.5,10.5S53.6,70,59.4,70c5.8,0,10.5-4.7,10.5-10.5S65.1,49,59.4,49z M48.9,24.6h-28c-3.8,0-7-3.1-7-7s3.1-7,7-7
		c0.7,0,1.5,0.1,2.2,0.3c0.6,0.2,1.2-0.1,1.4-0.7c0,0,0-0.1,0-0.1c0.9-4.4,5.2-7.6,10.3-7.6s9.4,3.2,10.3,7.6c0.1,0.6,0.7,1,1.4,0.9
		c0,0,0.1,0,0.1,0c3.6-1.2,7.6,0.8,8.8,4.4s-0.8,7.6-4.4,8.8C50.4,24.5,49.6,24.6,48.9,24.6L48.9,24.6z M58.2,17.6
		c0-5.1-4.1-9.3-9.3-9.3c-0.6,0-1.1,0-1.7,0.1C45.3,3.4,40.3,0,34.9,0.2C29.5,0,24.5,3.4,22.6,8.5c-5-0.9-9.9,2.4-10.9,7.4
		s2.4,9.9,7.4,10.8c0.5,0.1,1.1,0.1,1.7,0.1h28C54,26.9,58.2,22.8,58.2,17.6L58.2,17.6z"/>
	<path class="st0" d="M40.3,18.7c0.6-1.3,0.6-2.9,0-4.3c0.9,0.5,1.7,1.3,2.4,2.1C42,17.3,41.2,18.1,40.3,18.7L40.3,18.7z M34.9,20
		c0,0-0.1,0-0.1,0c-1.9,0-3.4-1.6-3.4-3.6c0-1.8,1.6-3.3,3.4-3.4c0,0,0.1,0,0.1,0c1.9,0,3.4,1.6,3.4,3.6
		C38.3,18.4,36.8,19.9,34.9,20z M29.5,18.6c-0.9-0.5-1.7-1.3-2.4-2.1c0.7-0.8,1.5-1.6,2.4-2.2C29,15.6,28.9,17.2,29.5,18.6z
		 M35,10.7c0,0-0.1,0-0.1,0h0c0,0-0.1,0-0.1,0c-5.1,0-7.7,2-10.1,5.1c-0.3,0.4-0.3,1,0,1.4c2.3,3.3,6.1,5.2,10.1,5.1
		c0,0,0.1,0,0.1,0h0c0,0,0.1,0,0.1,0c5.1,0,7.7-2,10.1-5.1c0.3-0.4,0.3-1,0-1.4C42.8,12.5,39,10.6,35,10.7L35,10.7z M33.7,31.6h2.3
		v-2.3h-2.3V31.6z M23.3,31.6h2.3v-2.3h-2.3V31.6z M20.9,36.2h2.3v-2.3h-2.3V36.2z M18.6,40.9h2.3v-2.3h-2.3V40.9z M16.3,45.5h2.3
		v-2.3h-2.3V45.5z M33.7,36.2h2.3v-2.3h-2.3V36.2z M44.2,31.6h2.3v-2.3h-2.3V31.6z M46.5,36.2h2.3v-2.3h-2.3V36.2z M48.9,40.9h2.3
		v-2.3h-2.3V40.9z M51.2,45.5h2.3v-2.3h-2.3V45.5z"/>
</g>
</svg>
