<?xml version="1.0" encoding="UTF-8"?>
<svg width="24px" height="24px" viewBox="0 0 24 24" version="1.1" xmlns="http://www.w3.org/2000/svg" xmlns:xlink="http://www.w3.org/1999/xlink">
    <!-- Generator: sketchtool 49 (51002) - http://www.bohemiancoding.com/sketch -->
    <title>466A40FE-26B0-4D6B-93A4-062841D59119</title>
    <desc>Created with sketchtool.</desc>
    <defs>
        <path d="M12.7833232,21.170845 C13.803622,20.3583849 14.8242479,19.4398215 15.7740473,18.4372555 C18.4274016,15.6364926 20,12.7533955 20,10.0000001 C19.9999999,5.58172209 16.418278,2.00000013 12,2.00000013 C7.58172205,2.00000013 4.00000007,5.58172209 4,10.0000001 C4,12.7533955 5.57259843,15.6364926 8.22595269,18.4372555 C9.1757521,19.4398215 10.196378,20.3583849 11.2166768,21.170845 C11.4951711,21.392609 11.7576885,21.5936104 12,21.7726169 C12.2423115,21.5936104 12.5048289,21.392609 12.7833232,21.170845 Z M17.2259527,19.8127448 C16.2070021,20.8883037 15.118253,21.8681779 14.0291768,22.7354053 C13.6473986,23.0394138 13.2921737,23.3081096 12.9722093,23.539195 C12.777224,23.6800177 12.6351454,23.7784203 12.5547002,23.8320504 C12.2188008,24.0559834 11.7811992,24.0559834 11.4452998,23.8320504 C11.3648546,23.7784203 11.222776,23.6800177 11.0277907,23.539195 C10.7078263,23.3081096 10.3526014,23.0394138 9.97082322,22.7354053 C8.88174698,21.8681779 7.7929979,20.8883037 6.77404731,19.8127448 C3.80240157,16.6760076 2,13.3716047 2,10 C2.00000008,4.47715257 6.47715256,1.3411045e-07 12,1.34110451e-07 C17.5228474,1.34110451e-07 21.9999999,4.47715257 22,10 C22,13.3716047 20.1975984,16.6760076 17.2259527,19.8127448 Z M12,14 C14.209139,14 16,12.209139 16,10 C16,7.790861 14.209139,6 12,6 C9.790861,6 8,7.790861 8,10 C8,12.209139 9.790861,14 12,14 Z M12,12 C10.8954305,12 10,11.1045695 10,10 C10,8.8954305 10.8954305,8 12,8 C13.1045695,8 14,8.8954305 14,10 C14,11.1045695 13.1045695,12 12,12 Z" id="path-1"></path>
    </defs>
    <g id="Symbols" stroke="none" stroke-width="1" fill="none" fill-rule="evenodd">
        <g id="Icons-/-24px-/-map">
            <mask id="mask-2" fill="white">
                <use xlink:href="#path-1"></use>
            </mask>
            <use id="Combined-Shape" fill="#000000" fill-rule="nonzero" xlink:href="#path-1"></use>
            <g id="UI/Color/Flat/Black" mask="url(#mask-2)" fill="#000000">
                <rect id="Base" x="0" y="0" width="24" height="24"></rect>
            </g>
        </g>
    </g>
</svg>