<?xml version="1.0" encoding="utf-8"?>
<!-- Generator: Adobe Illustrator 22.0.0, SVG Export Plug-In . SVG Version: 6.00 Build 0)  -->
<svg version="1.1" id="Layer_1" xmlns="http://www.w3.org/2000/svg" xmlns:xlink="http://www.w3.org/1999/xlink" x="0px" y="0px"
	 viewBox="0 0 140 140" style="enable-background:new 0 0 140 140;" xml:space="preserve">
<style type="text/css">
	.st0{filter:url(#Adobe_OpacityMaskFilter);}
	.st1{fill:#FFFFFF;}
	.st2{mask:url(#b_1_);fill:#1046F1;}
	.st3{filter:url(#Adobe_OpacityMaskFilter_1_);}
	.st4{mask:url(#b_2_);fill:#1046F1;}
	.st5{filter:url(#Adobe_OpacityMaskFilter_2_);}
	.st6{mask:url(#b_3_);fill:#1046F1;}
	.st7{filter:url(#Adobe_OpacityMaskFilter_3_);}
	.st8{mask:url(#b_4_);fill:#1046F1;}
</style>
<g>
	<defs>
		<filter id="Adobe_OpacityMaskFilter" filterUnits="userSpaceOnUse" x="58.3" y="49.2" width="23.4" height="23.3">
			<feColorMatrix  type="matrix" values="1 0 0 0 0  0 1 0 0 0  0 0 1 0 0  0 0 0 1 0"/>
		</filter>
	</defs>
	<mask maskUnits="userSpaceOnUse" x="58.3" y="49.2" width="23.4" height="23.3" id="b_1_">
		<g class="st0">
			<path id="a_1_" class="st1" d="M0,0.3h140V140H0V0.3z"/>
		</g>
	</mask>
	<path class="st2" d="M70,53.8c3.9,0,7,3.1,7,7s-3.1,7-7,7c-3.9,0-7-3.1-7-7C63,57,66.1,53.9,70,53.8z M70,72.5
		c6.5,0,11.7-5.2,11.7-11.6S76.5,49.2,70,49.2c-6.5,0-11.7,5.2-11.7,11.6C58.3,67.3,63.5,72.5,70,72.5z"/>
	<defs>
		<filter id="Adobe_OpacityMaskFilter_1_" filterUnits="userSpaceOnUse" x="44.3" y="0.3" width="81.8" height="125.8">
			<feColorMatrix  type="matrix" values="1 0 0 0 0  0 1 0 0 0  0 0 1 0 0  0 0 0 1 0"/>
		</filter>
	</defs>
	<mask maskUnits="userSpaceOnUse" x="44.3" y="0.3" width="81.8" height="125.8" id="b_2_">
		<g class="st3">
			<path id="a_2_" class="st1" d="M0,0.3h140V140H0V0.3z"/>
		</g>
	</mask>
	<path class="st4" d="M52,58.5c0.7-0.3,1.2-0.9,1.4-1.6c0.2-1,0.5-1.9,0.9-2.8c0.3-0.7,0.2-1.4-0.1-2.1l-1.7-2.9
		c0.4-0.6,0.8-1.2,1.2-1.7l3.1,0.7c0.7,0.2,1.5,0,2.1-0.5c0.7-0.6,1.5-1.2,2.3-1.7c0.6-0.4,1-1,1.1-1.8l0.3-3.3
		c0.6-0.2,1.3-0.5,1.9-0.6l2.1,2.5c0.4,0.5,1.1,0.8,1.8,0.8h3.3c0.7,0,1.3-0.3,1.8-0.8l2.1-2.5c0.6,0.2,1.3,0.4,1.9,0.6l0.3,3.3
		c0.1,0.7,0.5,1.4,1.1,1.8c0.8,0.5,1.6,1.1,2.3,1.7c0.6,0.5,1.3,0.7,2.1,0.5l3.1-0.7c0.4,0.5,0.8,1.1,1.2,1.7L85.9,52
		c-0.4,0.6-0.4,1.4-0.1,2.1c0.4,0.9,0.7,1.9,0.9,2.8c0.2,0.7,0.7,1.3,1.3,1.6l2.9,1.3v2.2L88,63.2c-0.7,0.3-1.2,0.9-1.3,1.6
		c-0.2,1-0.5,1.9-0.9,2.8c-0.3,0.7-0.2,1.4,0.1,2.1l1.7,2.9c-0.4,0.6-0.8,1.2-1.2,1.7l-3.1-0.7c-0.7-0.2-1.5,0-2.1,0.5
		c-0.7,0.6-1.5,1.2-2.3,1.7c-0.6,0.4-1,1-1.1,1.8l-0.3,3.3c-0.6,0.2-1.3,0.5-1.9,0.6L73.4,79c-0.4-0.5-1.1-0.8-1.8-0.8h-3.3
		c-0.7,0-1.3,0.3-1.8,0.8l-2.1,2.5c-0.6-0.2-1.3-0.4-1.9-0.6l-0.3-3.3c-0.1-0.7-0.5-1.4-1.1-1.8c-0.8-0.5-1.6-1.1-2.3-1.7
		c-0.6-0.5-1.3-0.7-2.1-0.5l-3.1,0.7c-0.4-0.5-0.8-1.1-1.2-1.7l1.7-2.9c0.4-0.6,0.4-1.4,0.1-2.1c-0.4-0.9-0.7-1.9-0.9-2.8
		c-0.2-0.7-0.7-1.3-1.4-1.6l-3-1.3v-2.2C49,59.7,52,58.5,52,58.5z M60.6,28.2c0-5.1,4.2-9.3,9.4-9.3c5.2,0,9.4,4.2,9.4,9.3v8.3
		c-1.3-0.6-2.7-1-4.2-1.3c-0.8-0.2-1.7,0.1-2.3,0.8l-2.4,2.8h-1.1L67,36c-0.6-0.6-1.4-0.9-2.3-0.8c-1.4,0.3-2.8,0.8-4.2,1.3
		C60.6,36.6,60.6,28.2,60.6,28.2z M70,4.9c2.6,0,4.7,2.1,4.7,4.7c0,2.6-2.1,4.7-4.7,4.7c-2.6,0-4.7-2.1-4.7-4.7
		C65.3,7,67.4,5,70,4.9z M49.5,53.3c-0.1,0.4-0.3,0.8-0.4,1.3l-3.4,1.4c-0.9,0.4-1.4,1.2-1.4,2.1v5.3c0,0.9,0.6,1.8,1.4,2.1l3.4,1.4
		c0.1,0.4,0.3,0.9,0.4,1.3l-1.8,3.1c-0.4,0.7-0.4,1.6,0,2.3c0.9,1.7,2.1,3.3,3.4,4.7c0.6,0.6,1.4,0.9,2.3,0.7l3.4-0.8
		c0.3,0.3,0.7,0.5,1,0.8l0.3,3.6c0.1,0.8,0.6,1.6,1.3,1.9c1.7,0.8,3.6,1.4,5.4,1.8c0.8,0.2,1.7-0.1,2.2-0.8l2.4-2.8h1.1l2.4,2.8
		c0.6,0.6,1.4,0.9,2.3,0.8c1.9-0.4,3.7-1,5.4-1.8c0.8-0.3,1.3-1.1,1.3-1.9l0.3-3.6c0.4-0.2,0.7-0.5,1-0.8l3.4,0.8
		c0.8,0.2,1.7-0.1,2.3-0.7c1.3-1.4,2.4-3,3.4-4.7c0.4-0.7,0.4-1.6,0-2.3l-1.8-3.1c0.1-0.4,0.3-0.9,0.4-1.3l3.2-1.4
		c0.8-0.4,1.4-1.2,1.4-2.1v-5.3c0-0.9-0.5-1.8-1.4-2.1l-3.2-1.4c-0.1-0.5-0.3-0.9-0.4-1.3l1.8-3.1c0.4-0.7,0.4-1.6,0-2.3
		c-0.9-1.7-2.1-3.3-3.4-4.7c-0.6-0.6-1.4-0.9-2.3-0.7L84,43.2V28.2c0-5.1-2.8-9.8-7.3-12.2c3.6-3.7,3.4-9.6-0.3-13.1c0,0,0,0,0,0
		c-3.7-3.6-9.7-3.4-13.2,0.3c-3.4,3.6-3.4,9.3,0,12.9c-4.5,2.4-7.3,7.1-7.3,12.2v14.9l-2.7-0.6c-0.8-0.2-1.7,0.1-2.3,0.7
		c-1.3,1.4-2.4,3-3.4,4.7c-0.4,0.7-0.4,1.6,0,2.3L49.5,53.3L49.5,53.3z M114.4,121.4c-3.9,0-7-3.1-7-7s3.1-7,7-7s7,3.1,7,7
		C121.4,118.2,118.3,121.4,114.4,121.4z M114.4,102.7c-6.5,0-11.7,5.2-11.7,11.6S108,126,114.4,126s11.7-5.2,11.7-11.6
		C126.1,108,120.9,102.8,114.4,102.7z"/>
	<defs>
		<filter id="Adobe_OpacityMaskFilter_2_" filterUnits="userSpaceOnUse" x="13.9" y="53.8" width="126.1" height="86.2">
			<feColorMatrix  type="matrix" values="1 0 0 0 0  0 1 0 0 0  0 0 1 0 0  0 0 0 1 0"/>
		</filter>
	</defs>
	<mask maskUnits="userSpaceOnUse" x="13.9" y="53.8" width="126.1" height="86.2" id="b_3_">
		<g class="st5">
			<path id="a_3_" class="st1" d="M0,0.3h140V140H0V0.3z"/>
		</g>
	</mask>
	<path class="st6" d="M130.8,101c0.4,0.6,0.8,1.1,1.2,1.7l-1.7,2.9c-0.4,0.6-0.4,1.4-0.1,2.1c0.4,0.9,0.7,1.9,0.9,2.8
		c0.2,0.7,0.7,1.3,1.3,1.6l2.9,1.3v2.2l-2.9,1.3c-0.7,0.3-1.2,0.9-1.3,1.6c-0.2,1-0.5,1.9-0.9,2.8c-0.3,0.7-0.2,1.4,0.1,2.1l1.7,2.9
		c-0.4,0.6-0.8,1.2-1.2,1.7l-3.1-0.7c-0.7-0.2-1.5,0-2.1,0.5c-0.7,0.6-1.5,1.2-2.3,1.7c-0.6,0.4-1,1-1.1,1.8l-0.3,3.3
		c-0.6,0.2-1.3,0.5-1.9,0.6l-2.1-2.5c-0.4-0.5-1.1-0.8-1.8-0.8h-3.3c-0.7,0-1.3,0.3-1.8,0.8l-2.1,2.5c-0.6-0.2-1.3-0.4-1.9-0.6
		l-0.3-3.3c-0.1-0.7-0.5-1.4-1.1-1.8c-0.8-0.5-1.6-1.1-2.3-1.7c-0.6-0.5-1.3-0.7-2.1-0.5l-3.1,0.7c-0.4-0.5-0.8-1.1-1.2-1.7l1.7-2.9
		c0.4-0.6,0.4-1.4,0.1-2.1c-0.4-0.9-0.7-1.9-0.9-2.8c-0.2-0.7-0.7-1.3-1.4-1.6l-3-1.3v-2.2l3-1.3c0.7-0.3,1.2-0.9,1.4-1.6
		c0.2-1,0.5-1.9,0.9-2.8c0.3-0.7,0.2-1.4-0.1-2.1l-1.7-2.9c0.4-0.6,0.8-1.2,1.2-1.7l3.1,0.7c0.7,0.2,1.5,0,2.1-0.5
		c0.7-0.6,1.5-1.2,2.3-1.7c0.6-0.4,1-1,1.1-1.8l0.3-3.3c0.6-0.2,1.3-0.5,1.9-0.6l2.1,2.5c0.4,0.5,1.1,0.8,1.8,0.8h3.3
		c0.7,0,1.3-0.3,1.8-0.8l2.1-2.5c0.6,0.2,1.3,0.4,1.9,0.6l0.3,3.3c0.1,0.7,0.5,1.4,1.1,1.8c0.8,0.5,1.6,1.1,2.3,1.7
		c0.6,0.5,1.3,0.7,2.1,0.5L130.8,101L130.8,101z M105.1,81.8c0-5.1,4.2-9.3,9.4-9.3c5.2,0,9.4,4.2,9.4,9.3v8.3
		c-1.3-0.6-2.7-1-4.2-1.3c-0.8-0.2-1.7,0.1-2.3,0.8l-2.4,2.8h-1.1l-2.4-2.8c-0.6-0.6-1.4-0.9-2.3-0.8c-1.4,0.3-2.8,0.8-4.2,1.3
		L105.1,81.8L105.1,81.8z M114.4,58.5c2.6,0,4.7,2.1,4.7,4.7s-2.1,4.7-4.7,4.7s-4.7-2.1-4.7-4.7C109.7,60.6,111.8,58.5,114.4,58.5z
		 M121.2,69.6c3.6-3.7,3.4-9.6-0.3-13.1c0,0,0,0,0,0c-3.7-3.6-9.7-3.4-13.2,0.3c-3.5,3.6-3.5,9.3,0,12.9c-4.5,2.4-7.3,7.1-7.3,12.2
		v14.9l-2.7-0.6c-0.8-0.2-1.7,0.1-2.3,0.7c-1.3,1.4-2.4,3-3.4,4.7c-0.4,0.7-0.4,1.6,0,2.3l1.8,3.1c-0.1,0.4-0.3,0.8-0.4,1.3
		l-3.4,1.4c-0.9,0.4-1.4,1.2-1.4,2.1v5.3c0,0.9,0.6,1.8,1.4,2.1l3.4,1.4c0.1,0.4,0.3,0.9,0.4,1.3l-1.8,3.1c-0.4,0.7-0.4,1.6,0,2.3
		c0.9,1.7,2.1,3.3,3.4,4.7c0.6,0.6,1.4,0.9,2.3,0.7l3.4-0.8c0.3,0.3,0.7,0.5,1,0.8l0.3,3.6c0.1,0.8,0.6,1.6,1.3,1.9
		c1.7,0.8,3.6,1.4,5.4,1.8c0.8,0.2,1.7-0.1,2.2-0.8l2.4-2.8h1.1l2.4,2.8c0.6,0.6,1.4,0.9,2.2,0.8c1.9-0.4,3.7-1,5.4-1.8
		c0.8-0.3,1.3-1.1,1.3-1.9l0.3-3.6c0.4-0.2,0.7-0.5,1-0.8l3.4,0.8c0.8,0.2,1.7-0.1,2.3-0.7c1.3-1.4,2.4-3,3.4-4.7
		c0.4-0.7,0.4-1.6,0-2.3l-1.8-3.1c0.1-0.4,0.3-0.9,0.4-1.3l3.2-1.4c0.8-0.4,1.4-1.2,1.4-2.1v-5.3c0-0.9-0.5-1.8-1.4-2.1l-3.2-1.4
		c-0.1-0.4-0.3-0.9-0.4-1.3l1.8-3.1c0.4-0.7,0.4-1.6,0-2.3c-0.9-1.7-2.1-3.3-3.4-4.7c-0.6-0.6-1.4-0.9-2.3-0.7l-2.7,0.6V81.8
		C128.4,76.7,125.7,72,121.2,69.6L121.2,69.6z M25.6,107.4c3.9,0,7,3.1,7,7s-3.1,7-7,7c-3.9,0-7-3.1-7-7
		C18.6,110.5,21.7,107.4,25.6,107.4L25.6,107.4z M25.6,126c6.5,0,11.7-5.2,11.7-11.6s-5.2-11.6-11.7-11.6c-6.5,0-11.7,5.2-11.7,11.6
		C13.9,120.8,19.1,126,25.6,126z"/>
	<defs>
		<filter id="Adobe_OpacityMaskFilter_3_" filterUnits="userSpaceOnUse" x="0" y="18.9" width="127.2" height="121.1">
			<feColorMatrix  type="matrix" values="1 0 0 0 0  0 1 0 0 0  0 0 1 0 0  0 0 0 1 0"/>
		</filter>
	</defs>
	<mask maskUnits="userSpaceOnUse" x="0" y="18.9" width="127.2" height="121.1" id="b_4_">
		<g class="st7">
			<path id="a_4_" class="st1" d="M0,0.3h140V140H0V0.3z"/>
		</g>
	</mask>
	<path class="st8" d="M4.7,113.3l2.9-1.3c0.7-0.3,1.2-0.9,1.3-1.6c0.2-1,0.5-1.9,0.9-2.8c0.3-0.7,0.2-1.4-0.1-2.1L8,102.7
		c0.4-0.6,0.8-1.1,1.2-1.7l3.1,0.7c0.7,0.2,1.5,0,2.1-0.5c0.7-0.6,1.5-1.2,2.3-1.7c0.6-0.4,1-1,1.1-1.8l0.3-3.3
		c0.6-0.2,1.3-0.5,1.9-0.6l2.1,2.5c0.4,0.5,1.1,0.8,1.8,0.8h3.3c0.7,0,1.3-0.3,1.8-0.8l2.1-2.5c0.6,0.2,1.3,0.4,1.9,0.6l0.3,3.3
		c0.1,0.7,0.5,1.4,1.1,1.8c0.8,0.5,1.6,1.1,2.3,1.7c0.6,0.5,1.3,0.7,2.1,0.5l3.1-0.7c0.4,0.6,0.8,1.1,1.2,1.7l-1.7,2.9
		c-0.4,0.6-0.4,1.4-0.1,2.1c0.4,0.9,0.7,1.9,0.9,2.8c0.2,0.7,0.7,1.3,1.3,1.6l2.9,1.3v2.2l-2.9,1.3c-0.7,0.3-1.2,0.9-1.3,1.6
		c-0.2,1-0.5,1.9-0.9,2.8c-0.3,0.7-0.2,1.4,0.1,2.1l1.7,2.9c-0.4,0.6-0.8,1.2-1.2,1.7l-3.1-0.7c-0.7-0.2-1.5,0-2.1,0.5
		c-0.7,0.6-1.5,1.2-2.3,1.7c-0.6,0.4-1,1-1.1,1.8l-0.3,3.3c-0.6,0.2-1.2,0.5-1.9,0.6l-2.1-2.5c-0.4-0.5-1.1-0.8-1.8-0.8h-3.3
		c-0.7,0-1.3,0.3-1.8,0.8l-2.1,2.5c-0.6-0.2-1.3-0.4-1.9-0.6l-0.3-3.3c-0.1-0.7-0.5-1.4-1.1-1.8c-0.8-0.5-1.6-1.1-2.3-1.7
		c-0.6-0.5-1.3-0.7-2.1-0.5l-3.1,0.7c-0.4-0.5-0.8-1.1-1.2-1.7l1.7-2.9c0.4-0.6,0.4-1.4,0.1-2.1c-0.4-0.9-0.7-1.9-0.9-2.8
		c-0.2-0.7-0.7-1.3-1.3-1.6l-2.9-1.3L4.7,113.3L4.7,113.3z M16.2,81.8c0-5.1,4.2-9.3,9.4-9.3c5.2,0,9.4,4.2,9.4,9.3v8.3
		c-1.3-0.6-2.7-1-4.2-1.3c-0.8-0.2-1.7,0.1-2.3,0.8l-2.4,2.8H25l-2.4-2.8c-0.6-0.6-1.4-0.9-2.3-0.8c-1.4,0.3-2.8,0.8-4.2,1.3
		L16.2,81.8L16.2,81.8z M25.6,58.5c2.6,0,4.7,2.1,4.7,4.7c0,2.6-2.1,4.7-4.7,4.7c-2.6,0-4.7-2.1-4.7-4.7
		C20.9,60.6,23,58.5,25.6,58.5z M1.4,119.2l3.2,1.4c0.1,0.4,0.3,0.9,0.4,1.3L3.2,125c-0.4,0.7-0.4,1.6,0,2.3
		c0.9,1.7,2.1,3.3,3.4,4.7c0.6,0.6,1.4,0.9,2.3,0.7l3.4-0.8c0.3,0.3,0.7,0.5,1,0.8l0.3,3.6c0.1,0.8,0.6,1.6,1.3,1.9
		c1.7,0.8,3.6,1.4,5.4,1.8c0.8,0.2,1.7-0.1,2.2-0.8l2.4-2.8h1.1l2.4,2.8c0.6,0.6,1.4,0.9,2.3,0.8c1.9-0.4,3.7-1,5.4-1.8
		c0.8-0.3,1.3-1.1,1.3-1.9l0.3-3.6c0.4-0.2,0.7-0.5,1-0.8l3.4,0.8c0.8,0.2,1.7-0.1,2.3-0.7c1.3-1.4,2.4-3,3.4-4.7
		c0.4-0.7,0.4-1.6,0-2.3l-1.8-3.1c0.1-0.4,0.3-0.9,0.4-1.3l3.2-1.4c0.8-0.4,1.4-1.2,1.4-2.1v-5.3c0-0.9-0.5-1.8-1.4-2.1l-3.2-1.4
		c-0.1-0.4-0.3-0.9-0.4-1.3l1.8-3.1c0.4-0.7,0.4-1.6,0-2.3c-0.9-1.7-2.1-3.3-3.4-4.7c-0.6-0.6-1.4-0.9-2.3-0.7l-2.7,0.6V81.8
		c0-5.1-2.8-9.8-7.3-12.2c3.6-3.7,3.4-9.6-0.3-13.1c0,0,0,0,0,0c-3.7-3.6-9.7-3.4-13.2,0.3c-3.5,3.6-3.5,9.3,0,12.9
		c-4.5,2.4-7.3,7.1-7.3,12.2v14.9l-2.7-0.6c-0.8-0.2-1.7,0.1-2.3,0.7c-1.3,1.4-2.4,3-3.4,4.7c-0.4,0.7-0.4,1.6,0,2.3l1.8,3.1
		c-0.1,0.4-0.3,0.9-0.4,1.3l-3.2,1.4C0.5,110,0,110.8,0,111.8v5.3C0,117.9,0.5,118.8,1.4,119.2L1.4,119.2z M47.2,23.5l-1.8-4.3
		c-14.1,6-25.6,16.9-32.3,30.7l4.2,2C23.5,39.1,34.1,29,47.2,23.5 M88.4,132.4c-11.6,3.8-24.1,3.9-35.8,0.3l-1.4,4.4
		c12.6,3.9,26.1,3.8,38.6-0.3L88.4,132.4 M123,52.5l4.2-2c-6.7-14.3-18.6-25.6-33.3-31.6l-1.8,4.3C105.7,28.8,116.8,39.2,123,52.5"
		/>
</g>
</svg>
