<?xml version="1.0" encoding="utf-8"?>
<!-- Generator: Adobe Illustrator 22.0.0, SVG Export Plug-In . SVG Version: 6.00 Build 0)  -->
<svg version="1.1" id="Layer_1" xmlns="http://www.w3.org/2000/svg" xmlns:xlink="http://www.w3.org/1999/xlink" x="0px" y="0px"
	 viewBox="0 0 70 70" style="enable-background:new 0 0 70 70;" xml:space="preserve">
<style type="text/css">
	.st0{fill:#1046F1;}
</style>
<g>
	<path class="st0" d="M35.1,26.8c2,0,3.5,1.6,3.5,3.5s-1.6,3.5-3.5,3.5c-2,0-3.5-1.6-3.5-3.5C31.5,28.4,33.1,26.8,35.1,26.8z
		 M35.1,36.2c3.3,0,5.9-2.6,5.9-5.8s-2.6-5.9-5.9-5.9s-5.9,2.6-5.9,5.8C29.2,33.6,31.8,36.2,35.1,36.2z"/>
	<path class="st0" d="M26,29.1c0.4-0.2,0.6-0.5,0.7-0.8c0.1-0.5,0.3-1,0.5-1.4c0.2-0.4,0.1-0.7-0.1-1.1l-0.9-1.5
		c0.2-0.3,0.4-0.6,0.6-0.9l1.6,0.4c0.4,0.1,0.8,0,1.1-0.3c0.4-0.3,0.8-0.6,1.2-0.9c0.3-0.2,0.5-0.5,0.6-0.9l0.2-1.7
		c0.3-0.1,0.7-0.3,1-0.3l1.1,1.3c0.2,0.3,0.6,0.4,0.9,0.4h1.7c0.4,0,0.7-0.2,0.9-0.4l1.1-1.3c0.3,0.1,0.7,0.2,1,0.3l0.2,1.7
		c0.1,0.4,0.3,0.7,0.6,0.9c0.4,0.3,0.8,0.6,1.2,0.9c0.3,0.3,0.7,0.4,1.1,0.3l1.6-0.4c0.2,0.3,0.4,0.6,0.6,0.9L43,25.9
		c-0.2,0.3-0.2,0.7-0.1,1.1c0.2,0.5,0.4,1,0.5,1.4c0.1,0.4,0.4,0.7,0.7,0.8l1.5,0.7v1.1l-1.5,0.6c-0.4,0.2-0.6,0.5-0.7,0.8
		c-0.1,0.5-0.3,1-0.5,1.4c-0.2,0.4-0.1,0.7,0.1,1.1l0.9,1.5c-0.2,0.3-0.4,0.6-0.6,0.9l-1.6-0.4c-0.4-0.1-0.8,0-1.1,0.3
		c-0.4,0.3-0.8,0.6-1.2,0.9C39.2,38,39,38.3,39,38.7l-0.2,1.7c-0.3,0.1-0.7,0.3-1,0.3l-1.1-1.3c-0.2-0.3-0.6-0.4-0.9-0.4h-1.7
		c-0.4,0-0.7,0.2-0.9,0.4l-1.1,1.3c-0.3-0.1-0.7-0.2-1-0.3l-0.2-1.7c-0.1-0.4-0.3-0.7-0.6-0.9c-0.4-0.3-0.8-0.6-1.2-0.9
		c-0.3-0.3-0.7-0.4-1.1-0.3l-1.6,0.4c-0.2-0.3-0.4-0.6-0.6-0.9l0.9-1.5c0.2-0.3,0.2-0.7,0.1-1.1c-0.2-0.5-0.4-1-0.5-1.4
		c-0.1-0.4-0.4-0.7-0.7-0.8l-1.5-0.7v-1.1C24.5,29.7,26,29.1,26,29.1z M30.3,14c0-2.6,2.1-4.7,4.7-4.7s4.7,2.1,4.7,4.7v4.2
		c-0.7-0.3-1.4-0.5-2.1-0.7c-0.4-0.1-0.9,0.1-1.2,0.4l-1.2,1.4h-0.6l-1.2-1.4c-0.3-0.3-0.7-0.5-1.2-0.4c-0.7,0.2-1.4,0.4-2.1,0.7
		C30.3,18.2,30.3,14,30.3,14z M35.1,2.3c1.3,0,2.4,1.1,2.4,2.4S36.4,7,35.1,7c-1.3,0-2.4-1.1-2.4-2.4S33.8,2.4,35.1,2.3z M24.8,26.5
		c-0.1,0.2-0.2,0.4-0.2,0.7l-1.7,0.7c-0.5,0.2-0.7,0.6-0.7,1.1v2.7c0,0.5,0.3,0.9,0.7,1.1l1.7,0.7c0.1,0.2,0.2,0.5,0.2,0.7l-0.9,1.6
		c-0.2,0.4-0.2,0.8,0,1.2c0.5,0.9,1.1,1.7,1.7,2.4c0.3,0.3,0.7,0.5,1.2,0.4l1.7-0.4c0.2,0.2,0.4,0.3,0.5,0.4l0.2,1.8
		c0.1,0.4,0.3,0.8,0.7,1c0.9,0.4,1.8,0.7,2.7,0.9c0.4,0.1,0.9-0.1,1.1-0.4l1.2-1.4h0.6l1.2,1.4c0.3,0.3,0.7,0.5,1.2,0.4
		c1-0.2,1.9-0.5,2.7-0.9c0.4-0.2,0.7-0.6,0.7-1l0.2-1.8c0.2-0.1,0.4-0.3,0.5-0.4l1.7,0.4c0.4,0.1,0.9-0.1,1.2-0.4
		c0.7-0.7,1.2-1.5,1.7-2.4c0.2-0.4,0.2-0.8,0-1.2L45.3,34c0.1-0.2,0.2-0.5,0.2-0.7l1.6-0.7c0.4-0.2,0.7-0.6,0.7-1.1v-2.7
		c0-0.5-0.3-0.9-0.7-1.1l-1.6-0.7c-0.1-0.3-0.2-0.5-0.2-0.7l0.9-1.6c0.2-0.4,0.2-0.8,0-1.2c-0.5-0.9-1.1-1.7-1.7-2.4
		c-0.3-0.3-0.7-0.5-1.2-0.4l-1.3,0.4V14c0-2.6-1.4-4.9-3.7-6.1c1.8-1.9,1.7-4.8-0.2-6.6l0,0c-1.9-1.8-4.9-1.7-6.6,0.2
		c-1.7,1.8-1.7,4.7,0,6.5C29.4,9.1,28,11.5,28,14v7.5l-1.4-0.3c-0.4-0.1-0.9,0.1-1.2,0.4c-0.7,0.7-1.2,1.5-1.7,2.4
		c-0.2,0.4-0.2,0.8,0,1.2L24.8,26.5L24.8,26.5z M57.3,60.6c-2,0-3.5-1.6-3.5-3.5c0-2,1.6-3.5,3.5-3.5c2,0,3.5,1.6,3.5,3.5
		C60.8,59,59.2,60.6,57.3,60.6z M57.3,51.3c-3.3,0-5.9,2.6-5.9,5.8c0,3.2,2.7,5.9,5.9,5.9c3.2,0,5.9-2.6,5.9-5.8
		C63.1,53.9,60.5,51.3,57.3,51.3z"/>
	<path class="st0" d="M65.5,50.4c0.2,0.3,0.4,0.6,0.6,0.9l-0.9,1.5C65,53,65,53.4,65.2,53.8c0.2,0.5,0.4,1,0.5,1.4
		c0.1,0.4,0.4,0.7,0.7,0.8l1.5,0.7v1.1l-1.5,0.7c-0.4,0.2-0.6,0.5-0.7,0.8c-0.1,0.5-0.3,1-0.5,1.4c-0.2,0.4-0.1,0.7,0.1,1.1l0.9,1.5
		c-0.2,0.3-0.4,0.6-0.6,0.9l-1.6-0.4c-0.4-0.1-0.8,0-1.1,0.3c-0.4,0.3-0.8,0.6-1.2,0.9c-0.3,0.2-0.5,0.5-0.6,0.9L61,67.3
		c-0.3,0.1-0.7,0.3-1,0.3L59,66.3c-0.2-0.3-0.6-0.4-0.9-0.4h-1.7c-0.4,0-0.7,0.2-0.9,0.4l-1.1,1.3c-0.3-0.1-0.7-0.2-1-0.3l-0.2-1.7
		c-0.1-0.4-0.3-0.7-0.6-0.9c-0.4-0.3-0.8-0.6-1.2-0.9c-0.3-0.3-0.7-0.4-1.1-0.3l-1.6,0.4c-0.2-0.3-0.4-0.6-0.6-0.9l0.9-1.5
		c0.2-0.3,0.2-0.7,0.1-1.1c-0.2-0.5-0.4-1-0.5-1.4c-0.1-0.4-0.4-0.7-0.7-0.8l-1.5-0.7v-1.1l1.5-0.7c0.4-0.2,0.6-0.5,0.7-0.8
		c0.1-0.5,0.3-1,0.5-1.4c0.2-0.4,0.1-0.7-0.1-1.1l-0.9-1.5c0.2-0.3,0.4-0.6,0.6-0.9l1.6,0.4c0.4,0.1,0.8,0,1.1-0.3
		c0.4-0.3,0.8-0.6,1.2-0.9c0.3-0.2,0.5-0.5,0.6-0.9l0.2-1.7c0.3-0.1,0.7-0.3,1-0.3l1.1,1.3c0.2,0.3,0.6,0.4,0.9,0.4h1.7
		c0.4,0,0.7-0.2,0.9-0.4l1.1-1.3c0.3,0.1,0.7,0.2,1,0.3l0.2,1.7c0.1,0.4,0.3,0.7,0.6,0.9c0.4,0.3,0.8,0.6,1.2,0.9
		c0.3,0.3,0.7,0.4,1.1,0.3L65.5,50.4L65.5,50.4z M52.6,40.8c0-2.6,2.1-4.7,4.7-4.7s4.7,2.1,4.7,4.7V45c-0.7-0.3-1.4-0.5-2.1-0.7
		c-0.4-0.1-0.9,0.1-1.2,0.4l-1.2,1.4H57l-1.2-1.4c-0.3-0.3-0.7-0.5-1.2-0.4c-0.7,0.2-1.4,0.4-2.1,0.7L52.6,40.8L52.6,40.8z
		 M57.3,29.1c1.3,0,2.4,1.1,2.4,2.4c0,1.3-1.1,2.4-2.4,2.4s-2.4-1.1-2.4-2.4C54.9,30.2,56,29.1,57.3,29.1z M60.7,34.7
		c1.8-1.9,1.7-4.8-0.2-6.6l0,0c-1.9-1.8-4.9-1.7-6.6,0.2c-1.8,1.8-1.8,4.7,0,6.5c-2.3,1.2-3.7,3.6-3.7,6.1v7.5L48.9,48
		c-0.4-0.1-0.9,0.1-1.2,0.4c-0.7,0.7-1.2,1.5-1.7,2.4c-0.2,0.4-0.2,0.8,0,1.2l0.9,1.6c-0.1,0.2-0.2,0.4-0.2,0.7l-1.7,0.7
		c-0.5,0.2-0.7,0.6-0.7,1.1v2.7c0,0.5,0.3,0.9,0.7,1.1l1.7,0.7c0.1,0.2,0.2,0.5,0.2,0.7l-0.9,1.6c-0.2,0.4-0.2,0.8,0,1.2
		c0.5,0.9,1.1,1.7,1.7,2.4c0.3,0.3,0.7,0.5,1.2,0.4l1.7-0.4c0.2,0.2,0.4,0.3,0.5,0.4l0.2,1.8c0.1,0.4,0.3,0.8,0.7,1
		c0.9,0.4,1.8,0.7,2.7,0.9c0.4,0.1,0.9-0.1,1.1-0.4l1.2-1.4h0.6l1.2,1.4c0.3,0.3,0.7,0.5,1.1,0.4c1-0.2,1.9-0.5,2.7-0.9
		c0.4-0.2,0.7-0.6,0.7-1l0.2-1.8c0.2-0.1,0.4-0.3,0.5-0.4l1.7,0.4c0.4,0.1,0.9-0.1,1.2-0.4c0.7-0.7,1.2-1.5,1.7-2.4
		c0.2-0.4,0.2-0.8,0-1.2l-0.9-1.6c0.1-0.2,0.2-0.5,0.2-0.7l1.6-0.7c0.4-0.2,0.7-0.6,0.7-1.1v-2.7c0-0.5-0.3-0.9-0.7-1.1l-1.6-0.7
		c-0.1-0.2-0.2-0.5-0.2-0.7l0.9-1.6c0.2-0.4,0.2-0.8,0-1.2c-0.5-0.9-1.1-1.7-1.7-2.4c-0.3-0.3-0.7-0.5-1.2-0.4l-1.4,0.3v-7.5
		C64.3,38.3,62.9,35.9,60.7,34.7L60.7,34.7z M12.8,53.6c2,0,3.5,1.6,3.5,3.5c0,2-1.6,3.5-3.5,3.5s-3.5-1.6-3.5-3.5
		C9.3,55.2,10.9,53.6,12.8,53.6L12.8,53.6z M12.8,62.9c3.3,0,5.9-2.6,5.9-5.8c0-3.2-2.6-5.8-5.9-5.8S7,53.9,7,57.1
		C7,60.3,9.6,62.9,12.8,62.9z"/>
	<path class="st0" d="M2.4,56.6l1.5-0.7c0.4-0.2,0.6-0.5,0.7-0.8c0.1-0.5,0.3-1,0.5-1.4C5.1,53.4,5,53,4.9,52.7L4,51.3
		c0.2-0.3,0.4-0.6,0.6-0.9l1.6,0.4c0.4,0.1,0.8,0,1.1-0.3c0.4-0.3,0.8-0.6,1.2-0.9c0.3-0.2,0.5-0.5,0.6-0.9l0.2-1.7
		c0.3-0.1,0.7-0.3,1-0.3l1.1,1.3c0.2,0.3,0.6,0.4,0.9,0.4h1.7c0.4,0,0.7-0.2,0.9-0.4l1.1-1.3c0.3,0.1,0.7,0.2,1,0.3l0.2,1.7
		c0.1,0.4,0.3,0.7,0.6,0.9c0.4,0.3,0.8,0.6,1.2,0.9c0.3,0.3,0.7,0.4,1.1,0.3l1.6-0.4c0.2,0.3,0.4,0.6,0.6,0.9l-0.9,1.5
		c-0.2,0.3-0.2,0.7-0.1,1.1c0.2,0.5,0.4,1,0.5,1.4c0.1,0.4,0.4,0.7,0.7,0.8l1.5,0.7v1.1l-1.5,0.7c-0.4,0.2-0.6,0.5-0.7,0.8
		c-0.1,0.5-0.3,1-0.5,1.4c-0.2,0.4-0.1,0.7,0.1,1.1l0.9,1.5c-0.2,0.3-0.4,0.6-0.6,0.9l-1.6-0.4c-0.4-0.1-0.8,0-1.1,0.3
		c-0.4,0.3-0.8,0.6-1.2,0.9c-0.3,0.2-0.5,0.5-0.6,0.9l-0.2,1.7c-0.3,0.1-0.6,0.3-1,0.3l-1.1-1.3c-0.2-0.3-0.6-0.4-0.9-0.4H12
		c-0.4,0-0.7,0.2-0.9,0.4L10,67.6c-0.3-0.1-0.7-0.2-1-0.3l-0.2-1.7c-0.1-0.4-0.3-0.7-0.6-0.9c-0.4-0.3-0.8-0.6-1.2-0.9
		c-0.3-0.3-0.7-0.4-1.1-0.3l-1.6,0.4c-0.2-0.3-0.4-0.6-0.6-0.9l0.9-1.5c0.2-0.3,0.2-0.7,0.1-1.1c-0.2-0.5-0.4-1-0.5-1.4
		c-0.1-0.4-0.4-0.7-0.7-0.8l-1.5-0.7L2.4,56.6L2.4,56.6z M8.1,40.8c0-2.6,2.1-4.7,4.7-4.7s4.7,2.1,4.7,4.7V45
		c-0.7-0.3-1.4-0.5-2.1-0.7c-0.4-0.1-0.9,0.1-1.2,0.4l-1.2,1.4h-0.6l-1.2-1.4c-0.3-0.3-0.7-0.5-1.2-0.4c-0.7,0.2-1.4,0.4-2.1,0.7
		L8.1,40.8L8.1,40.8z M12.8,29.1c1.3,0,2.4,1.1,2.4,2.4c0,1.3-1.1,2.4-2.4,2.4s-2.4-1.1-2.4-2.4C10.5,30.2,11.5,29.1,12.8,29.1z
		 M0.7,59.5l1.6,0.7c0.1,0.2,0.2,0.5,0.2,0.7l-0.9,1.6c-0.2,0.4-0.2,0.8,0,1.2c0.5,0.9,1.1,1.7,1.7,2.4c0.3,0.3,0.7,0.5,1.2,0.4
		l1.7-0.4c0.2,0.2,0.4,0.3,0.5,0.4l0.2,1.8c0.1,0.4,0.3,0.8,0.7,1c0.9,0.4,1.8,0.7,2.7,0.9c0.4,0.1,0.9-0.1,1.1-0.4l1.2-1.4H13
		l1.2,1.4c0.3,0.3,0.7,0.5,1.2,0.4c1-0.2,1.9-0.5,2.7-0.9c0.4-0.2,0.7-0.6,0.7-1l0.2-1.8c0.2-0.1,0.4-0.3,0.5-0.4l1.7,0.4
		c0.4,0.1,0.9-0.1,1.2-0.4c0.7-0.7,1.2-1.5,1.7-2.4c0.2-0.4,0.2-0.8,0-1.2L23,60.9c0.1-0.2,0.2-0.5,0.2-0.7l1.6-0.7
		c0.4-0.2,0.7-0.6,0.7-1.1v-2.7c0-0.5-0.3-0.9-0.7-1.1l-1.6-0.7c-0.1-0.2-0.2-0.5-0.2-0.7l0.9-1.6c0.2-0.4,0.2-0.8,0-1.2
		c-0.5-0.9-1.1-1.7-1.7-2.4c-0.3-0.3-0.7-0.5-1.2-0.4l-1.4,0.3v-7.5c0-2.6-1.4-4.9-3.7-6.1c1.8-1.9,1.7-4.8-0.2-6.6l0,0
		c-1.9-1.8-4.9-1.7-6.6,0.2c-1.8,1.8-1.8,4.7,0,6.5c-2.3,1.2-3.7,3.6-3.7,6.1v7.5L4.3,48c-0.4-0.1-0.9,0.1-1.2,0.4
		c-0.7,0.7-1.2,1.5-1.7,2.4c-0.2,0.4-0.2,0.8,0,1.2l0.9,1.6c-0.1,0.2-0.2,0.5-0.2,0.7l-1.6,0.7C0.3,54.9,0,55.3,0,55.8v2.7
		C0,58.9,0.3,59.3,0.7,59.5L0.7,59.5z M23.6,11.6l-0.9-2.2c-7.1,3-12.8,8.5-16.2,15.4l2.1,1C11.8,19.4,17.1,14.4,23.6,11.6
		 M44.3,66.2c-5.8,1.9-12.1,2-17.9,0.2l-0.7,2.2c6.3,2,13.1,1.9,19.3-0.2L44.3,66.2 M61.6,26.1l2.1-1C60.3,18,54.4,12.3,47,9.3
		l-0.9,2.2C52.9,14.3,58.5,19.5,61.6,26.1"/>
</g>
</svg>
