<?xml version="1.0" encoding="UTF-8"?>
<svg width="90px" height="103px" viewBox="0 0 90 103" version="1.1" xmlns="http://www.w3.org/2000/svg" xmlns:xlink="http://www.w3.org/1999/xlink">
    <!-- Generator: sketchtool 49 (51002) - http://www.bohemiancoding.com/sketch -->
    <title>1B69F67A-5859-4FCB-AD9C-F90E3C3E559B</title>
    <desc>Created with sketchtool.</desc>
    <defs>
        <polygon id="path-1" points="0.00108 1.30932414 89.9406 1.30932414 89.9406 50.2068966 0.00108 50.2068966"></polygon>
        <polygon id="path-3" points="0.00144 1.2376 74.85084 1.2376 74.85084 41.2413793 0.00144 41.2413793"></polygon>
        <polygon id="path-5" points="0.97668 1.12624828 39.5406 1.12624828 39.5406 70.0136966 0.97668 70.0136966"></polygon>
        <polygon id="path-7" points="1.77007345 0.591903448 46.7406 0.591903448 46.7406 51.4192138 1.77007345 51.4192138"></polygon>
    </defs>
    <g id="💻-Desktop-Web" stroke="none" stroke-width="1" fill="none" fill-rule="evenodd">
        <g id="1.8.Profile-" transform="translate(-955.000000, -738.000000)">
            <g id="Page-1" transform="translate(955.000000, 737.000000)">
                <path d="M44.97084,45.0592552 C40.21164,45.0592552 36.33984,48.9144276 36.33984,53.6553931 C36.33984,58.3945655 40.21164,62.251531 44.97084,62.251531 C49.73004,62.251531 53.60004,58.3945655 53.60004,53.6553931 C53.60004,48.9144276 49.73004,45.0592552 44.97084,45.0592552 M44.97084,72.0687724 C34.77924,72.0687724 26.48484,63.8079448 26.48484,53.6553931 C26.48484,43.5010483 34.77924,35.2402207 44.97084,35.2402207 C55.16244,35.2402207 63.45684,43.5010483 63.45684,53.6553931 C63.45684,63.8079448 55.16244,72.0687724 44.97084,72.0687724" id="Fill-1" fill="#F37925"></path>
                <path d="M44.97084,72.0678759 C34.77924,72.0678759 26.48484,63.8088414 26.48484,53.6544966 C26.48484,43.5001517 34.52724,35.2411172 44.72064,35.2411172 C29.60244,35.2411172 25.06104,62.2506345 44.97084,62.2506345 C52.39404,62.2506345 55.60164,54.0740828 52.31484,49.1466345 C59.43204,60.5292552 49.02624,72.0678759 44.97084,72.0678759" id="Fill-3" fill="#EB5324"></path>
                <path d="M0.00072,49.0623586 L0.00072,54.5618069 C0.00072,59.121669 2.29032,63.2942207 6.25752,65.5750483 L21.53772,74.5531172 C17.57412,72.2722897 15.13152,67.8253931 15.13152,63.265531 L15.13152,32.757669 C15.13152,32.757669 0.00072,40.6042897 0.00072,49.0623586" id="Fill-5" fill="#931A23"></path>
                <g id="Group-9" transform="translate(0.000000, 53.202455)">
                    <mask id="mask-2" fill="white">
                        <use xlink:href="#path-1"></use>
                    </mask>
                    <g id="Clip-8"></g>
                    <path d="M83.53548,12.3620138 L69.83388,20.3413241 C69.38208,20.6909793 68.90508,21.0101517 68.40468,21.2970483 L51.37668,31.0909793 C47.41308,33.3718069 42.52968,33.3718069 38.56608,31.0909793 L21.53808,21.2970483 C21.13668,21.067531 20.76228,20.8039448 20.39508,20.5367724 L6.40548,12.4086345 C2.44188,10.1296 0.00108,5.9158069 0.00108,1.35594483 L0.00108,18.9480828 C0.00108,23.5079448 2.44188,27.7199448 6.40548,30.0007724 L38.56608,48.4966345 C42.52968,50.7774621 47.41308,50.7774621 51.37668,48.4966345 L83.53548,30.0007724 C87.49908,27.7199448 89.94168,23.5079448 89.94168,18.9480828 L89.94168,1.30932414 C89.94168,5.86918621 87.49908,10.0829793 83.53548,12.3620138" id="Fill-7" fill="#CD2327" mask="url(#mask-2)"></path>
                </g>
                <g id="Group-12" transform="translate(0.000000, 62.167972)">
                    <mask id="mask-4" fill="white">
                        <use xlink:href="#path-3"></use>
                    </mask>
                    <g id="Clip-11"></g>
                    <path d="M68.44284,12.2902897 L51.37704,22.1254621 C51.35364,22.1380138 51.32844,22.1469793 51.30504,22.1613241 L36.24444,30.8166345 C32.28084,33.0974621 27.39564,33.0974621 23.43204,30.8166345 L6.40584,21.0244966 C2.44224,18.7454621 0.00144,14.531669 0.00144,9.9718069 L0.00144,9.98256552 C0.00144,14.5424276 2.44224,18.7544276 6.40584,21.0352552 L38.56464,39.5311172 C42.53004,41.8119448 47.41164,41.8119448 51.37704,39.5311172 L68.44464,29.7264276 C72.40824,27.4456 74.85084,23.2336 74.85084,18.6737379 L74.85084,1.2376 C74.85084,5.79746207 72.40824,10.0112552 68.44284,12.2902897" id="Fill-10" fill="#EB5324" mask="url(#mask-4)"></path>
                </g>
                <g id="Group-15" transform="translate(50.400000, 31.685214)">
                    <mask id="mask-6" fill="white">
                        <use xlink:href="#path-5"></use>
                    </mask>
                    <g id="Clip-14"></g>
                    <path d="M33.13548,9.82997241 L18.00468,1.12624828 C21.96828,3.40707586 24.40908,7.62086897 24.40908,12.180731 L24.40908,29.5863862 L24.40908,31.7614207 L24.40908,49.1670759 C24.40908,53.7269379 21.96828,57.940731 18.00468,60.2215586 L0.97668,70.0136966 L33.13548,51.5178345 C37.09908,49.2388 39.54168,45.0250069 39.54168,40.4651448 L39.54168,20.8826621 C39.54168,16.3228 37.09908,12.1090069 33.13548,9.82997241" id="Fill-13" fill="#F37925" mask="url(#mask-6)"></path>
                </g>
                <g id="Group-18" transform="translate(43.200000, 1.202455)">
                    <mask id="mask-8" fill="white">
                        <use xlink:href="#path-7"></use>
                    </mask>
                    <g id="Clip-17"></g>
                    <path d="M40.33548,22.9034897 L1.77007345,0.591903448 L1.77048,11.7862483 C1.77048,11.7862483 1.70568,14.3970069 3.21228,17.1906621 C4.72068,19.9861103 7.28028,21.1874897 7.28028,21.1874897 L25.20468,31.6072138 C25.32168,31.6753517 25.42428,31.7596276 25.53948,31.8313517 L40.33548,40.3665241 C44.29908,42.6473517 46.74168,46.8593517 46.74168,51.4192138 L46.74168,33.9561793 C46.74168,29.3963172 44.29908,25.1825241 40.33548,22.9034897" id="Fill-16" fill="#FDBD3A" mask="url(#mask-8)"></path>
                </g>
            </g>
        </g>
    </g>
</svg>