<?xml version="1.0" encoding="utf-8"?>
<!-- Generator: Adobe Illustrator 16.0.0, SVG Export Plug-In . SVG Version: 6.00 Build 0)  -->
<!DOCTYPE svg PUBLIC "-//W3C//DTD SVG 1.1//EN" "http://www.w3.org/Graphics/SVG/1.1/DTD/svg11.dtd">
<svg version="1.1" id="Layer_1" xmlns="http://www.w3.org/2000/svg" xmlns:xlink="http://www.w3.org/1999/xlink" x="0px" y="0px"
	 width="60px" height="60px" viewBox="0 0 60 60" enable-background="new 0 0 60 60" xml:space="preserve">
<g>
	<path fill-rule="evenodd" clip-rule="evenodd" fill="#1046F1" d="M59.323,39.871c-2.52,2.471-5.492,4.173-8.828,5.297
		c-0.707,0.238-1.305,0.2-1.436-0.515c-0.061-0.326,0.461-0.918,0.857-1.146c2.277-1.309,4.623-2.503,6.881-3.845
		c0.383-0.228,0.686-1.014,0.627-1.495c-0.52-4.463-2.65-7.987-6.354-10.562c-0.773-0.537-1.314-0.579-2.145,0.054
		c-2.822,2.149-5.947,2.666-9.293,1.273c-0.629-0.262-1.338-0.612-0.873-1.382c0.178-0.295,1.08-0.428,1.504-0.26
		c3.205,1.271,5.957,0.454,8.402-1.731c0.713-0.637,1.293-0.683,2.08-0.238c4.664,2.643,7.523,6.54,8.348,11.879
		c0.033,0.201,0.15,0.39,0.229,0.583C59.323,38.481,59.323,39.176,59.323,39.871z"/>
	<path fill-rule="evenodd" clip-rule="evenodd" fill="#1046F1" d="M0.677,37.785c0.258-1.039,0.459-2.097,0.785-3.114
		c1.333-4.156,3.961-7.249,7.775-9.358c0.781-0.432,1.374-0.387,2.087,0.246c2.49,2.211,5.275,3.044,8.514,1.652
		c0.371-0.159,0.958,0.189,1.445,0.302c-0.282,0.455-0.46,1.146-0.865,1.327c-3.349,1.494-6.519,0.986-9.394-1.201
		c-0.761-0.579-1.275-0.606-2.038-0.083c-3.766,2.583-5.912,6.136-6.423,10.653c-0.051,0.448,0.24,1.144,0.601,1.395
		c1.485,1.034,3.085,1.904,4.583,2.923c0.417,0.284,0.963,0.971,0.866,1.301c-0.244,0.838-1.04,0.669-1.608,0.297
		c-2.128-1.389-4.22-2.83-6.327-4.253C0.677,39.176,0.677,38.481,0.677,37.785z"/>
	<path fill-rule="evenodd" clip-rule="evenodd" fill="#1046F1" d="M30.838,54.679c-7.479-0.139-13.414-2.209-18.446-6.615
		c-0.442-0.386-0.796-1.168-0.772-1.748c0.297-7.089,3.685-12.285,9.829-15.753c0.795-0.448,1.379-0.371,2.084,0.256
		c4.225,3.756,8.708,3.749,12.918,0.008c0.625-0.558,1.17-0.766,1.965-0.325c6.221,3.446,9.65,8.654,9.959,15.8
		c0.027,0.581-0.322,1.355-0.758,1.754C43.112,52.178,36.384,54.674,30.838,54.679z M30.065,52.895
		c5.945-0.152,11.266-1.944,15.838-5.738c0.379-0.315,0.672-1.01,0.639-1.503c-0.416-5.741-3.252-10.024-8.09-13.021
		c-0.313-0.193-1.004-0.128-1.318,0.098c-5.037,3.597-9.298,3.608-14.22,0.047c-0.339-0.245-1.09-0.325-1.422-0.116
		c-4.774,2.99-7.608,7.236-8.028,12.927c-0.04,0.522,0.285,1.263,0.692,1.6C18.769,51.019,24.157,52.748,30.065,52.895z"/>
	<path fill-rule="evenodd" clip-rule="evenodd" fill="#1046F1" d="M19.425,19.812c-0.047-6.894,4.589-11.685,10.248-11.739
		c6.059-0.059,10.852,4.459,10.885,10.354c0.027,4.739-1.879,8.681-5.377,11.799c-3.143,2.802-7.252,2.771-10.385-0.006
		C21.349,27.164,19.602,23.27,19.425,19.812z M38.782,19.483c0.027-5.167-3.266-9.032-7.614-9.567
		c-4.513-0.556-8.632,2.282-9.767,6.729c-1.059,4.152,1.693,10.558,5.538,12.889c2.316,1.404,4.598,1.318,6.742-0.427
		C36.913,26.475,38.489,22.974,38.782,19.483z"/>
	<path fill-rule="evenodd" clip-rule="evenodd" fill="#1046F1" d="M9.244,15.041c0.297,3.372,1.62,6.393,4.386,8.665
		c1.477,1.214,3.153,1.484,5.003,0.801c0.377-0.139,0.932,0.199,1.404,0.317c-0.274,0.446-0.444,1.12-0.839,1.299
		c-1.792,0.813-3.631,0.717-5.393-0.161c-4.548-2.268-7.457-9.405-5.812-14.207c2.098-6.123,9.981-8.238,14.803-3.931
		c0.337,0.301,0.303,1.017,0.442,1.54c-0.524-0.066-1.183,0.047-1.55-0.228c-2.591-1.943-5.36-2.464-8.278-0.977
		C10.721,9.529,9.365,11.85,9.244,15.041z"/>
	<path fill-rule="evenodd" clip-rule="evenodd" fill="#1046F1" d="M43.421,26.869c-1.172-0.324-2.039-0.461-2.803-0.82
		c-0.336-0.159-0.461-0.769-0.68-1.174c0.457-0.142,1.006-0.522,1.357-0.386c2.063,0.797,3.877,0.383,5.402-1.081
		c2.904-2.782,4.66-6.129,3.771-10.236c-1.17-5.398-7.338-7.57-11.77-4.288c-0.172,0.128-0.316,0.357-0.504,0.396
		c-0.453,0.09-0.922,0.094-1.385,0.133c0.072-0.495-0.039-1.188,0.248-1.452c1.936-1.793,4.283-2.669,6.91-2.357
		c6.258,0.746,9.779,6.104,8.113,12.218c-0.844,3.102-2.34,5.82-5.082,7.6C45.882,26.146,44.495,26.449,43.421,26.869z"/>
	<path fill-rule="evenodd" clip-rule="evenodd" fill="#1046F1" d="M8.871,44.313c0.626-0.372,0.99-0.762,1.322-0.737
		c0.303,0.023,0.846,0.565,0.798,0.755c-0.095,0.368-0.502,0.863-0.83,0.905C9.859,45.273,9.491,44.784,8.871,44.313z"/>
</g>
</svg>
