<?xml version="1.0" encoding="utf-8"?>
<!-- Generator: Adobe Illustrator 16.0.0, SVG Export Plug-In . SVG Version: 6.00 Build 0)  -->
<!DOCTYPE svg PUBLIC "-//W3C//DTD SVG 1.1//EN" "http://www.w3.org/Graphics/SVG/1.1/DTD/svg11.dtd">
<svg version="1.1" id="Layer_1" xmlns="http://www.w3.org/2000/svg" xmlns:xlink="http://www.w3.org/1999/xlink" x="0px" y="0px"
	 width="60px" height="60px" viewBox="0 0 60 60" enable-background="new 0 0 60 60" xml:space="preserve">
<g>
	<path fill-rule="evenodd" clip-rule="evenodd" fill="#1046F1" d="M0.807,36.864c9.755-10.813,19.472-21.581,29.208-32.372
		c9.737,10.791,19.457,21.561,29.211,32.372c-2.764,0-5.469,0-8.205,0c0,5.883,0,11.77,0,17.679c-14.013,0-27.994,0-41.996,0
		c0-5.893,0-11.774,0-17.679C6.292,36.864,3.58,36.864,0.807,36.864z M11.246,34.358c0,5.932,0,11.82,0,17.717
		c12.534,0,25.03,0,37.561,0c0-5.92,0-11.81,0-17.73c1.671,0,3.313,0,5.008,0c-7.959-8.821-15.875-17.596-23.799-26.377
		c-7.941,8.802-15.851,17.57-23.81,26.391C7.921,34.358,9.557,34.358,11.246,34.358z"/>
	<path fill-rule="evenodd" clip-rule="evenodd" fill="#1046F1" d="M12.35,22.296c0-4.832,0-9.583,0-14.351c2.935,0,5.857,0,8.8,0
		c0.005,0.106,0.015,0.206,0.015,0.305c0.001,1.338,0.006,2.675-0.006,4.013c-0.001,0.152-0.071,0.34-0.166,0.448
		c-0.584,0.674-1.185,1.331-1.781,1.992c-0.062,0.068-0.129,0.127-0.234,0.229c0-1.532,0-3.007,0-4.505c-1.488,0-2.95,0-4.432,0
		c0,0.134,0,0.252,0,0.373c0,2.912-0.001,5.824,0.004,8.736c0,0.221-0.05,0.384-0.195,0.541
		C13.694,20.794,13.046,21.524,12.35,22.296z"/>
	<path fill-rule="evenodd" clip-rule="evenodd" fill="#1046F1" d="M29.999,15.206c-5.255,5.968-10.497,11.923-15.726,17.862
		c-0.522-0.592-1.03-1.169-1.54-1.749C18.477,24.8,24.24,18.26,29.991,11.732c5.772,6.555,11.549,13.113,17.324,19.671
		c-0.48,0.541-0.994,1.119-1.537,1.729C40.53,27.171,35.275,21.201,29.999,15.206z"/>
	<path fill-rule="evenodd" clip-rule="evenodd" fill="#1046F1" d="M29.212,33.102c0.595,0,1.153,0,1.767,0
		c0,0.319,0,0.644,0.001,0.967c0.002,0.287-0.086,0.649,0.035,0.841c0.115,0.18,0.449,0.18,0.687,0.26
		c0.551,0.185,0.938,0.426,1.359,0.852c-0.235,0.532-0.473,1.071-0.724,1.642c-0.215-0.124-0.412-0.243-0.611-0.355
		c-0.576-0.324-1.176-0.539-1.832-0.43c-0.572,0.096-0.969,0.491-1.073,1.062c-0.11,0.612,0.067,1.115,0.589,1.462
		c0.482,0.321,0.995,0.584,1.495,0.87c0.643,0.368,1.263,0.775,1.714,1.433c1.316,1.914,0.621,4.669-1.397,5.495
		c-0.289,0.117-0.391,0.251-0.37,0.602c0.034,0.509,0.01,1.024,0.01,1.556c-0.596,0-1.161,0-1.757,0c0-0.629,0-1.252,0-1.857
		c-0.439-0.136-0.863-0.218-1.25-0.4c-0.389-0.183-0.742-0.462-1.104-0.713c-0.048-0.032-0.094-0.166-0.074-0.215
		c0.237-0.551,0.489-1.097,0.703-1.569c0.528,0.295,1.016,0.645,1.548,0.84c0.389,0.143,0.84,0.145,1.254,0.096
		c0.542-0.062,0.928-0.428,1.099-1.042c0.183-0.652,0.082-1.262-0.367-1.692c-0.385-0.373-0.861-0.626-1.303-0.921
		c-0.544-0.363-1.142-0.647-1.635-1.084c-1.727-1.532-1.306-4.579,0.736-5.502c0.501-0.227,0.501-0.227,0.501-0.859
		C29.212,34.004,29.212,33.572,29.212,33.102z"/>
</g>
</svg>
