<?xml version="1.0" encoding="utf-8"?>
<!-- Generator: Adobe Illustrator 16.0.0, SVG Export Plug-In . SVG Version: 6.00 Build 0)  -->
<!DOCTYPE svg PUBLIC "-//W3C//DTD SVG 1.1//EN" "http://www.w3.org/Graphics/SVG/1.1/DTD/svg11.dtd">
<svg version="1.1" id="Layer_1" xmlns="http://www.w3.org/2000/svg" xmlns:xlink="http://www.w3.org/1999/xlink" x="0px" y="0px"
	 width="40px" height="40px" viewBox="15 15 40 40" enable-background="new 15 15 40 40" xml:space="preserve">
<g>
	<path fill="#1046F1" d="M28.5,39.875H17.938c-1.346,0-2.438-1.092-2.438-2.438v-19.5c0-1.346,1.092-2.438,2.438-2.438h27.625
		c1.347,0,2.438,1.092,2.438,2.438v14.625h-1.624V17.938c0-0.449-0.364-0.813-0.813-0.813H17.938c-0.449,0-0.813,0.364-0.813,0.813
		v19.5c0,0.448,0.364,0.813,0.813,0.813H28.5V39.875"/>
	<path fill="#1046F1" d="M25.25,43.938h1.625v-4.875H25.25V43.938z M22.813,36.626h-1.625c-1.346,0-2.438-1.092-2.438-2.438l0,0
		v-1.625h1.625v1.625c0,0.449,0.364,0.812,0.813,0.812h1.625V36.626 M18.75,30.937h1.625v-1.625H18.75V30.937z M38.952,31.75
		c-3.978-0.002-7.204,3.222-7.205,7.2c-0.001,3.979,3.222,7.204,7.2,7.206c3.979,0.001,7.205-3.223,7.205-7.201
		c0-1.909-0.757-3.741-2.106-5.092C42.699,32.506,40.864,31.745,38.952,31.75z M38.952,47.779c-4.875,0-8.829-3.951-8.829-8.827
		c0-4.875,3.952-8.828,8.828-8.829c2.342,0,4.588,0.931,6.243,2.586c3.447,3.449,3.447,9.038,0,12.484
		C43.538,46.85,41.293,47.779,38.952,47.779z M47.47,48.587l3.95,3.952l1.119-1.119l-3.951-3.95L47.47,48.587L47.47,48.587z
		 M51.42,54.5c-0.215,0-0.422-0.086-0.574-0.237l-5.099-5.102c-0.317-0.317-0.317-0.832,0-1.148l0,0l2.267-2.267
		c0.317-0.316,0.832-0.316,1.148,0l5.101,5.098c0.317,0.317,0.317,0.832,0,1.149l-2.268,2.267
		C51.843,54.413,51.637,54.499,51.42,54.5L51.42,54.5z"/>
	<path fill="#1046F1" d="M44.046,45.194l1.148-1.149l2.834,2.834l-1.148,1.148L44.046,45.194 M44.75,39.063h-1.625
		c-0.003-2.243-1.82-4.061-4.062-4.063v-1.625C42.202,33.379,44.747,35.923,44.75,39.063 M23.625,44.75h6.5v-1.625h-6.5V44.75z
		 M27.688,20.375c-0.449,0-0.813,0.364-0.813,0.813c0,0.448,0.364,0.812,0.813,0.812c0.449,0,0.813-0.364,0.813-0.812
		C28.5,20.739,28.137,20.375,27.688,20.375z M27.688,23.625c-1.346,0-2.438-1.092-2.438-2.438c0-1.346,1.092-2.438,2.438-2.438
		c1.346,0,2.438,1.091,2.438,2.438C30.125,22.533,29.034,23.625,27.688,23.625L27.688,23.625z M33.375,26.063
		c-0.449,0-0.812,0.364-0.812,0.813s0.363,0.813,0.812,0.813c0.449,0,0.813-0.364,0.813-0.813S33.824,26.063,33.375,26.063z
		 M33.375,29.313c-1.346,0-2.438-1.091-2.438-2.438c0-1.346,1.092-2.438,2.438-2.438l0,0c1.347,0,2.438,1.092,2.438,2.438
		C35.813,28.222,34.721,29.313,33.375,29.313z"/>
	<path fill="#1046F1" d="M22.238,25.489l4.062-4.063l1.15,1.149l-4.063,4.063L22.238,25.489 M27.922,22.577l1.149-1.15l4.063,4.063
		l-1.148,1.149L27.922,22.577 M39.063,20.375c-0.45,0-0.813,0.364-0.813,0.813c0,0.448,0.363,0.812,0.813,0.812
		c0.448,0,0.812-0.364,0.812-0.812C39.875,20.739,39.512,20.375,39.063,20.375L39.063,20.375z M39.063,23.625
		c-1.347,0-2.438-1.092-2.438-2.438c0-1.346,1.091-2.438,2.438-2.438c1.346,0,2.438,1.091,2.438,2.438
		C41.501,22.533,40.409,23.625,39.063,23.625z"/>
	<path fill="#1046F1" d="M33.613,25.492l4.062-4.063l1.149,1.148l-4.063,4.063L33.613,25.492"/>
</g>
</svg>
