<svg xmlns="http://www.w3.org/2000/svg" width="70" height="70" viewBox="0 0 70 70">
    <defs>
        <path id="a" d="M.008 0h58.325v43.75H.008z"/>
    </defs>
    <g fill="none" fill-rule="evenodd">
        <path fill="#1046F1" d="M23.333 43.75H4.375A4.375 4.375 0 0 1 0 39.375v-35A4.375 4.375 0 0 1 4.375 0h49.583a4.375 4.375 0 0 1 4.375 4.375v26.25h-2.916V4.375c0-.805-.653-1.458-1.459-1.458H4.375c-.805 0-1.458.653-1.458 1.458v35c0 .805.653 1.458 1.458 1.458h18.958v2.917"/>
        <path fill="#1046F1" d="M17.5 51.042h2.917v-8.75H17.5zM13.125 37.917h-2.917a4.375 4.375 0 0 1-4.375-4.375v-2.917H8.75v2.917c0 .805.653 1.458 1.458 1.458h2.917v2.917M5.833 27.708H8.75v-2.916H5.833zM42.093 29.167c-7.14-.003-12.93 5.783-12.932 12.923-.003 7.14 5.784 12.93 12.924 12.933 7.14.002 12.93-5.784 12.932-12.924a12.929 12.929 0 0 0-3.781-9.14 12.833 12.833 0 0 0-9.143-3.792zm0 28.771c-8.75 0-15.845-7.093-15.845-15.844 0-8.75 7.093-15.845 15.844-15.846 4.203 0 8.234 1.67 11.206 4.642 6.187 6.189 6.186 16.221-.002 22.408-2.972 2.971-7.001 4.64-11.203 4.64zM57.381 59.386l7.092 7.094 2.007-2.007-7.092-7.093-2.007 2.006zM64.473 70c-.387 0-.758-.154-1.031-.427l-9.154-9.156a1.458 1.458 0 0 1 0-2.062l4.069-4.068a1.459 1.459 0 0 1 2.062 0l9.154 9.15c.57.57.57 1.493 0 2.063l-4.069 4.068c-.273.275-.644.43-1.031.432z"/>
        <path fill="#1046F1" d="M51.236 53.297l2.062-2.063 5.086 5.086-2.062 2.063-5.086-5.086M52.5 42.292h-2.917A7.3 7.3 0 0 0 42.292 35v-2.917c5.635.007 10.202 4.573 10.208 10.209M14.583 52.5H26.25v-2.917H14.583zM21.875 8.75a1.458 1.458 0 1 0 0 2.917 1.458 1.458 0 0 0 0-2.917zm0 5.833a4.375 4.375 0 1 1 0-8.75 4.375 4.375 0 0 1 0 8.75zM32.083 18.958a1.458 1.458 0 1 0 0 2.917 1.458 1.458 0 0 0 0-2.917zm0 5.834a4.375 4.375 0 1 1 0-8.75 4.375 4.375 0 0 1 0 8.75z"/>
        <path fill="#1046F1" d="M12.094 17.928l7.291-7.292 2.063 2.062-7.292 7.292-2.062-2.062M22.296 12.702l2.062-2.063 7.292 7.292-2.062 2.063-7.292-7.292M42.292 8.75a1.458 1.458 0 1 0 0 2.917 1.458 1.458 0 0 0 0-2.917zm0 5.833a4.375 4.375 0 1 1 0-8.75 4.375 4.375 0 0 1 0 8.75z"/>
        <path fill="#1046F1" d="M32.51 17.933l7.292-7.292 2.062 2.062-7.292 7.292-2.062-2.062"/>
    </g>
</svg>
